{"glyphs":{"0":{"ha":578,"x_min":18,"x_max":551,"o":"m 550 428 q 542 358 549 396 q 522 281 535 319 q 424 103 490 183 q 256 29 358 22 q 85 152 151 36 q 28 431 18 268 q 36 499 29 463 q 56 574 43 536 q 149 749 85 669 q 311 829 213 829 q 462 753 408 829 q 536 585 515 676 q 549 502 546 543 q 550 428 551 461 l 550 428 m 400 428 q 394 491 399 446 q 379 588 389 536 q 342 703 365 650 q 282 756 319 756 q 226 704 244 756 q 199 592 207 653 q 192 490 193 538 q 192 431 192 443 q 192 430 192 431 q 192 429 192 429 q 198 367 193 413 q 214 269 203 321 q 251 153 228 206 q 311 101 275 100 q 381 194 354 104 q 400 428 407 285 l 400 428 z "},"1":{"ha":346,"x_min":15,"x_max":275,"o":"m 275 839 q 256 456 265 647 q 238 72 247 264 l 90 6 q 105 341 97 174 q 119 676 113 508 q 103 634 111 656 q 88 592 94 613 q 71 549 79 569 q 54 507 63 528 q 47 498 51 501 q 36 494 42 494 q 34 494 35 494 q 33 494 33 494 q 21 501 26 496 q 15 515 15 507 q 15 520 15 518 q 17 524 15 522 l 122 782 l 275 839 l 275 839 z "},"2":{"ha":517,"x_min":22,"x_max":492,"o":"m 492 356 q 478 276 485 315 q 464 196 471 236 q 449 116 457 156 q 435 36 442 76 l 28 36 q 55 78 42 57 q 82 122 68 100 q 95 142 89 132 q 107 161 101 151 q 203 313 156 236 q 290 471 250 390 q 315 535 306 501 q 324 603 324 568 q 319 647 324 625 q 306 689 315 668 q 269 737 292 719 q 217 753 246 754 q 193 751 206 753 q 168 742 181 749 q 107 681 121 721 q 96 593 93 642 q 120 578 107 583 q 147 574 133 574 q 176 582 163 575 q 200 603 190 589 q 205 609 203 607 q 210 613 207 611 q 215 615 213 614 q 219 615 218 615 q 233 610 228 615 q 239 596 239 604 q 238 594 239 594 q 238 592 238 593 q 237 588 238 590 q 235 583 236 586 q 226 563 231 574 q 214 540 221 551 q 174 482 197 508 q 118 457 150 456 q 103 458 111 457 q 89 463 96 460 q 38 508 53 478 q 24 572 22 538 q 24 585 24 579 q 25 597 25 592 q 34 641 28 619 q 49 681 40 663 q 141 797 81 750 q 274 843 201 843 q 314 839 293 843 q 356 826 335 835 q 439 763 414 803 q 463 675 464 724 q 455 613 463 644 q 432 546 447 581 q 351 395 400 467 q 249 256 301 324 q 229 231 239 243 q 210 206 219 218 l 428 221 q 434 256 431 239 q 442 292 438 274 q 448 327 444 310 q 454 363 451 344 q 461 375 456 371 q 474 379 467 379 q 476 379 475 379 q 476 379 476 379 q 487 373 482 378 q 492 360 492 368 q 492 358 492 358 q 492 356 492 357 l 492 356 z "},"3":{"ha":500,"x_min":22,"x_max":476,"o":"m 439 450 q 467 399 458 426 q 476 342 476 371 q 475 319 476 331 q 472 297 474 308 q 438 201 463 247 q 388 119 414 154 q 385 117 386 118 q 383 114 385 115 q 297 39 349 68 q 185 10 244 10 q 65 65 104 10 q 25 190 25 121 q 26 208 25 199 q 28 226 26 217 q 33 253 29 240 q 42 279 36 267 q 49 290 44 286 q 60 292 54 293 q 73 287 67 292 q 79 274 79 282 q 79 270 79 272 q 78 265 79 268 q 78 263 78 264 q 78 261 78 263 q 81 249 78 256 q 89 236 85 243 q 94 231 92 233 q 99 225 96 228 q 110 213 104 218 q 118 204 115 207 q 173 169 140 183 q 240 149 206 154 q 259 147 250 147 q 278 146 268 146 q 308 148 293 146 q 338 156 324 150 q 378 187 367 167 q 390 232 390 207 q 389 250 390 240 q 385 269 388 260 q 361 321 376 296 q 329 363 346 346 q 270 405 303 389 q 203 433 238 421 q 226 462 214 447 q 250 492 238 476 q 310 580 283 533 q 338 675 338 626 q 335 702 338 689 q 325 729 332 715 q 284 769 311 757 q 225 782 257 782 q 217 782 221 782 q 210 781 214 782 q 144 760 175 778 q 100 713 113 743 q 96 698 97 706 q 94 682 94 690 q 97 663 94 672 q 103 642 99 653 q 118 622 108 628 q 138 615 128 615 q 141 615 139 615 q 144 617 143 615 q 169 626 157 618 q 188 644 181 635 q 192 649 190 647 q 197 653 194 651 q 201 655 199 654 q 206 656 204 656 q 219 649 214 654 q 225 633 225 643 q 225 630 225 632 q 224 625 225 628 q 222 620 222 622 q 221 615 221 618 q 218 604 219 610 q 215 593 217 599 q 190 530 206 558 q 131 493 175 501 q 121 492 125 492 q 113 492 117 492 q 46 526 67 492 q 24 603 25 561 q 23 616 22 610 q 24 628 24 622 q 27 653 25 640 q 33 679 29 665 q 43 704 38 692 q 56 729 49 717 q 140 819 85 782 q 281 856 196 856 q 302 855 292 856 q 324 853 313 854 q 420 806 392 844 q 449 717 449 767 q 447 694 449 706 q 443 671 446 683 q 422 610 438 640 q 386 554 407 579 q 368 535 378 544 q 349 515 358 525 q 338 506 343 510 q 328 496 333 501 q 344 494 336 494 q 360 490 351 493 q 403 476 382 486 q 439 450 425 467 l 439 450 z "},"4":{"ha":563,"x_min":25,"x_max":538,"o":"m 538 306 l 489 192 l 396 176 l 394 74 l 244 -15 l 250 161 l 25 224 q 92 381 58 303 q 160 538 126 460 q 227 694 193 615 q 294 851 261 772 l 414 772 q 410 655 413 714 q 407 538 408 596 q 403 419 406 478 q 400 303 401 361 l 538 306 l 538 306 m 265 686 l 119 342 l 254 306 l 265 686 l 265 686 z "},"5":{"ha":489,"x_min":22,"x_max":467,"o":"m 447 403 q 463 359 458 381 q 467 314 467 338 q 467 308 467 311 q 467 300 467 304 q 412 153 461 224 q 294 50 363 83 q 246 31 269 38 q 200 25 222 25 q 99 63 144 26 q 28 164 54 99 q 27 167 28 165 q 25 171 26 168 q 23 174 24 172 q 22 178 22 176 q 44 194 33 186 q 68 211 56 203 q 90 228 79 219 q 113 246 101 238 q 122 235 117 240 q 131 225 126 231 q 179 174 154 197 q 242 146 204 151 q 253 144 247 144 q 264 144 258 144 q 272 144 268 144 q 279 146 276 144 q 347 169 315 149 q 383 226 378 189 q 384 233 383 229 q 385 240 385 236 q 385 247 385 243 q 385 253 385 250 q 385 266 385 260 q 383 278 385 272 q 320 354 374 336 q 206 374 267 372 q 172 375 189 375 q 139 375 154 375 q 109 375 124 375 q 82 375 94 375 q 88 486 85 431 q 96 599 92 542 q 102 710 99 654 q 108 822 106 767 l 375 822 q 385 865 381 843 q 396 908 390 886 q 402 919 397 915 q 413 925 407 924 q 415 925 414 925 q 417 925 415 925 q 429 919 424 924 q 435 906 435 915 q 435 905 435 906 q 435 903 435 904 q 433 902 433 903 q 433 900 433 901 q 403 772 419 836 q 372 642 388 707 l 138 642 l 129 518 q 163 518 146 518 q 197 518 179 518 q 231 518 214 518 q 264 518 247 518 q 324 515 299 518 q 372 499 350 511 q 406 472 390 489 q 436 426 421 454 q 442 415 439 421 q 447 403 444 410 l 447 403 z "},"6":{"ha":519,"x_min":22,"x_max":497,"o":"m 472 733 l 388 664 q 377 681 382 672 q 365 700 372 690 q 326 749 349 726 q 272 772 303 772 q 267 772 269 772 q 261 771 264 772 q 254 770 257 771 q 249 768 251 769 q 172 672 196 750 q 144 503 149 593 q 143 461 143 482 q 144 421 143 440 q 150 428 147 425 q 156 435 153 432 q 233 502 188 471 q 328 539 279 533 q 336 540 332 540 q 344 540 340 540 q 382 535 364 540 q 417 517 400 529 q 478 443 460 486 q 497 353 497 400 q 496 328 497 340 q 492 303 494 315 q 420 143 476 218 q 292 43 364 68 q 264 35 278 38 q 236 33 250 33 q 143 63 185 33 q 74 138 101 92 q 57 171 64 154 q 44 203 50 188 q 24 314 26 258 q 26 431 22 369 q 34 501 29 464 q 49 575 39 538 q 119 748 69 668 q 261 847 168 828 q 288 851 275 850 q 313 853 300 853 q 411 822 369 853 q 472 733 453 792 l 472 733 m 385 344 q 335 398 368 378 q 264 419 301 418 q 260 419 263 419 q 257 419 258 419 q 207 410 231 419 q 164 381 183 401 q 160 374 163 378 q 157 368 158 371 q 156 366 157 367 q 156 365 156 365 q 153 360 154 363 q 150 354 151 357 q 158 306 153 328 q 168 268 163 283 q 174 255 171 261 q 181 242 176 249 q 238 173 200 204 q 318 142 276 142 q 333 144 325 142 q 347 147 340 146 q 396 186 382 158 q 410 246 410 214 q 410 253 410 250 q 410 261 410 257 q 400 305 407 283 q 385 344 393 326 l 385 344 z "},"7":{"ha":432,"x_min":19,"x_max":413,"o":"m 413 822 q 406 767 410 794 q 400 711 403 739 q 399 710 400 711 q 399 708 399 708 q 398 706 399 707 q 396 703 397 704 q 297 497 331 603 q 265 278 264 392 q 269 205 265 242 q 279 129 272 168 q 303 135 292 132 q 328 143 315 139 q 351 149 339 146 q 375 156 363 153 q 377 156 376 156 q 379 157 378 156 q 380 157 379 157 q 382 157 381 157 q 395 150 390 156 q 400 138 400 144 q 397 126 400 132 q 385 118 393 121 q 232 76 308 97 q 79 35 156 56 q 177 365 119 204 q 326 675 235 526 q 198 675 263 675 q 68 675 133 675 q 63 644 65 660 q 58 611 61 628 q 51 598 57 601 q 39 594 46 594 q 26 599 32 594 q 19 614 19 604 q 19 615 19 614 q 19 615 19 615 q 19 616 19 615 q 19 617 19 617 q 28 678 24 647 q 38 740 33 710 q 46 802 42 771 q 54 864 50 833 q 62 878 56 874 q 75 882 68 882 q 78 881 76 882 q 79 881 79 881 q 90 875 85 879 q 93 863 94 871 q 93 860 93 861 q 93 858 93 860 l 88 822 l 413 822 l 413 822 z "},"8":{"ha":497,"x_min":22,"x_max":476,"o":"m 474 688 q 460 597 476 632 q 415 531 444 561 q 392 508 404 519 q 365 483 379 496 q 436 404 413 447 q 460 308 460 361 q 456 266 460 289 q 444 219 451 243 q 440 206 442 213 q 435 192 438 199 q 387 110 417 149 q 315 51 357 71 q 276 38 296 42 q 236 33 256 33 q 88 97 154 33 q 22 244 22 161 q 24 264 22 254 q 26 283 25 274 q 33 303 29 293 q 40 322 36 313 q 44 328 42 325 q 49 336 46 332 q 74 369 60 353 q 103 401 88 386 q 115 413 108 407 q 126 424 121 418 q 72 509 83 460 q 60 610 60 558 q 102 747 61 685 q 213 836 143 808 q 235 844 224 840 q 257 850 246 847 q 279 853 268 851 q 301 854 290 854 q 420 811 369 853 q 474 688 471 769 l 474 688 m 368 203 q 370 209 369 206 q 372 217 371 213 q 372 223 372 219 q 372 229 372 226 q 338 294 372 265 q 263 346 303 324 q 209 373 235 361 q 168 394 183 385 q 129 348 142 378 q 118 286 117 318 q 118 281 118 283 q 118 276 118 279 q 129 227 119 251 q 156 186 139 203 q 199 158 174 169 q 251 144 225 147 q 260 143 256 143 q 269 143 265 143 q 328 157 301 143 q 368 203 356 171 l 368 203 m 325 511 q 356 563 343 533 q 371 625 368 593 q 372 635 372 631 q 372 646 372 640 q 356 713 372 682 q 299 757 339 743 q 271 765 285 763 q 244 767 257 767 q 174 742 201 767 q 147 674 147 717 q 149 651 147 664 q 156 626 151 639 q 203 567 169 586 q 272 535 236 549 q 299 524 286 529 q 325 511 313 518 l 325 511 z "},"9":{"ha":521,"x_min":24,"x_max":497,"o":"m 496 457 q 492 385 496 424 q 481 307 489 346 q 418 138 464 217 q 281 39 372 60 q 272 37 276 38 q 264 36 268 36 q 247 34 256 35 q 231 33 239 33 q 131 65 174 33 q 65 153 88 96 l 147 222 q 160 203 153 214 q 174 182 167 193 q 215 135 192 157 q 267 114 238 114 q 280 115 274 114 q 293 119 286 117 q 363 215 343 139 q 382 379 382 290 q 381 423 382 401 q 378 465 381 444 q 372 459 375 463 q 367 451 369 456 q 289 382 336 414 q 190 347 242 350 q 187 347 189 347 q 182 347 185 347 q 145 353 164 347 q 110 369 126 358 q 44 449 64 401 q 24 547 24 496 q 24 569 24 558 q 26 590 25 579 q 91 744 39 672 q 215 843 143 817 q 244 851 231 849 q 271 853 257 853 q 365 823 322 853 q 436 749 408 793 q 443 737 440 743 q 450 725 446 731 q 490 596 483 661 q 496 457 497 531 l 496 457 m 369 532 q 360 581 365 558 q 347 618 354 603 q 341 631 344 625 q 333 644 338 638 q 279 708 314 679 q 206 743 244 738 q 199 744 203 744 q 190 744 194 744 q 156 738 172 744 q 125 715 140 731 q 109 688 114 704 q 104 653 104 672 q 105 639 104 646 q 107 625 106 632 q 118 580 110 601 q 135 543 126 558 q 185 491 151 511 q 254 467 218 471 q 262 467 258 467 q 268 467 265 467 q 316 476 293 467 q 357 506 339 485 q 361 513 360 508 q 365 521 363 517 q 365 522 365 521 q 365 524 365 522 q 367 528 367 525 q 369 532 368 531 l 369 532 z "}," ":{"ha":278,"x_min":0,"x_max":0,"o":""}," ":{"ha":278,"x_min":0,"x_max":0,"o":""},"!":{"ha":168,"x_min":11,"x_max":160,"o":"m 136 85 q 118 40 136 58 q 74 22 100 22 q 29 40 47 22 q 11 85 11 58 q 29 130 11 111 q 74 149 47 149 q 118 130 100 149 q 136 85 136 111 l 136 85 m 160 894 q 146 728 153 811 q 133 564 139 646 q 119 399 126 482 q 106 233 113 317 l 50 233 q 41 399 46 317 q 32 564 36 482 q 23 728 28 646 q 14 894 18 811 l 160 894 l 160 894 z "},"\"":{"ha":256,"x_min":11,"x_max":247,"o":"m 247 932 l 151 765 l 108 790 l 204 957 l 247 932 l 247 932 m 150 946 l 54 779 l 11 804 l 107 971 l 150 946 l 150 946 z "},"#":{"ha":694,"x_min":0,"x_max":0,"o":""},"$":{"ha":439,"x_min":21,"x_max":418,"o":"m 418 418 q 369 333 413 364 q 275 289 326 301 q 235 281 254 283 q 199 276 215 278 q 191 223 194 250 q 183 169 188 196 q 176 116 179 143 q 168 63 172 89 q 163 50 167 54 q 153 44 158 46 q 151 44 151 44 q 149 44 150 44 q 147 44 147 44 q 146 44 146 44 q 133 51 139 46 q 129 64 128 56 q 129 66 129 65 q 129 68 129 67 q 144 173 136 121 q 160 276 151 225 q 89 287 122 278 q 31 311 56 296 q 23 319 25 314 q 21 329 21 324 q 26 342 21 336 q 40 349 32 349 q 46 348 43 349 q 51 344 49 347 q 103 324 74 331 q 165 315 132 317 l 185 456 q 119 520 153 488 q 53 585 86 553 q 38 614 43 596 q 32 653 32 632 q 56 726 32 693 q 125 760 79 760 q 177 758 151 758 q 229 758 203 758 q 235 794 232 776 q 239 831 238 813 q 244 865 242 847 q 249 901 247 883 q 256 916 250 911 q 269 919 263 921 q 272 919 271 919 q 274 919 274 919 q 284 913 279 917 q 288 900 289 908 q 288 898 288 899 q 288 896 288 897 l 268 757 q 321 757 294 757 q 374 756 347 757 q 390 749 385 756 q 394 736 394 743 q 388 723 393 729 q 372 717 383 717 q 344 717 358 717 q 318 718 331 717 q 290 718 304 718 q 263 718 276 718 l 254 658 q 276 637 265 647 q 299 615 288 626 q 319 594 308 604 q 342 572 331 583 q 401 496 383 532 q 418 428 418 460 q 418 425 418 426 q 418 424 418 424 q 418 421 418 422 q 418 418 418 419 l 418 418 m 303 339 l 219 421 l 204 315 q 254 324 229 318 q 303 339 279 329 l 303 339 m 222 718 l 192 719 l 219 693 l 222 718 l 222 718 z "},"%":{"ha":694,"x_min":0,"x_max":0,"o":""},"&":{"ha":938,"x_min":42,"x_max":896,"o":"m 896 672 q 848 523 883 581 q 764 429 813 465 q 758 385 761 407 q 751 340 756 363 q 720 243 742 292 q 656 151 699 194 q 515 56 592 88 q 356 25 438 25 q 303 28 329 25 q 251 38 276 31 q 199 52 225 43 q 146 74 172 61 q 72 128 101 94 q 42 211 42 163 q 42 216 42 214 q 43 221 42 218 q 43 225 43 222 q 43 229 43 228 q 160 438 60 369 q 379 550 261 507 q 388 553 383 551 q 397 557 393 556 q 390 560 393 558 q 382 564 386 563 q 272 648 322 594 q 221 774 222 701 q 273 889 221 856 q 393 922 325 922 q 407 922 400 922 q 422 921 414 922 q 510 901 467 917 q 583 863 553 886 q 588 885 586 874 q 593 908 590 896 q 598 931 596 919 q 603 953 600 942 q 610 967 604 963 q 622 969 615 971 q 624 969 624 969 q 625 969 625 969 q 635 963 631 968 q 640 950 640 958 q 640 948 640 949 q 640 946 640 947 q 635 917 638 932 q 629 889 632 903 q 624 860 626 874 q 618 832 621 846 q 649 781 639 807 q 660 728 660 756 q 651 676 660 701 q 625 625 642 650 q 613 604 619 615 q 601 582 607 593 l 529 594 q 535 622 532 608 q 540 649 538 635 q 546 674 543 661 q 551 701 549 688 q 551 704 551 703 q 553 707 551 706 q 553 710 553 708 q 553 713 553 711 q 513 772 551 750 q 426 804 474 794 q 388 810 407 808 q 353 813 369 813 q 335 812 343 813 q 321 810 328 811 q 276 795 290 806 q 261 765 261 785 q 263 750 261 758 q 268 732 265 742 q 342 635 289 672 q 454 576 394 599 q 488 566 471 571 q 519 557 504 561 l 529 475 q 523 473 526 474 q 515 471 519 472 q 478 458 497 464 q 439 444 458 451 q 235 344 329 406 q 119 154 140 283 q 169 131 143 140 q 222 121 194 122 q 307 122 261 118 q 399 138 353 126 q 601 230 507 165 q 714 397 694 294 q 665 374 692 385 q 611 353 639 364 q 590 344 600 349 q 568 338 579 340 q 442 278 501 311 q 356 189 382 246 q 355 187 356 188 q 354 186 354 186 q 347 169 351 176 q 333 163 343 163 q 331 163 332 163 q 331 163 331 163 q 328 163 329 163 q 326 164 328 164 q 314 172 317 167 q 311 183 311 176 q 312 192 311 188 q 314 200 313 196 q 314 201 314 200 q 315 203 314 201 q 317 210 315 207 q 318 217 318 214 q 424 390 339 333 q 610 490 508 447 q 613 492 611 492 q 617 493 615 493 q 759 566 692 526 q 857 682 826 606 q 864 694 858 690 q 876 697 869 699 q 890 692 883 697 q 896 675 896 686 q 896 674 896 675 q 896 674 896 674 q 896 673 896 674 q 896 672 896 672 l 896 672 z "},"'":{"ha":143,"x_min":11,"x_max":150,"o":"m 150 946 l 54 779 l 11 804 l 107 971 l 150 946 l 150 946 z "},"(":{"ha":396,"x_min":18,"x_max":364,"o":"m 364 -192 l 308 -269 q 90 29 163 -140 q 18 376 18 199 q 92 721 19 553 q 308 1018 164 889 l 364 939 q 173 678 238 826 q 110 372 108 529 q 174 69 110 217 q 364 -190 238 -78 l 364 -192 z "},")":{"ha":396,"x_min":31,"x_max":376,"o":"m 31 -192 q 219 65 156 -79 q 285 360 283 208 q 285 367 285 364 q 285 375 285 371 q 222 678 285 531 q 31 939 158 826 l 86 1018 q 301 726 229 892 q 376 388 374 560 q 376 380 376 383 q 376 372 376 376 q 303 28 375 196 q 86 -268 231 -140 l 31 -192 l 31 -192 z "},"*":{"ha":218,"x_min":22,"x_max":211,"o":"m 211 893 l 185 847 l 143 871 l 143 824 l 90 824 l 90 872 l 50 847 l 22 893 l 64 917 l 22 940 l 49 986 l 90 963 l 90 1011 l 143 1011 l 143 963 l 185 986 l 211 940 l 169 917 l 211 893 l 211 893 z "},"+":{"ha":694,"x_min":0,"x_max":0,"o":""},",":{"ha":154,"x_min":7,"x_max":147,"o":"m 135 107 q 144 84 142 96 q 147 61 147 72 q 130 1 147 31 q 92 -49 113 -28 q 63 -74 78 -61 q 31 -96 49 -86 l 11 -64 q 20 -57 13 -62 q 38 -44 28 -51 q 40 -42 39 -43 q 42 -42 40 -42 q 58 -28 50 -35 q 64 -21 65 -22 q 76 -5 71 -14 q 82 15 81 4 q 83 20 83 18 q 83 25 83 22 q 79 47 83 36 q 68 67 75 57 l 29 39 l 7 72 l 104 139 q 108 136 106 138 q 111 133 110 135 q 124 121 118 128 q 135 107 131 114 l 135 107 z "},"-":{"ha":188,"x_min":13,"x_max":158,"o":"m 158 364 l 13 364 l 13 414 l 158 414 l 158 364 l 158 364 z "},".":{"ha":168,"x_min":11,"x_max":136,"o":"m 136 85 q 118 40 136 58 q 74 22 100 22 q 29 40 47 22 q 11 85 11 58 q 29 130 11 111 q 74 149 47 149 q 118 130 100 149 q 136 85 136 111 l 136 85 z "},"/":{"ha":207,"x_min":6,"x_max":222,"o":"m 222 958 l 56 -111 l 6 -111 l 172 958 l 222 958 l 222 958 z "},":":{"ha":168,"x_min":11,"x_max":136,"o":"m 136 224 q 118 179 136 197 q 74 161 100 161 q 29 179 47 161 q 11 224 11 197 q 29 269 11 250 q 74 288 47 288 q 118 269 100 288 q 136 224 136 250 l 136 224 m 136 432 q 118 388 136 406 q 74 369 100 369 q 29 388 47 369 q 11 432 11 406 q 29 477 11 458 q 74 496 47 496 q 118 477 100 496 q 136 432 136 458 l 136 432 z "},";":{"ha":168,"x_min":7,"x_max":147,"o":"m 135 246 q 144 223 142 235 q 147 200 147 211 q 130 140 147 169 q 92 89 113 110 q 63 65 78 76 q 31 42 49 53 l 11 75 q 20 81 13 75 q 38 93 28 86 q 40 95 39 94 q 42 96 40 96 q 58 109 50 103 q 64 117 65 115 q 76 133 71 124 q 82 154 81 143 q 83 159 83 157 q 83 164 83 161 q 79 185 83 175 q 68 206 75 196 l 29 178 l 7 211 l 104 278 q 108 275 106 276 q 111 272 110 274 q 124 260 118 267 q 135 246 131 253 l 135 246 m 136 432 q 118 388 136 406 q 74 369 100 369 q 29 388 47 369 q 11 432 11 406 q 29 477 11 458 q 74 496 47 496 q 118 477 100 496 q 136 432 136 458 l 136 432 z "},"<":{"ha":694,"x_min":0,"x_max":0,"o":""},"=":{"ha":694,"x_min":0,"x_max":0,"o":""},">":{"ha":694,"x_min":0,"x_max":0,"o":""},"?":{"ha":463,"x_min":21,"x_max":442,"o":"m 247 85 q 229 40 247 58 q 185 22 211 22 q 140 40 158 22 q 121 85 121 58 q 140 130 121 111 q 185 149 158 149 q 229 130 211 149 q 247 85 247 111 l 247 85 m 394 504 q 363 471 381 486 q 328 440 346 456 q 326 439 328 440 q 325 438 325 438 q 275 394 299 417 q 238 339 251 371 q 230 317 233 328 q 224 296 226 307 q 216 254 218 275 q 213 210 214 233 l 158 210 q 173 316 161 268 q 207 410 185 364 q 229 452 217 431 q 257 496 242 474 q 264 507 260 501 q 271 518 268 513 q 294 564 283 539 q 311 614 306 589 q 315 634 314 624 q 317 654 317 644 q 311 690 317 674 q 294 721 306 707 q 247 759 272 747 q 196 771 222 771 q 110 735 149 769 q 63 649 71 701 q 79 655 71 653 q 94 657 88 657 q 142 636 122 657 q 163 588 163 615 q 158 563 163 575 q 142 540 153 551 q 119 526 132 531 q 93 522 107 522 q 54 533 72 522 q 31 565 36 544 q 23 598 25 582 q 21 628 21 614 q 87 768 22 714 q 238 821 151 822 q 251 821 244 821 q 265 819 258 821 q 279 818 272 819 q 293 815 286 817 q 404 749 367 799 q 442 638 442 699 q 430 569 442 603 q 394 504 418 536 l 394 504 z "},"@":{"ha":961,"x_min":43,"x_max":917,"o":"m 892 404 q 873 366 885 389 q 844 318 861 343 q 827 294 836 306 q 807 271 818 282 q 760 238 786 249 q 703 226 735 228 q 678 228 697 226 q 636 244 658 231 q 630 248 633 246 q 624 253 626 250 q 603 272 613 261 q 586 297 593 283 q 569 281 578 289 q 554 268 561 274 q 510 244 533 253 q 447 228 486 235 q 442 227 444 228 q 438 226 440 226 q 435 226 436 226 q 432 226 433 226 q 429 225 431 225 q 425 225 428 225 q 391 230 411 225 q 349 246 371 235 q 316 267 332 254 q 288 300 300 281 q 260 363 269 329 q 249 431 251 396 q 256 487 249 456 q 276 551 263 518 q 300 597 286 574 q 332 640 314 619 q 410 701 368 681 q 501 722 451 721 q 603 722 550 722 q 719 722 657 722 q 712 679 715 701 q 704 636 708 657 q 697 591 700 614 q 689 544 693 568 q 676 458 683 501 q 658 367 669 414 q 659 356 658 363 q 663 342 660 349 q 674 321 665 331 q 700 310 683 311 q 728 316 714 310 q 756 336 742 322 q 812 433 792 379 q 833 546 832 486 q 833 554 833 550 q 833 563 833 558 q 809 672 831 618 q 740 768 788 725 q 643 836 700 811 q 517 861 586 861 q 367 833 436 861 q 240 746 299 804 q 156 622 185 690 q 126 471 128 553 q 155 323 126 392 q 240 196 183 254 q 367 110 297 139 q 517 81 436 82 q 653 106 588 81 q 771 176 719 131 l 826 114 q 682 31 761 58 q 515 0 603 3 q 341 33 426 0 q 182 138 256 67 q 82 285 121 199 q 43 471 43 372 q 78 653 43 569 q 182 806 113 736 q 335 909 251 875 q 517 944 418 943 q 674 914 603 944 q 803 822 744 883 q 888 692 860 763 q 917 543 917 622 q 912 481 917 517 q 892 404 907 446 l 892 404 m 621 639 l 501 639 q 443 625 471 639 q 392 582 415 611 q 356 525 369 556 q 335 460 342 494 q 334 451 335 456 q 333 440 333 446 q 334 395 332 419 q 356 346 336 371 q 360 340 358 343 q 365 335 363 338 q 393 315 378 321 q 438 308 408 308 q 460 313 444 308 q 492 328 475 318 q 535 363 517 343 q 569 413 553 383 q 585 453 579 432 q 596 497 590 474 q 597 509 596 503 q 600 521 599 515 q 604 538 603 529 q 607 557 606 547 q 610 578 608 567 q 614 600 613 589 q 616 609 615 604 q 618 619 617 614 q 619 628 618 624 q 621 639 619 633 l 621 639 z "},"A":{"ha":919,"x_min":0,"x_max":915,"o":"m 914 244 q 906 208 911 229 q 894 164 901 186 q 856 88 881 122 q 793 54 832 54 q 731 83 758 54 q 686 149 704 113 q 673 176 679 163 q 663 201 667 190 l 621 68 q 530 49 578 56 q 433 42 482 42 q 420 42 426 42 q 408 42 414 42 q 166 103 281 47 q 1 279 51 160 q 0 285 0 282 q 0 290 0 288 q 15 379 7 335 q 31 468 22 424 q 47 557 39 513 q 64 646 56 601 q 65 651 64 649 q 68 654 67 653 q 256 809 138 750 q 503 889 374 868 q 574 899 539 896 q 644 901 610 901 q 716 898 681 901 q 783 888 751 894 q 788 887 786 888 q 793 886 790 886 q 798 884 796 885 q 803 883 800 883 q 788 811 796 847 q 774 739 781 775 l 731 726 l 757 686 q 742 609 749 650 q 735 528 736 568 q 735 514 735 521 q 735 500 735 507 q 735 492 735 496 q 735 486 735 489 q 756 340 736 411 q 821 214 775 268 q 824 212 822 213 q 826 211 825 211 q 829 211 828 211 q 832 211 831 211 q 834 211 833 211 q 836 211 835 211 q 856 221 846 213 q 871 239 865 229 q 874 246 872 243 q 875 251 875 249 q 881 263 876 260 q 890 268 885 267 q 892 268 892 268 q 894 268 893 268 q 897 268 896 268 q 897 268 897 268 q 910 262 904 267 q 914 249 915 257 q 914 247 914 247 q 914 244 914 246 l 914 244 m 674 742 l 671 744 q 559 743 621 747 q 432 728 497 739 q 190 633 301 701 q 67 438 78 565 q 138 287 58 342 q 313 208 217 232 q 406 190 361 196 q 486 185 451 185 q 560 188 525 185 q 621 200 594 192 l 642 267 q 622 366 629 314 q 615 471 615 418 q 629 613 615 543 q 674 742 643 682 l 674 742 z "},"B":{"ha":1126,"x_min":7,"x_max":1121,"o":"m 1115 635 q 1046 491 1111 546 q 904 407 981 436 q 878 399 892 403 q 853 390 865 394 q 867 387 860 389 q 883 383 875 385 q 969 342 929 369 q 1007 261 1008 314 q 1007 251 1007 256 q 1006 239 1007 246 q 896 83 986 129 q 703 36 806 38 q 700 36 701 36 q 697 36 699 36 q 605 44 650 36 q 521 65 560 51 l 521 -74 l 468 -74 q 374 225 469 107 q 128 429 278 343 q 41 504 75 460 q 7 607 7 549 q 9 631 7 618 q 14 657 11 643 q 127 782 35 740 q 326 840 219 824 q 474 856 403 853 q 590 858 546 858 q 695 857 631 858 q 829 844 760 856 q 1030 783 939 829 q 1115 635 1121 738 l 1115 635 m 1074 629 q 992 685 1074 667 q 813 713 910 704 q 660 719 732 718 q 563 719 589 721 q 358 705 453 717 q 190 674 263 693 q 163 665 179 671 q 128 653 146 660 q 74 626 99 642 q 50 594 50 611 q 51 588 50 592 q 54 582 53 585 q 70 569 60 575 q 97 557 81 563 q 321 440 222 514 q 474 243 419 367 l 474 693 l 521 693 l 521 175 q 603 161 558 167 q 696 156 649 156 q 702 156 699 156 q 708 156 706 156 q 841 172 776 158 q 953 214 906 185 q 953 222 953 218 q 954 229 953 225 q 955 237 954 233 q 956 244 956 240 q 765 303 863 282 q 569 333 668 324 l 568 442 q 591 445 579 443 q 615 449 603 447 q 778 482 697 463 q 936 532 860 501 q 963 543 944 535 q 1003 564 982 551 q 1033 582 1018 572 q 1057 601 1047 592 q 1069 615 1065 608 q 1074 629 1074 622 l 1074 629 z "},"C":{"ha":799,"x_min":8,"x_max":790,"o":"m 790 215 l 776 122 q 628 65 710 86 q 460 42 546 43 q 451 42 456 42 q 443 42 447 42 q 204 92 317 42 q 36 256 92 142 q 15 314 22 283 q 8 375 8 344 q 10 397 8 386 q 13 419 11 408 q 88 635 31 538 q 242 801 144 732 q 347 860 290 836 q 464 883 404 883 q 469 883 467 883 q 476 883 472 883 q 482 883 479 883 q 488 882 485 882 q 651 785 597 871 q 706 597 706 699 q 706 595 706 596 q 706 593 706 594 q 704 556 706 575 q 699 518 703 538 q 677 444 690 481 q 649 371 664 407 q 643 376 646 374 q 639 381 640 378 q 633 385 636 382 q 628 389 631 388 q 585 447 597 417 q 572 508 572 478 q 580 568 572 538 q 596 628 588 599 q 604 655 600 642 q 611 682 608 668 q 609 684 610 683 q 607 686 608 685 q 565 715 589 701 q 515 739 542 729 q 485 748 500 744 q 457 751 471 751 q 349 731 400 754 q 251 676 297 708 q 230 661 240 669 q 208 644 219 653 q 93 520 144 593 q 49 364 42 447 q 56 316 51 339 q 71 274 61 293 q 151 199 96 224 q 274 163 206 174 q 303 159 289 161 q 333 157 318 157 q 363 155 347 156 q 392 154 378 154 q 420 155 406 154 q 450 157 435 156 q 622 178 536 161 q 790 215 708 194 l 790 215 z "},"D":{"ha":975,"x_min":7,"x_max":958,"o":"m 957 446 q 951 383 958 415 q 929 317 943 350 q 857 193 903 253 q 761 94 811 133 q 733 73 747 82 q 706 57 719 64 q 675 47 692 50 q 639 43 658 43 q 591 48 615 43 q 540 60 567 53 q 486 79 514 68 q 435 103 458 90 q 386 127 408 115 q 347 147 364 139 l 326 43 q 315 51 321 47 q 304 57 310 54 q 183 167 225 108 q 107 317 142 225 l 208 424 q 275 374 242 399 q 342 326 308 350 l 361 424 q 203 476 278 440 q 57 557 128 513 q 19 597 31 574 q 7 647 7 621 q 8 659 7 653 q 10 671 8 665 q 37 739 15 706 q 85 793 58 772 q 235 878 154 849 q 399 910 315 907 q 428 911 414 911 q 457 910 443 911 q 464 949 460 929 q 472 988 468 969 q 481 1001 475 997 q 493 1006 486 1006 q 505 999 500 1004 q 510 986 510 994 q 510 983 510 985 q 510 981 510 982 l 496 906 q 810 756 674 883 q 957 446 947 628 l 957 446 m 311 168 q 242 210 275 189 q 176 250 208 231 q 228 170 197 206 q 299 106 258 135 l 311 168 l 311 168 m 839 386 q 709 625 807 539 q 467 754 611 711 l 428 558 q 519 551 474 553 q 611 546 565 549 q 536 451 582 486 q 424 417 490 417 q 418 417 421 417 q 413 417 415 417 q 406 417 408 417 q 400 418 403 418 l 378 303 q 514 221 443 258 q 660 156 585 183 q 688 147 675 150 q 714 144 701 144 q 807 197 774 144 q 844 314 840 250 q 844 323 844 318 q 844 332 844 328 q 843 360 844 347 q 839 386 842 374 l 839 386 m 428 765 q 413 769 421 767 q 394 772 404 771 q 336 781 369 776 q 268 786 303 785 q 260 786 264 786 q 253 786 257 786 q 149 772 197 786 q 85 719 101 758 q 84 716 85 718 q 83 713 83 714 q 82 709 82 711 q 82 706 82 707 q 132 647 82 674 q 242 601 182 621 q 329 576 288 586 q 389 564 371 567 l 428 765 l 428 765 z "},"E":{"ha":881,"x_min":10,"x_max":875,"o":"m 875 278 q 864 255 869 267 q 853 232 858 243 q 847 220 850 226 q 842 208 844 214 q 824 174 833 192 q 807 140 815 157 q 770 111 800 125 q 707 85 740 97 q 653 69 679 76 q 615 60 628 63 q 529 47 581 53 q 421 42 478 42 q 381 42 401 42 q 342 44 361 43 q 113 104 217 56 q 10 268 10 153 q 10 276 10 272 q 10 282 10 279 q 10 288 10 285 q 11 296 11 292 q 102 447 24 396 q 272 519 181 499 q 333 531 303 526 q 392 538 364 535 q 274 594 328 558 q 204 708 219 629 q 202 723 203 715 q 201 738 201 731 q 254 856 201 806 q 371 921 307 906 q 376 922 374 921 q 379 922 378 922 q 390 924 385 924 q 400 925 394 925 q 409 926 404 926 q 419 926 414 926 q 431 926 425 926 q 444 925 438 925 q 546 892 496 918 q 635 835 596 867 q 635 838 635 836 q 636 842 636 840 q 636 845 636 843 q 636 849 636 847 q 635 860 636 854 q 633 871 635 865 q 633 873 633 872 q 633 875 633 874 q 631 884 632 879 q 631 893 631 889 q 631 896 631 894 q 631 899 631 897 q 637 912 631 907 q 650 917 643 917 q 652 917 651 917 q 654 915 653 917 q 664 910 660 914 q 669 897 668 906 q 672 874 671 885 q 675 854 674 864 q 675 851 675 853 q 675 847 675 849 q 673 827 675 838 q 665 804 671 817 q 716 726 700 767 q 732 636 732 685 q 732 621 732 629 q 731 604 732 613 q 727 586 729 596 q 722 565 725 576 q 698 522 714 542 q 660 501 682 501 q 648 503 654 501 q 635 508 642 506 q 594 553 604 524 q 583 617 583 582 q 588 664 583 640 q 596 708 592 688 q 597 715 596 711 q 599 721 597 718 q 516 772 563 750 q 422 803 469 793 q 378 809 400 807 q 335 810 356 811 q 268 792 296 807 q 240 738 240 776 q 241 727 240 732 q 243 715 242 722 q 308 618 256 650 q 424 567 361 586 q 443 560 433 564 q 463 554 453 557 q 490 546 476 550 q 515 536 503 542 l 538 408 q 497 413 517 411 q 457 417 476 414 q 417 419 438 418 q 376 419 397 419 q 322 417 350 419 q 265 410 293 415 q 224 401 247 407 q 178 386 201 394 q 92 342 131 369 q 54 271 54 314 q 54 268 54 269 q 56 265 54 267 q 56 263 56 264 q 56 260 56 261 q 80 223 60 236 q 122 203 100 210 q 144 197 133 200 q 163 193 154 194 q 281 173 222 179 q 399 167 340 167 q 642 195 522 167 q 875 278 761 224 l 875 278 m 663 543 q 667 556 665 550 q 669 568 669 561 q 672 580 671 574 q 672 592 672 586 q 661 642 672 618 q 631 689 650 667 q 630 683 631 686 q 628 676 629 679 q 625 649 626 664 q 624 617 624 633 q 631 565 624 589 q 657 542 638 542 q 658 542 657 542 q 660 543 658 542 q 662 543 661 543 q 663 543 663 543 l 663 543 z "},"F":{"ha":1003,"x_min":4,"x_max":1000,"o":"m 1000 896 q 994 883 997 889 q 986 869 990 876 q 892 811 964 826 q 724 796 819 796 q 690 709 699 753 q 681 621 681 665 q 685 551 681 586 q 694 479 689 515 l 853 464 l 776 378 l 704 385 q 701 332 704 360 q 692 276 699 304 q 617 108 672 185 q 465 33 561 32 q 454 33 460 33 q 442 35 449 33 q 304 117 344 46 q 250 272 264 189 q 247 294 249 283 q 244 314 246 304 l 351 403 q 358 305 350 351 q 390 214 365 258 q 400 196 394 204 q 413 178 406 188 q 421 167 417 172 q 431 156 425 161 q 473 118 449 135 q 524 101 497 101 q 533 102 528 101 q 542 104 538 103 q 551 108 546 106 q 560 114 556 111 q 573 136 569 121 q 576 172 576 151 q 576 192 576 182 q 574 214 575 203 q 571 238 572 226 q 567 260 569 249 q 565 274 565 267 q 563 286 564 281 q 554 342 557 314 q 549 400 551 371 l 246 428 l 340 514 q 442 503 392 508 q 543 494 493 499 q 573 651 544 589 q 642 768 601 713 q 651 783 646 776 q 663 797 657 790 q 478 813 569 801 q 296 838 386 824 q 285 838 290 838 q 276 840 281 839 q 224 847 250 843 q 174 854 199 850 q 144 797 156 829 q 129 733 133 765 q 126 708 126 721 q 125 683 125 696 q 126 663 125 674 q 128 642 126 653 q 131 628 129 636 q 133 614 132 621 q 149 578 139 594 q 178 563 160 563 q 190 565 183 563 q 203 572 196 567 q 231 628 219 599 q 250 690 243 658 q 257 724 254 707 q 263 757 260 740 l 301 753 q 292 702 299 732 q 276 642 286 672 q 237 553 261 594 q 175 500 213 511 q 156 496 165 497 q 136 494 146 494 q 40 545 76 494 q 4 657 4 596 q 90 847 4 772 q 279 943 176 921 q 284 944 282 943 q 288 944 286 944 q 330 950 308 949 q 374 951 351 951 q 403 951 389 951 q 431 949 417 950 q 634 932 532 942 q 838 911 736 922 q 919 904 878 908 q 1000 896 960 900 l 1000 896 z "},"G":{"ha":1044,"x_min":8,"x_max":1040,"o":"m 1039 860 q 1026 803 1040 826 q 993 758 1013 779 q 986 750 990 754 q 979 740 982 746 q 972 732 975 736 q 964 724 968 728 q 959 719 963 721 q 953 717 956 717 q 950 715 951 715 q 947 715 949 715 q 934 721 940 715 q 928 735 928 726 q 928 738 928 736 q 929 742 928 740 q 931 745 929 743 q 933 749 932 747 q 942 760 938 754 q 953 771 947 765 q 963 781 958 775 q 972 792 968 786 q 975 795 974 793 q 978 800 976 797 q 978 803 978 801 q 979 807 979 806 q 976 815 979 813 q 965 819 972 818 q 812 819 886 825 q 664 799 738 814 q 584 779 624 790 q 504 754 544 768 q 415 723 475 744 q 288 669 354 701 q 125 574 199 629 q 51 457 51 519 q 51 449 51 453 q 53 443 51 446 q 53 437 53 440 q 56 429 54 433 q 121 383 67 396 q 242 371 175 371 q 256 371 249 371 q 271 371 264 371 q 346 376 310 372 q 413 383 382 379 q 454 389 436 386 q 482 393 472 392 q 550 410 510 399 q 635 440 590 422 q 692 468 664 453 q 746 500 721 483 q 760 685 747 604 q 810 775 774 767 q 813 776 811 775 q 817 776 815 776 q 820 776 818 776 q 824 776 822 776 q 854 765 842 776 q 872 735 867 754 q 878 707 876 721 q 881 678 881 693 q 879 652 881 665 q 875 625 878 639 q 839 527 864 575 q 785 443 814 479 q 788 386 786 414 q 790 331 789 358 q 792 278 790 304 q 794 231 793 253 l 957 238 q 952 224 956 232 q 946 210 949 217 q 928 165 935 183 q 917 135 922 147 q 894 110 908 115 q 839 104 879 106 q 820 103 831 104 q 799 103 810 103 q 793 60 797 85 q 782 10 789 35 q 742 -76 768 -37 q 675 -115 717 -115 q 672 -115 674 -115 q 668 -115 671 -115 q 665 -114 667 -114 q 661 -114 664 -114 q 585 -97 624 -106 q 507 -76 546 -87 q 319 -10 411 -49 q 150 88 226 29 l 204 207 l 756 229 q 754 255 756 242 q 753 282 753 268 q 750 340 751 310 q 747 400 749 369 q 574 290 672 326 q 374 251 476 253 q 360 251 367 251 q 347 251 354 251 q 292 256 321 253 q 233 265 263 258 q 89 324 156 282 q 11 449 22 367 q 9 467 10 458 q 8 485 8 476 q 157 733 8 633 q 483 888 306 833 q 688 937 589 921 q 856 954 788 953 q 890 953 871 954 q 928 950 908 953 q 1004 925 969 944 q 1039 860 1039 906 l 1039 860 m 758 101 q 690 103 725 101 q 618 108 654 106 q 593 110 606 110 q 568 113 581 111 q 451 115 508 115 q 343 103 394 115 q 377 82 357 93 q 422 60 397 71 q 479 35 449 47 q 540 14 510 24 q 605 -1 574 4 q 664 -7 636 -7 q 704 -3 686 -7 q 735 11 722 1 q 749 33 744 19 q 756 63 754 47 q 758 78 757 69 q 758 93 758 86 q 758 98 758 96 q 758 101 758 100 l 758 101 m 832 732 q 817 691 822 718 q 808 635 811 664 q 806 584 807 608 q 806 544 806 560 q 810 556 808 550 q 815 568 813 561 q 827 602 822 583 q 836 639 832 621 q 840 664 839 651 q 842 688 842 676 q 840 711 842 700 q 832 732 838 722 l 832 732 z "},"H":{"ha":1013,"x_min":4,"x_max":1001,"o":"m 1001 358 l 963 239 l 926 239 l 914 60 l 799 19 l 801 239 l 436 239 q 434 223 435 231 q 433 207 433 215 q 413 83 426 144 q 368 -35 400 21 q 313 -105 344 -79 q 244 -131 281 -131 q 111 -43 161 -131 q 35 151 61 44 q 11 290 18 224 q 4 396 4 357 l 110 461 q 118 405 114 433 q 128 347 122 376 q 165 201 143 274 q 215 61 186 128 q 225 40 218 54 q 242 8 232 25 q 264 -24 251 -8 q 289 -46 276 -40 q 294 -47 292 -46 q 299 -47 296 -47 q 303 -47 301 -47 q 307 -44 306 -46 q 322 -33 315 -40 q 335 -17 329 -25 q 338 -11 336 -14 q 340 -6 339 -8 q 381 113 369 51 q 397 239 392 175 l 263 239 l 301 358 l 399 358 l 401 850 l 499 906 l 447 358 l 803 358 q 803 484 803 421 q 806 610 804 547 q 806 735 806 672 q 807 861 807 799 l 978 969 q 967 817 972 893 q 957 664 961 740 q 946 511 951 588 q 935 358 940 435 l 1001 358 l 1001 358 z "},"I":{"ha":878,"x_min":15,"x_max":872,"o":"m 872 419 q 813 326 846 367 q 713 278 781 285 q 733 215 724 247 q 754 153 743 183 q 774 90 764 121 q 794 26 785 58 q 796 22 796 24 q 796 17 796 19 q 790 4 796 8 q 776 0 783 0 q 774 0 775 0 q 772 0 774 0 q 764 3 768 0 q 758 14 760 7 q 719 135 739 75 q 679 257 699 196 q 556 106 647 156 q 358 57 464 57 q 356 57 357 57 q 353 57 354 57 q 154 107 247 58 q 25 249 61 156 q 17 277 19 263 q 15 307 15 292 q 45 399 15 357 q 132 438 75 440 q 246 435 189 436 q 360 432 303 433 q 474 429 417 431 q 588 426 531 428 q 481 583 528 499 q 433 760 433 667 q 439 813 435 786 q 453 865 443 839 q 503 940 471 917 q 578 961 536 963 q 615 957 596 961 q 656 946 635 953 l 653 842 q 634 840 643 840 q 615 836 625 839 q 641 629 625 732 q 681 425 657 526 l 872 419 l 872 419 m 614 279 q 547 284 581 282 q 481 289 514 286 q 425 292 453 290 q 369 297 397 294 q 246 305 307 301 q 124 310 185 308 q 80 306 100 311 q 60 279 60 301 q 61 272 60 276 q 64 261 63 267 q 134 210 76 233 q 268 178 192 186 q 305 175 286 176 q 342 174 324 174 q 366 174 354 174 q 390 175 378 175 q 516 204 456 181 q 614 279 576 228 l 614 279 m 640 425 q 603 623 618 524 q 576 822 588 722 q 529 778 549 807 q 503 719 510 750 q 500 704 501 713 q 499 689 499 696 q 528 574 497 624 q 597 478 560 524 q 617 452 607 465 q 638 425 628 439 l 640 425 l 640 425 z "},"J":{"ha":672,"x_min":6,"x_max":664,"o":"m 664 329 q 647 326 656 328 q 629 322 638 324 q 604 317 617 319 q 578 313 592 315 q 549 306 564 308 q 521 299 535 303 q 519 284 519 292 q 515 269 518 276 q 530 255 522 263 q 544 239 538 247 q 573 209 558 224 q 601 178 588 194 q 604 174 603 176 q 606 171 606 172 q 607 167 607 168 q 607 163 607 165 q 601 150 607 156 q 586 144 594 144 q 579 146 583 144 q 571 151 575 147 q 539 188 556 171 q 506 224 522 206 q 500 193 503 208 q 494 163 497 178 q 417 -37 471 57 q 254 -172 364 -132 q 217 -182 236 -179 q 181 -185 199 -185 q 58 -139 110 -185 q 6 -12 6 -93 q 107 242 6 131 q 338 403 208 354 q 313 430 326 415 q 288 461 300 444 q 221 556 251 504 q 192 660 190 607 q 193 681 192 671 q 197 701 194 692 q 260 790 214 756 q 357 851 306 825 q 385 867 371 860 q 414 881 400 874 q 438 894 426 888 q 460 907 450 900 q 469 946 461 922 q 489 994 476 969 q 540 1070 510 1036 q 606 1104 571 1104 q 622 1102 614 1104 q 639 1093 631 1100 q 655 1076 650 1086 q 660 1056 660 1067 q 651 1024 660 1040 q 629 989 643 1007 q 604 960 618 975 q 575 933 590 946 q 529 894 551 911 q 497 868 507 876 q 499 762 496 815 q 510 656 503 708 q 510 647 510 651 q 511 639 510 643 q 521 540 517 589 q 525 442 525 490 q 565 441 546 442 q 603 438 583 440 q 622 435 613 436 q 642 432 632 433 l 664 329 l 664 329 m 472 258 l 454 278 q 326 222 388 254 q 203 154 264 190 q 173 136 190 147 q 139 113 156 125 q 91 72 114 93 q 56 28 68 50 q 52 17 54 22 q 49 8 50 13 q 47 0 47 4 q 44 -10 46 -4 q 44 -15 44 -12 q 44 -19 44 -17 q 53 -49 44 -35 q 83 -71 61 -64 q 106 -76 94 -75 q 129 -78 118 -78 q 219 -56 176 -78 q 297 -6 263 -33 q 303 -2 300 -4 q 310 3 307 0 q 415 117 368 53 q 472 258 461 182 l 472 258 m 486 439 q 482 538 486 489 q 472 638 478 588 q 472 643 472 640 q 471 649 472 646 q 463 742 467 696 q 457 836 458 789 q 448 828 453 832 q 439 821 443 825 q 332 715 381 771 q 283 600 283 658 q 287 575 283 588 q 296 550 290 563 q 328 499 310 524 q 367 451 347 475 q 370 447 368 450 q 375 442 372 444 q 383 431 379 436 q 392 421 388 426 q 439 433 415 428 q 486 439 463 438 l 486 439 m 617 1061 q 610 1065 614 1064 q 604 1065 607 1065 q 595 1063 600 1065 q 586 1058 590 1061 q 562 1034 574 1050 q 539 1000 550 1018 q 519 963 528 981 q 508 939 511 946 q 533 956 521 947 q 556 974 544 964 q 567 985 558 976 q 588 1004 576 993 q 594 1012 592 1008 q 601 1018 597 1015 q 615 1037 610 1028 q 621 1053 621 1046 q 620 1058 621 1056 q 617 1061 619 1060 l 617 1061 z "},"K":{"ha":1038,"x_min":3,"x_max":1040,"o":"m 1040 24 q 1013 -11 1026 6 q 986 -46 1000 -28 q 959 -80 972 -62 q 933 -115 946 -97 q 883 -60 908 -87 q 832 -4 857 -32 q 668 166 751 82 q 492 318 585 250 q 451 177 476 239 q 357 65 426 115 q 314 42 335 50 q 274 35 293 35 q 156 105 206 35 q 69 260 106 175 q 32 359 49 311 q 3 439 15 407 q 28 444 15 442 q 53 449 40 446 q 101 459 76 454 q 150 468 126 464 q 218 294 179 378 q 303 128 257 210 q 313 111 308 119 q 322 94 318 103 q 326 93 324 93 q 331 96 328 93 q 333 97 332 96 q 336 100 335 99 q 340 103 339 101 q 340 106 340 104 q 360 249 354 178 q 369 390 367 319 q 347 400 358 396 q 324 407 335 404 q 326 422 325 415 q 328 432 326 428 q 333 444 329 443 q 350 444 338 446 q 359 444 354 444 q 371 444 364 444 q 373 512 372 478 q 374 579 374 546 q 374 646 374 613 q 376 713 375 679 q 362 678 369 696 q 347 643 354 661 q 333 608 340 625 q 317 574 325 590 q 309 564 314 567 q 299 561 304 561 q 285 567 292 561 q 279 581 279 572 q 280 583 279 582 q 281 585 281 583 q 281 587 281 586 q 282 589 282 588 l 436 953 l 569 990 q 554 857 561 924 q 542 724 547 790 q 530 605 536 664 q 517 486 524 546 q 692 624 614 538 q 840 806 771 711 q 892 878 867 842 q 943 949 918 914 l 1004 935 q 815 644 917 781 q 540 438 713 507 q 704 335 615 408 q 883 174 793 261 q 908 151 896 163 q 932 126 921 139 q 941 118 936 122 q 950 110 946 114 q 972 88 961 99 q 996 67 983 78 q 1018 45 1007 56 q 1040 24 1029 35 l 1040 24 z "},"L":{"ha":1115,"x_min":10,"x_max":1119,"o":"m 1119 121 q 1108 102 1114 111 q 1094 83 1101 93 q 1022 19 1065 40 q 929 -1 978 -1 q 877 4 903 -1 q 828 21 851 10 q 647 103 736 64 q 468 179 557 142 q 388 71 438 115 q 268 24 339 26 q 255 24 261 24 q 243 24 249 24 q 105 65 169 26 q 18 178 40 104 q 12 208 14 193 q 10 236 10 222 q 71 374 10 318 q 221 424 132 431 q 265 415 243 421 q 307 400 286 408 q 326 394 317 397 q 344 388 335 390 q 411 365 378 378 q 478 340 444 353 q 488 403 485 372 q 490 463 490 433 q 411 556 435 496 q 376 683 388 617 q 371 712 374 697 q 367 740 368 726 q 360 774 364 757 q 354 806 357 790 q 354 808 354 807 q 354 810 354 808 q 353 812 353 811 q 353 813 353 813 q 360 826 354 822 q 372 831 365 831 q 385 826 379 831 q 392 814 390 822 q 392 808 392 811 q 394 801 393 806 q 425 708 406 754 q 485 629 444 663 q 488 697 485 661 q 499 769 492 733 q 563 936 517 858 q 699 1035 610 1014 q 721 1039 710 1038 q 742 1040 732 1040 q 835 994 803 1039 q 879 885 868 949 q 884 844 882 865 q 886 799 886 822 q 885 760 886 779 q 881 721 883 740 q 808 526 867 615 q 638 431 749 436 q 578 433 606 429 q 529 444 551 436 q 524 385 528 415 q 515 325 521 356 q 617 280 567 303 q 717 233 667 257 q 785 201 751 217 q 851 168 818 185 q 855 166 853 167 q 860 164 857 165 q 931 133 893 147 q 1010 114 969 118 q 1026 112 1018 113 q 1043 111 1035 111 q 1051 111 1047 111 q 1060 113 1056 111 q 1067 113 1063 113 q 1075 114 1071 114 q 1086 115 1081 114 q 1097 117 1092 115 q 1108 119 1103 118 q 1119 121 1114 119 l 1119 121 m 432 196 q 274 260 353 228 q 117 325 194 293 q 114 326 115 326 q 111 328 113 326 q 106 328 108 328 q 100 329 103 329 q 76 314 83 328 q 68 283 68 300 q 131 168 69 210 q 263 122 192 126 q 269 122 267 122 q 275 122 272 122 q 364 140 322 122 q 432 196 406 158 l 432 196 m 829 731 q 829 735 829 733 q 831 740 829 738 q 831 744 831 742 q 831 749 831 747 q 794 857 831 810 q 692 904 757 904 q 575 845 611 906 q 529 714 539 785 q 524 656 525 685 q 524 604 524 628 q 568 588 544 594 q 617 581 592 582 q 626 579 621 579 q 636 579 632 579 q 765 617 706 579 q 829 731 824 654 l 829 731 z "},"M":{"ha":1125,"x_min":0,"x_max":1107,"o":"m 1107 96 l 997 19 q 994 22 996 21 q 990 25 992 24 q 953 58 969 40 q 935 106 936 76 q 925 321 929 213 q 917 538 921 429 l 719 89 q 695 72 710 79 q 667 58 681 65 q 656 55 661 57 q 647 51 651 53 q 641 49 644 50 q 635 46 638 47 q 596 169 611 107 q 582 296 581 231 q 585 428 583 363 q 588 560 586 494 q 590 691 589 625 q 593 824 592 757 q 593 826 593 825 q 593 826 593 826 q 588 851 593 840 q 575 860 583 861 q 568 857 572 860 q 558 847 564 854 q 506 747 525 803 q 475 635 486 692 q 467 585 471 610 q 458 538 463 561 q 455 519 457 529 q 451 501 453 510 q 432 398 442 456 q 407 279 422 340 q 362 128 389 201 q 293 8 335 54 q 233 -32 267 -18 q 160 -43 199 -46 q 48 35 82 -36 q 4 189 14 106 q 0 297 0 244 q 3 382 0 349 l 147 444 q 145 383 146 414 q 146 321 144 351 q 155 209 147 264 q 181 101 163 154 q 187 86 183 94 q 194 68 190 78 q 215 38 203 51 q 243 24 228 24 q 257 28 250 24 q 271 40 264 32 q 343 200 314 94 q 396 421 372 306 q 404 465 400 443 q 413 508 408 488 q 416 527 414 518 q 419 546 418 536 q 428 592 424 569 q 436 639 432 615 q 469 760 449 700 q 525 869 489 819 q 585 935 551 906 q 663 979 619 964 q 677 983 669 982 q 690 985 685 985 q 731 959 719 985 q 744 903 742 933 q 746 875 746 889 q 746 850 746 861 q 746 849 746 850 q 746 847 746 849 q 744 617 746 732 q 742 386 743 501 q 740 309 740 347 q 739 232 739 271 q 819 413 779 322 q 899 594 858 504 q 918 616 903 604 q 954 640 933 628 q 964 647 958 643 q 975 653 969 650 q 1012 674 994 664 q 1040 692 1029 685 q 1047 677 1043 685 q 1056 663 1051 669 q 1057 658 1056 660 q 1060 653 1058 656 q 1069 631 1065 642 q 1074 611 1074 619 q 1075 533 1075 572 q 1075 453 1075 493 q 1076 311 1075 382 q 1081 169 1076 240 q 1084 151 1081 161 q 1092 133 1088 142 q 1093 128 1092 131 q 1096 122 1094 125 q 1101 109 1099 115 q 1107 96 1104 103 l 1107 96 z "},"N":{"ha":896,"x_min":4,"x_max":889,"o":"m 889 789 l 838 646 q 815 660 825 654 q 797 667 806 667 q 790 665 793 667 q 783 661 786 664 q 777 654 781 658 q 769 643 774 650 q 762 626 765 635 q 756 607 758 617 q 755 598 756 603 q 754 589 754 593 q 751 476 753 532 q 749 363 750 419 q 746 251 747 307 q 743 138 744 194 l 767 74 l 669 -1 l 383 635 q 385 619 385 626 q 386 604 386 611 q 403 449 396 526 q 410 292 410 371 q 395 114 410 203 q 343 -60 381 25 q 296 -131 322 -108 q 239 -153 269 -153 q 207 -146 224 -153 q 174 -125 190 -139 q 151 -105 163 -117 q 129 -78 140 -93 q 69 19 96 -33 q 25 125 43 71 q 14 158 19 142 q 4 192 8 175 l 97 288 q 106 265 101 276 q 114 242 110 253 q 189 81 146 158 q 304 -50 232 3 q 358 120 343 32 q 372 299 372 208 q 369 400 372 349 q 360 503 365 451 q 354 553 357 528 q 349 606 351 579 q 335 717 342 661 q 326 826 329 772 l 426 924 q 433 918 429 921 q 439 913 436 915 q 462 889 451 901 q 479 858 472 876 q 537 703 508 781 q 593 549 565 625 q 649 393 621 471 q 707 238 678 315 q 712 435 710 336 q 717 633 714 535 q 717 635 717 635 q 717 638 717 636 q 742 760 719 704 q 818 814 765 815 q 851 808 833 814 q 889 789 868 801 l 889 789 z "},"O":{"ha":1015,"x_min":0,"x_max":1003,"o":"m 997 594 q 1001 559 1000 576 q 1003 525 1003 542 q 872 211 1003 347 q 568 46 742 75 q 528 41 549 43 q 486 39 507 39 q 450 40 468 39 q 414 44 432 42 q 128 171 257 65 q 10 447 0 276 q 135 672 21 607 q 383 744 249 738 q 436 745 410 746 q 488 743 463 744 q 519 739 503 742 q 553 732 536 736 q 613 712 583 724 q 668 685 643 700 q 674 680 672 683 q 678 674 676 676 q 678 671 678 672 q 678 668 678 669 q 672 653 678 660 q 658 649 667 647 q 656 649 657 649 q 653 649 654 649 q 650 649 651 649 q 647 651 649 650 q 590 679 621 667 q 526 699 558 692 q 506 701 517 700 q 485 704 496 703 q 341 700 413 710 q 207 647 269 690 q 144 578 164 617 q 124 499 124 539 q 124 486 124 493 q 125 474 125 479 q 163 376 132 424 q 236 290 193 328 q 398 200 308 229 q 582 168 488 171 q 597 168 589 168 q 613 168 604 168 q 790 208 708 169 q 885 356 872 246 q 888 383 888 369 q 888 408 888 396 q 847 574 888 499 q 729 703 807 649 q 597 764 665 747 q 458 781 529 781 q 360 774 410 781 q 258 758 310 768 l 240 790 q 378 883 297 853 q 549 911 460 913 q 563 911 556 911 q 576 910 569 911 q 847 821 722 903 q 997 594 972 739 l 997 594 z "},"P":{"ha":1185,"x_min":4,"x_max":1186,"o":"m 1060 374 q 881 297 978 315 q 686 275 785 278 q 644 273 665 274 q 603 272 624 272 q 572 272 588 272 q 542 271 557 271 q 542 184 542 228 q 542 97 542 140 q 542 11 542 54 q 542 -75 542 -32 q 535 -92 542 -86 q 521 -96 529 -97 q 519 -96 519 -96 q 518 -96 518 -96 q 508 -90 513 -94 q 503 -75 503 -85 q 503 -53 503 -62 q 504 -35 503 -43 q 504 -3 504 -15 q 501 21 504 10 q 488 45 497 32 q 463 81 479 58 q 457 88 460 85 q 451 94 454 92 q 446 101 449 97 q 440 107 443 104 q 433 78 438 97 q 422 38 429 60 q 404 -13 415 10 q 379 -36 393 -36 q 378 -36 379 -36 q 378 -36 378 -36 q 376 -35 376 -35 q 375 -35 375 -35 q 366 -27 369 -33 q 363 -14 363 -21 q 369 17 363 0 q 383 54 375 35 q 385 60 383 57 q 388 65 386 63 q 403 106 396 86 q 411 136 411 125 q 410 140 411 139 q 408 143 410 142 q 331 218 371 182 q 250 290 290 254 q 247 293 249 292 q 244 296 246 294 q 148 383 196 339 q 56 475 100 426 q 17 533 29 504 q 4 589 4 563 q 38 674 4 636 q 132 732 72 711 q 269 769 199 754 q 410 793 339 785 q 464 798 438 796 q 517 801 490 800 q 524 889 521 846 q 529 975 528 932 q 537 991 531 986 q 550 994 543 996 q 563 990 557 994 q 568 974 569 985 q 563 888 567 931 q 557 804 560 846 q 641 806 599 806 q 725 803 683 806 q 894 785 810 799 q 1057 746 978 771 q 1156 683 1126 725 q 1185 592 1186 642 q 1183 566 1185 579 q 1178 540 1181 553 q 1134 449 1165 493 q 1060 374 1103 404 l 1060 374 m 503 167 l 503 389 q 490 315 497 351 q 474 242 482 278 q 484 217 479 231 q 494 192 489 204 q 499 180 496 186 q 503 167 501 174 l 503 167 m 504 669 q 418 667 483 669 q 278 656 353 664 q 125 633 196 647 q 46 597 54 619 q 46 597 46 597 q 46 596 46 596 q 46 595 46 596 q 46 594 46 594 q 48 589 46 592 q 53 583 50 586 q 55 583 54 583 q 56 582 56 582 q 118 540 86 560 q 183 503 150 521 q 190 499 186 501 q 196 496 193 497 q 333 410 267 456 q 444 294 400 364 q 469 419 458 357 q 489 544 479 482 q 497 607 493 575 q 504 669 501 639 l 504 669 m 1114 567 q 898 632 1010 608 q 672 664 786 656 q 608 668 640 667 q 543 669 575 669 q 528 542 536 606 q 508 415 519 479 q 567 417 538 417 q 625 419 596 418 q 658 420 642 419 q 689 421 674 421 q 902 442 797 424 q 1097 524 1007 460 q 1101 526 1099 525 q 1104 529 1103 528 q 1112 534 1108 532 q 1118 539 1115 536 q 1125 547 1122 543 q 1128 554 1128 550 q 1124 560 1128 557 q 1114 567 1121 564 l 1114 567 z "},"Q":{"ha":1021,"x_min":-3,"x_max":1004,"o":"m 1004 126 q 966 81 986 100 q 911 56 946 63 q 907 55 910 56 q 903 54 904 54 q 894 53 899 54 q 886 53 890 53 q 833 68 856 53 q 788 104 810 83 q 781 110 785 107 q 775 117 778 114 q 767 124 771 121 q 758 132 763 128 q 628 72 697 93 q 485 50 558 50 q 440 52 463 50 q 396 57 418 54 q 121 188 244 83 q 8 460 -3 292 q 136 683 19 611 q 392 757 253 754 q 414 757 403 757 q 435 757 425 757 q 555 741 496 754 q 665 696 614 728 q 672 691 669 694 q 675 685 674 688 q 675 682 675 683 q 675 679 675 681 q 669 665 675 671 q 656 660 664 658 q 653 660 654 660 q 650 660 651 660 q 647 660 649 660 q 644 663 646 661 q 587 690 618 678 q 524 710 556 703 q 503 713 514 711 q 482 715 493 714 q 462 717 472 717 q 440 717 451 717 q 319 706 379 718 q 206 658 258 694 q 141 589 161 628 q 122 510 121 550 q 123 498 122 504 q 124 486 124 492 q 160 388 131 436 q 233 303 189 339 q 372 222 293 253 q 535 182 451 190 q 567 180 551 181 q 599 179 583 179 q 649 181 625 179 q 697 188 674 183 l 579 293 q 628 325 603 313 q 681 338 654 338 q 713 332 696 338 q 746 314 729 326 q 767 298 757 306 q 789 283 778 290 q 810 267 800 275 q 832 251 821 260 q 874 326 861 282 q 885 417 886 369 q 878 490 885 454 q 860 556 871 526 q 740 705 825 646 q 561 782 656 764 q 544 785 553 783 q 528 788 536 786 q 494 791 511 790 q 460 790 478 792 q 365 785 415 790 q 256 769 314 781 l 238 801 q 376 894 294 864 q 547 924 458 924 q 559 924 553 924 q 571 924 565 924 q 843 833 717 915 q 994 606 969 751 q 997 589 996 597 q 999 572 999 581 q 1000 554 1000 563 q 1000 538 1000 546 q 966 370 1000 451 q 871 224 932 289 l 1004 126 l 1004 126 z "},"R":{"ha":1108,"x_min":-6,"x_max":1104,"o":"m 1104 -126 l 981 -183 q 849 -23 910 -106 q 729 144 788 60 q 717 161 724 153 q 706 178 711 169 q 672 228 689 203 q 636 278 654 253 l 608 39 q 530 115 569 79 q 444 182 490 151 q 388 105 417 143 q 332 28 360 67 q 324 20 328 22 q 315 18 319 18 q 301 24 307 18 q 296 38 294 29 q 297 44 296 40 q 300 50 299 47 l 411 203 q 365 229 389 217 q 315 256 340 242 q 292 267 303 261 q 269 278 281 272 q 95 386 175 325 q 7 557 15 447 q 118 813 -6 733 q 393 917 242 892 q 505 931 450 926 q 607 935 560 935 q 695 933 644 936 q 799 922 746 931 q 981 860 897 907 q 1064 713 1064 813 q 963 490 1065 563 q 738 382 861 418 q 732 381 735 382 q 726 379 729 381 l 1104 -126 l 1104 -126 m 603 325 q 598 331 600 328 q 593 336 596 333 q 591 339 592 338 q 589 343 590 340 q 581 351 585 347 q 574 360 578 356 l 511 275 q 551 240 532 258 q 589 201 571 222 l 603 325 l 603 325 m 1001 613 q 1009 629 1007 621 q 1011 646 1011 638 q 869 740 1010 710 q 553 769 728 771 q 538 769 546 769 q 522 769 531 769 q 259 745 383 767 q 82 685 135 724 q 58 654 65 672 q 50 617 50 636 q 61 568 50 592 q 90 528 72 544 q 141 492 114 507 q 197 463 168 476 q 219 451 208 457 q 242 440 231 446 q 262 429 251 435 q 282 418 272 424 q 292 413 288 415 q 303 407 297 410 q 394 356 349 382 q 481 299 439 331 l 544 386 q 521 400 533 393 q 496 414 508 407 q 481 422 489 418 q 464 431 472 426 l 535 519 q 580 515 557 517 q 625 510 603 513 q 631 570 628 540 q 639 631 635 600 q 645 690 642 660 q 653 750 649 719 l 692 746 l 664 508 q 731 508 693 507 q 806 515 768 510 q 920 546 865 524 q 1001 613 975 568 l 1001 613 z "},"S":{"ha":1108,"x_min":3,"x_max":1108,"o":"m 1099 892 q 1023 831 1061 861 q 946 771 985 801 q 869 710 907 740 q 793 650 831 681 q 790 647 792 649 q 786 646 788 646 q 783 646 785 646 q 779 646 781 646 q 765 652 771 646 q 760 665 760 658 q 762 674 760 669 q 768 681 764 678 q 832 731 800 706 q 894 779 864 756 q 826 806 864 799 q 747 814 788 814 q 705 812 726 814 q 663 807 683 810 q 563 786 611 800 q 472 757 514 772 q 442 746 457 751 q 414 735 426 740 q 394 726 411 733 q 357 707 376 718 q 339 698 347 703 q 324 688 331 693 q 306 672 313 679 q 299 658 299 665 q 299 656 299 657 q 300 656 300 656 q 301 653 300 654 q 301 653 301 653 q 386 622 317 636 q 547 593 456 607 q 585 588 567 590 q 624 582 604 585 q 718 569 661 576 q 835 551 775 563 q 991 506 918 535 q 1088 424 1064 476 q 1095 399 1093 411 q 1097 374 1097 386 q 1093 338 1097 356 q 1081 301 1089 319 q 1024 211 1061 256 q 946 131 986 167 q 894 92 919 110 q 849 65 869 75 q 751 33 801 43 q 650 24 701 24 q 617 24 633 24 q 583 28 600 25 q 340 100 458 42 q 133 233 222 158 q 112 253 122 243 q 92 272 101 263 q 41 330 63 301 q 6 385 19 358 q 5 387 6 386 q 4 389 4 388 q 3 394 3 392 q 3 397 3 396 q 8 411 3 406 q 21 415 14 417 q 26 415 24 415 q 31 414 28 414 q 35 411 32 413 q 39 407 38 410 q 231 250 124 310 q 468 171 339 190 q 490 167 476 169 q 519 164 503 165 q 607 155 557 158 q 710 151 657 151 q 717 151 714 151 q 725 151 721 151 q 917 181 831 154 q 1006 281 1004 207 q 967 354 1007 329 q 879 393 928 379 q 835 403 857 399 q 796 413 814 408 q 717 429 757 422 q 636 443 676 436 q 536 461 586 451 q 438 485 486 471 q 410 493 424 489 q 381 504 396 497 q 308 542 342 518 q 260 601 274 565 q 256 612 258 607 q 254 622 254 617 q 252 631 253 626 q 251 642 251 636 q 292 738 251 692 q 382 819 333 785 q 435 851 410 838 q 479 874 460 865 q 491 878 485 876 q 504 883 497 881 q 588 909 542 897 q 682 926 633 921 q 713 930 697 929 q 744 931 729 931 q 868 906 813 931 q 946 821 924 882 q 1010 872 978 847 q 1074 922 1043 897 q 1077 925 1075 924 q 1081 926 1079 926 q 1084 928 1082 928 q 1088 928 1086 928 q 1102 921 1096 926 q 1107 907 1108 915 q 1105 899 1107 903 q 1099 892 1103 894 l 1099 892 z "},"T":{"ha":986,"x_min":6,"x_max":981,"o":"m 981 846 l 933 726 q 831 738 882 732 q 728 749 781 743 q 717 576 722 663 q 707 404 711 490 q 696 232 701 318 q 685 60 690 146 q 677 45 683 50 q 664 40 671 40 q 662 40 663 40 q 661 40 661 40 q 649 47 654 42 q 644 63 643 53 q 650 147 647 104 q 656 231 653 189 q 661 315 658 272 q 667 399 664 357 q 657 358 663 378 q 646 317 651 338 q 592 153 624 233 q 514 4 561 74 q 494 -12 504 -7 q 474 -18 485 -18 q 457 -15 465 -18 q 440 -7 449 -11 q 407 22 424 3 q 375 60 390 40 q 344 107 357 85 q 328 136 331 129 q 298 217 310 176 q 278 301 286 258 l 396 411 q 398 405 397 408 q 399 399 399 401 q 443 249 417 321 q 536 125 469 178 q 606 315 579 215 q 651 515 633 414 q 672 635 663 575 q 689 753 681 694 q 614 761 651 757 q 539 769 576 765 q 463 777 500 774 q 388 785 425 781 q 383 767 385 776 q 378 750 381 758 q 366 704 372 728 q 353 657 360 681 q 323 561 340 608 q 281 475 306 514 q 238 433 263 446 q 189 421 214 421 q 180 422 185 421 q 171 422 175 422 q 117 447 143 428 q 71 494 90 465 q 34 568 50 525 q 11 656 18 611 q 7 690 8 672 q 6 724 6 707 q 7 753 6 739 q 11 779 8 767 q 109 913 32 879 q 274 947 186 947 q 276 947 275 947 q 279 947 278 947 q 293 947 286 947 q 307 947 300 947 q 350 944 329 946 q 390 939 371 942 q 413 1017 401 979 q 435 1094 424 1056 q 443 1105 438 1101 q 454 1108 449 1108 q 467 1103 461 1108 q 474 1090 474 1099 q 474 1088 474 1089 q 474 1088 474 1088 q 473 1085 474 1086 q 472 1083 472 1085 q 451 1007 461 1044 q 429 933 440 969 q 544 915 486 925 q 658 896 601 906 q 819 870 739 883 q 981 846 900 857 l 981 846 m 347 788 q 228 799 288 794 q 108 808 169 804 q 64 794 76 811 q 51 751 51 778 q 55 721 51 738 q 63 688 58 704 q 74 659 68 674 q 85 632 79 644 q 101 598 93 613 q 113 576 108 583 q 122 562 117 569 q 133 546 128 554 q 161 516 146 531 q 192 493 176 501 q 206 488 199 490 q 219 486 213 486 q 244 497 232 486 q 264 529 256 507 q 294 615 281 572 q 322 701 308 658 q 335 744 328 722 q 347 788 342 767 l 347 788 z "},"U":{"ha":961,"x_min":7,"x_max":960,"o":"m 954 224 q 941 208 947 217 q 929 193 935 200 q 918 178 924 186 q 907 164 913 171 q 828 75 869 115 q 732 35 788 35 q 688 42 711 35 q 640 65 665 49 q 565 145 592 97 q 526 247 538 193 q 515 228 521 238 q 504 207 510 218 q 410 92 467 144 q 281 40 353 40 q 247 44 264 40 q 213 54 231 47 q 101 164 138 85 q 60 332 65 243 q 58 352 58 342 q 58 372 58 363 q 67 470 58 424 q 89 553 75 517 q 108 590 96 567 q 136 643 119 614 q 89 681 111 658 q 46 726 67 703 q 33 742 39 735 q 21 756 26 749 q 13 763 17 760 q 7 771 10 767 q 78 809 43 790 q 149 846 114 828 q 174 797 161 821 q 204 750 188 774 q 224 777 213 761 q 250 810 236 793 q 300 858 272 835 q 357 889 328 881 q 369 891 363 890 q 381 892 375 892 q 388 892 385 892 q 396 890 392 892 q 403 888 400 889 q 411 885 407 888 q 438 860 431 875 q 444 828 444 846 q 444 819 444 824 q 443 813 444 815 q 438 788 442 800 q 428 767 433 776 q 342 660 397 706 q 213 619 288 615 q 201 546 206 585 q 196 467 196 507 q 206 360 196 413 q 238 261 215 307 q 279 204 254 228 q 342 174 304 181 q 356 172 349 172 q 368 171 363 171 q 450 208 417 171 q 504 290 483 246 q 512 306 508 299 q 518 321 515 314 q 526 492 513 407 q 556 661 539 576 q 556 664 556 663 q 556 667 556 665 q 564 710 560 689 q 572 753 568 732 l 749 853 q 737 788 743 821 q 724 722 731 754 q 707 638 715 681 q 693 554 699 596 q 684 478 688 515 q 681 403 681 440 q 682 358 681 381 q 686 314 683 336 q 686 312 686 313 q 686 310 686 311 q 720 207 694 254 q 796 161 746 160 q 822 165 808 161 q 851 175 836 168 q 878 192 868 182 q 897 213 888 201 q 909 230 903 221 q 924 249 915 239 q 932 255 928 253 q 940 257 936 257 q 954 250 949 256 q 960 236 960 244 q 958 230 960 233 q 954 224 957 226 l 954 224 m 358 814 q 350 816 354 815 q 342 817 346 817 q 300 798 319 817 q 265 757 281 779 q 252 732 258 744 q 242 711 246 719 q 270 695 257 700 q 294 690 283 690 q 338 710 319 692 q 364 753 356 729 q 369 770 368 761 q 371 786 371 779 q 368 805 371 797 q 358 814 365 813 l 358 814 z "},"V":{"ha":869,"x_min":8,"x_max":882,"o":"m 882 815 l 874 682 l 729 636 q 769 577 751 606 q 800 521 788 549 q 826 445 817 483 q 835 365 835 407 q 831 304 835 336 q 817 236 826 272 q 736 98 797 156 q 593 25 675 40 q 570 22 582 24 q 546 21 558 21 q 531 22 539 21 q 515 22 524 22 q 415 51 464 28 q 332 110 367 75 q 245 250 268 174 q 222 410 222 326 q 226 486 222 447 q 235 564 229 525 q 243 616 239 590 q 251 667 247 642 q 265 749 258 708 q 276 829 272 790 q 276 832 276 831 q 276 836 276 833 q 278 854 278 843 q 276 878 278 865 q 272 909 276 894 q 258 929 268 924 q 156 844 183 907 q 121 713 128 782 q 117 665 118 689 q 117 619 117 642 l 14 604 q 11 635 13 619 q 8 668 10 651 q 8 684 8 676 q 8 700 8 692 q 8 703 8 701 q 8 708 8 706 q 35 856 10 785 q 135 965 61 926 q 167 976 150 972 q 203 981 185 981 q 224 979 213 981 q 244 975 235 978 q 334 938 292 965 q 393 874 376 911 q 421 776 413 826 q 429 672 429 725 q 425 588 429 631 q 414 500 421 544 q 406 449 410 475 q 397 399 401 424 q 381 292 389 344 q 368 188 372 239 q 368 173 368 181 q 369 157 368 165 q 378 126 371 140 q 400 106 385 111 q 422 99 411 101 q 446 97 433 97 q 462 98 454 97 q 478 100 469 99 q 533 117 506 106 q 576 144 560 129 q 679 278 638 199 q 728 442 721 357 q 729 456 729 449 q 729 471 729 464 q 719 550 729 511 q 688 624 710 589 l 619 601 l 536 710 l 882 815 l 882 815 z "},"W":{"ha":1233,"x_min":3,"x_max":1225,"o":"m 1225 631 l 1082 564 q 1113 483 1101 525 q 1126 399 1124 440 q 1128 381 1128 389 q 1128 364 1128 372 q 1101 215 1128 288 q 1022 83 1075 142 q 947 24 988 46 q 863 -3 906 1 q 848 -4 856 -4 q 832 -4 840 -4 q 707 33 765 -4 q 617 144 649 71 q 519 65 574 97 q 394 24 464 33 q 388 23 392 24 q 382 22 385 22 q 369 22 375 22 q 357 21 363 21 q 199 99 250 22 q 147 271 147 175 q 158 359 147 315 q 190 440 168 403 q 233 499 201 458 q 303 588 265 539 q 315 604 308 596 q 326 619 321 613 q 391 715 364 669 q 418 786 418 760 q 417 796 418 792 q 413 803 415 800 q 407 806 411 806 q 399 807 403 807 q 394 807 397 807 q 390 806 392 807 q 385 805 388 806 q 381 804 382 804 q 375 802 378 803 q 371 801 372 801 q 200 671 258 760 q 101 476 142 582 l 3 560 q 99 781 35 679 q 297 907 163 883 q 313 909 306 908 q 328 910 321 910 q 385 898 358 910 q 432 860 411 886 q 465 800 456 833 q 474 731 475 767 q 467 662 474 697 q 447 590 460 626 q 412 503 432 546 q 369 419 392 460 q 324 339 346 376 q 288 275 303 301 q 275 253 285 269 q 253 217 265 236 q 250 211 251 214 q 247 206 249 208 q 227 167 236 186 q 218 140 218 149 q 218 138 218 139 q 219 136 218 138 q 258 110 238 118 q 300 101 278 101 q 335 106 317 101 q 371 118 353 110 q 445 160 408 133 q 513 218 482 188 q 550 258 533 238 q 578 293 567 278 q 574 333 576 306 q 572 397 572 361 q 574 456 572 425 q 579 519 575 488 q 616 682 588 608 q 704 754 644 756 q 709 754 707 754 q 713 754 711 754 q 744 733 729 753 q 764 672 758 713 q 770 620 768 646 q 772 568 772 594 q 740 366 772 465 q 644 179 707 267 q 685 119 660 138 q 753 100 711 100 q 773 101 763 100 q 794 104 783 103 q 992 222 925 124 q 1057 440 1058 319 q 1053 496 1057 468 q 1043 551 1050 524 q 1022 570 1039 564 q 986 581 1006 576 q 949 593 967 586 q 929 614 932 600 q 921 660 925 638 q 913 707 917 683 l 1207 735 l 1225 631 l 1225 631 m 679 672 q 678 672 679 672 q 678 672 678 672 q 677 672 678 672 q 676 672 676 672 q 674 672 675 672 q 672 671 674 672 q 658 659 665 668 q 646 639 651 650 q 638 622 640 631 q 633 610 635 614 q 618 540 624 576 q 610 465 613 503 q 609 405 608 435 q 611 346 610 375 q 629 381 618 358 q 651 433 640 404 q 665 467 658 450 q 676 503 671 485 q 695 569 688 538 q 703 626 703 601 q 697 658 703 646 q 679 672 692 671 l 679 672 z "},"X":{"ha":957,"x_min":0,"x_max":936,"o":"m 932 222 q 863 63 936 121 q 697 4 789 4 q 687 4 692 4 q 678 6 682 4 q 667 6 672 6 q 657 7 663 7 q 434 124 519 29 q 314 350 349 219 q 244 262 279 306 q 175 174 210 218 q 106 85 140 129 q 36 -1 71 42 q 28 -8 32 -6 q 19 -10 24 -10 q 6 -5 13 -10 q 1 8 0 0 q 3 15 1 11 q 6 21 4 18 l 301 399 q 289 500 292 449 q 285 603 286 551 q 284 626 285 614 q 283 650 283 638 q 282 728 283 689 q 278 807 281 768 q 275 828 276 815 q 269 854 274 842 q 258 889 265 872 q 238 911 250 906 q 161 847 181 893 q 142 746 142 800 q 142 731 142 739 q 143 715 142 724 q 147 672 144 693 q 153 631 150 650 q 156 616 154 624 q 158 601 157 608 l 57 586 q 36 664 46 622 q 24 749 26 706 q 24 758 24 753 q 24 769 24 764 q 43 870 24 822 q 113 947 63 918 q 144 959 128 956 q 179 963 161 963 q 205 961 192 963 q 231 956 218 960 q 322 917 279 944 q 385 858 365 890 q 438 739 419 803 q 465 607 456 675 l 729 943 l 881 793 l 782 674 l 658 790 l 472 551 q 478 461 476 507 q 481 369 479 415 q 481 353 481 361 q 482 338 482 344 q 485 255 483 296 q 493 174 488 214 q 495 162 494 168 q 499 149 496 156 q 515 112 504 129 q 544 88 526 94 q 574 79 560 82 q 601 76 588 76 q 730 144 678 78 q 788 290 782 211 q 788 301 788 296 q 788 310 788 306 q 776 376 788 344 q 742 435 765 408 q 739 439 740 438 q 736 443 738 440 q 735 447 736 444 q 735 450 735 449 q 742 464 736 458 q 757 469 749 469 q 765 467 761 468 q 772 463 769 465 q 797 443 785 453 q 819 424 808 433 q 897 340 865 385 q 932 222 929 296 l 932 222 z "},"Y":{"ha":846,"x_min":6,"x_max":846,"o":"m 846 83 l 796 -42 q 742 -47 769 -44 q 686 -50 714 -49 q 681 -93 685 -68 q 669 -143 676 -118 q 632 -231 657 -192 q 565 -269 607 -269 q 558 -269 563 -269 q 550 -268 554 -269 q 473 -251 513 -260 q 394 -231 433 -242 q 206 -165 299 -204 q 39 -65 114 -125 l 93 51 l 644 75 q 642 138 643 107 q 640 199 642 168 q 562 153 606 168 q 472 139 518 139 q 465 139 468 139 q 458 139 461 139 q 369 159 413 142 q 292 208 325 176 q 215 324 236 261 q 194 456 193 388 q 198 519 194 488 q 206 585 201 551 q 213 626 208 606 q 219 668 217 647 q 231 733 225 700 q 240 796 236 765 q 240 798 240 797 q 240 800 240 799 q 242 815 242 806 q 242 833 242 824 q 238 857 240 846 q 228 874 235 868 q 136 799 160 854 q 108 683 113 744 q 106 653 107 668 q 106 622 106 638 l 11 610 q 8 649 10 629 q 6 690 6 669 q 29 817 6 757 q 119 910 53 878 q 147 919 132 917 q 179 922 163 922 q 197 922 188 922 q 214 919 206 921 q 294 890 257 913 q 347 833 332 867 q 372 753 365 794 q 379 669 379 713 q 375 597 379 633 q 364 522 371 560 q 358 487 361 504 q 353 451 356 469 q 337 361 344 406 q 326 275 329 317 q 341 220 324 236 q 388 206 358 204 q 408 207 397 206 q 428 210 418 208 q 555 288 510 225 q 624 422 600 350 q 633 480 631 442 q 638 564 636 518 q 638 577 638 571 q 639 590 639 583 q 640 609 639 600 q 640 628 640 618 q 658 783 644 713 q 713 853 672 853 q 715 853 714 853 q 717 853 715 853 q 719 851 718 851 q 721 851 719 851 q 756 822 746 846 q 767 761 767 797 q 761 701 767 733 q 747 635 756 668 q 733 582 740 608 q 717 532 725 556 q 691 466 703 494 q 672 425 679 438 q 675 338 674 382 q 678 251 676 294 q 681 164 679 207 q 685 76 683 121 l 846 83 l 846 83 m 647 -53 q 576 -49 613 -51 q 503 -44 540 -47 q 483 -44 493 -44 q 463 -42 472 -43 q 343 -38 401 -37 q 232 -51 285 -39 q 266 -72 246 -61 q 311 -94 286 -82 q 367 -117 338 -106 q 428 -139 397 -129 q 492 -155 460 -149 q 551 -161 524 -161 q 593 -157 575 -161 q 624 -142 611 -153 q 639 -119 635 -133 q 646 -89 643 -104 q 647 -74 646 -82 q 647 -60 647 -67 q 647 -56 647 -58 q 647 -51 647 -54 l 647 -53 m 713 769 q 710 769 711 769 q 710 769 710 769 q 685 732 693 769 q 675 650 678 694 q 672 582 672 614 q 672 536 672 550 q 672 531 672 533 q 672 529 672 529 q 678 544 672 529 q 690 576 683 558 q 701 607 696 593 q 707 622 706 621 q 710 633 708 626 q 715 650 713 640 q 720 671 718 660 q 724 693 722 682 q 727 713 726 703 q 728 732 728 724 q 724 758 728 747 q 713 769 721 768 l 713 769 z "},"Z":{"ha":1103,"x_min":7,"x_max":1107,"o":"m 1107 -29 q 1023 -119 1069 -85 q 919 -153 976 -153 q 870 -147 896 -153 q 817 -128 844 -140 q 606 -34 710 -78 q 400 53 503 10 q 383 35 392 44 q 367 15 375 25 q 262 -70 321 -31 q 140 -106 203 -110 q 41 -49 72 -100 q 7 64 10 3 q 7 67 7 65 q 7 72 7 69 q 12 124 7 99 q 26 169 17 149 q 95 249 53 226 q 188 269 138 271 q 236 265 211 269 q 286 256 261 261 q 342 238 314 247 q 396 218 369 228 q 431 203 414 211 q 464 190 449 196 l 586 339 l 458 339 l 519 404 l 642 404 l 857 664 q 753 658 806 660 q 650 658 701 657 q 546 665 597 660 q 442 678 494 669 q 425 618 438 665 q 393 517 413 571 q 343 411 372 460 q 278 354 314 363 q 269 352 274 353 q 263 351 265 351 q 254 350 258 350 q 246 350 250 350 q 135 415 178 351 q 76 554 93 478 q 67 606 69 581 q 64 656 64 632 q 66 685 64 671 q 69 710 68 699 q 153 835 86 790 q 299 885 221 879 q 309 885 304 885 q 318 885 314 885 q 349 883 333 885 q 379 878 365 881 q 415 870 403 872 q 436 867 428 868 q 441 866 439 867 q 444 865 443 865 q 447 865 446 865 q 450 864 449 864 q 451 867 450 865 q 451 871 451 869 q 458 901 454 883 q 474 958 463 919 q 474 960 474 960 q 475 961 475 961 q 479 969 476 965 q 488 972 482 972 q 493 972 490 972 q 499 971 496 972 q 508 963 506 969 q 511 946 511 956 q 509 928 511 938 q 504 908 507 918 q 501 899 503 904 q 499 890 500 894 q 492 870 496 879 q 488 856 489 861 q 552 842 519 849 q 618 831 585 836 q 813 803 715 814 q 1010 785 911 792 l 693 404 l 807 404 l 746 339 l 638 339 l 501 175 q 672 99 588 139 q 839 18 756 58 q 899 -8 871 3 q 954 -25 928 -18 q 994 -32 974 -29 q 1035 -35 1014 -35 q 1069 -33 1051 -35 q 1107 -28 1088 -31 l 1107 -29 m 363 69 q 238 122 300 96 q 111 174 175 147 q 101 177 106 176 q 93 178 97 178 q 65 161 75 178 q 57 121 56 144 q 58 101 57 111 q 63 82 60 92 q 92 26 71 53 q 150 -7 114 0 q 159 -9 154 -8 q 169 -10 164 -10 q 180 -11 175 -11 q 189 -11 185 -11 q 195 -11 192 -11 q 201 -11 199 -11 q 275 5 239 -8 q 338 42 311 18 q 351 56 344 49 q 363 69 357 63 l 363 69 m 403 685 q 295 709 351 696 q 176 739 239 722 q 165 742 171 742 q 154 742 160 742 q 120 725 131 742 q 110 681 110 708 q 116 631 110 658 q 133 576 122 604 q 176 491 150 532 q 231 428 203 450 q 253 415 242 419 q 274 411 264 411 q 292 415 283 411 q 308 429 300 419 q 358 539 333 469 q 403 685 382 608 l 403 685 z "},"[":{"ha":694,"x_min":0,"x_max":0,"o":""},"\\":{"ha":207,"x_min":11,"x_max":228,"o":"m 228 -181 l 178 -181 l 11 889 l 61 889 l 228 -181 l 228 -181 z "},"]":{"ha":694,"x_min":0,"x_max":0,"o":""},"^":{"ha":694,"x_min":0,"x_max":0,"o":""},"_":{"ha":632,"x_min":-3,"x_max":643,"o":"m 643 -53 l -3 -53 l -3 -3 l 643 -3 l 643 -53 l 643 -53 z "},"`":{"ha":383,"x_min":57,"x_max":336,"o":"m 336 1000 l 322 967 q 208 1000 265 983 q 92 1033 150 1017 q 65 1052 74 1039 q 57 1079 57 1065 q 70 1115 57 1099 q 104 1131 83 1131 q 117 1128 111 1131 q 131 1122 124 1126 q 181 1092 156 1107 q 233 1061 207 1076 q 285 1031 260 1046 q 336 1000 311 1015 l 336 1000 z "},"a":{"ha":513,"x_min":4,"x_max":557,"o":"m 551 264 q 470 174 511 219 q 389 83 429 129 q 350 49 371 63 q 301 36 329 36 q 237 60 264 36 q 194 115 210 83 q 192 109 193 113 q 188 103 190 106 q 150 56 174 78 q 97 36 126 35 q 97 36 97 36 q 94 36 96 36 q 92 36 93 36 q 92 36 92 36 q 28 87 53 40 q 4 201 4 133 q 5 223 4 213 q 7 243 6 233 q 13 283 8 260 q 26 329 18 306 q 70 409 43 372 q 139 446 97 446 q 144 446 142 446 q 147 446 146 446 q 159 444 154 446 q 169 439 164 442 q 175 435 172 438 q 181 432 178 433 l 181 447 l 358 447 l 358 107 q 359 108 358 107 q 360 108 360 108 q 360 109 360 108 q 360 110 360 110 q 401 155 381 132 q 442 200 421 178 q 481 245 461 222 q 522 290 501 268 q 529 297 525 294 q 538 297 533 299 q 551 292 546 297 q 557 278 557 286 q 557 274 557 276 q 556 271 557 272 q 554 267 556 269 q 551 264 553 265 l 551 264 m 182 193 l 182 368 q 179 374 181 371 q 176 381 178 376 q 166 394 172 388 q 151 401 160 401 q 119 374 129 401 q 110 311 110 347 q 110 303 110 307 q 111 294 110 299 q 128 217 114 253 q 165 183 142 182 q 168 183 167 183 q 171 185 169 183 q 177 188 174 186 q 182 193 181 190 l 182 193 z "},"b":{"ha":408,"x_min":7,"x_max":378,"o":"m 360 396 q 374 356 369 378 q 378 311 378 335 q 376 280 378 296 q 371 249 374 264 q 299 103 353 169 q 174 38 244 36 q 171 38 172 38 q 168 38 169 38 q 165 38 167 38 q 163 38 164 38 l 163 36 q 42 135 78 44 q 7 361 7 226 q 9 424 7 392 q 14 490 11 457 q 42 663 22 582 q 89 803 63 743 q 101 826 94 814 q 115 853 107 839 q 165 914 135 886 q 231 942 194 942 q 238 942 233 942 q 246 940 242 942 q 285 899 271 935 q 299 810 299 864 q 296 762 299 788 q 288 708 293 736 q 277 663 285 692 q 257 606 269 635 q 211 522 239 560 q 147 483 183 483 q 148 455 147 469 q 150 426 149 440 q 152 398 151 413 q 154 369 153 383 q 210 423 178 399 q 281 447 242 447 q 327 433 307 447 q 360 396 347 419 l 360 396 m 289 163 q 307 200 301 179 q 313 243 313 221 q 313 249 313 246 q 313 256 313 251 q 305 290 311 274 q 289 321 299 307 q 274 337 282 331 q 258 346 267 343 q 248 349 253 349 q 238 350 243 350 q 194 331 214 350 q 165 285 174 313 q 170 252 168 268 q 175 219 172 236 q 182 187 179 203 q 189 154 185 171 q 212 138 200 143 q 236 132 224 132 q 265 141 251 133 q 289 163 278 149 l 289 163 m 250 717 q 260 776 257 749 q 263 826 263 804 q 258 869 261 851 q 249 896 256 888 q 244 894 246 894 q 239 894 242 894 q 171 786 196 892 q 147 522 146 681 q 188 553 169 522 q 222 622 207 585 q 240 679 233 653 q 250 717 247 706 l 250 717 z "},"c":{"ha":401,"x_min":0,"x_max":442,"o":"m 436 283 q 378 209 408 246 q 314 139 347 172 q 299 124 307 132 q 282 108 292 117 q 217 60 253 82 q 146 36 182 38 q 140 36 143 36 q 135 36 138 36 q 35 110 71 42 q 6 276 0 179 q 11 317 7 296 q 22 360 15 338 q 83 467 42 418 q 185 515 124 515 q 235 502 214 515 q 276 468 257 489 l 238 350 q 233 356 235 353 q 228 363 231 358 q 189 405 210 385 q 140 435 168 425 q 124 391 131 414 q 118 344 118 368 q 131 276 118 310 q 168 218 143 243 q 208 191 186 200 q 251 182 229 182 q 292 190 272 182 q 331 215 313 199 q 341 226 336 221 q 351 236 346 231 q 383 275 369 256 q 406 307 396 294 q 410 312 408 310 q 415 314 413 314 q 419 315 417 315 q 424 315 422 315 q 436 310 431 315 q 442 296 442 304 q 440 290 442 293 q 436 283 439 286 l 436 283 z "},"d":{"ha":503,"x_min":0,"x_max":556,"o":"m 556 290 q 550 247 556 269 q 533 199 544 224 q 466 95 510 143 q 374 38 422 47 q 365 37 369 38 q 356 36 360 36 q 285 69 310 36 q 251 143 260 103 q 251 149 251 146 q 250 154 250 151 q 197 80 232 114 q 124 38 161 46 q 113 37 118 38 q 104 36 108 36 q 61 50 82 36 q 24 94 40 64 q 5 146 10 118 q 0 204 0 174 q 0 223 0 214 q 1 240 0 232 q 23 330 6 286 q 64 404 40 374 q 112 450 83 431 q 172 469 140 469 q 180 469 176 469 q 188 468 183 469 q 195 467 192 468 q 203 464 199 465 q 192 544 197 504 q 179 622 186 583 q 175 661 176 642 q 174 699 174 681 q 204 849 174 790 q 272 929 235 907 q 288 936 279 933 q 303 940 296 939 q 311 942 307 942 q 318 942 315 942 q 391 901 364 942 q 432 814 418 861 q 441 764 438 789 q 444 721 444 739 q 442 683 444 703 q 436 642 440 663 q 407 565 426 601 q 353 510 388 528 q 366 429 360 469 q 379 350 372 389 q 392 269 386 310 q 406 189 399 229 q 418 160 408 169 q 440 150 428 150 q 459 157 450 151 q 475 174 468 163 q 495 210 486 190 q 511 250 504 229 q 515 270 514 260 q 517 290 517 281 q 523 306 517 301 q 538 311 529 311 q 540 311 539 311 q 540 311 540 311 q 551 305 546 310 q 556 290 556 300 l 556 290 m 235 257 l 214 396 q 192 422 204 413 q 169 431 181 431 q 150 422 160 431 q 132 399 140 414 q 117 357 122 381 q 113 310 113 333 q 119 256 113 282 q 138 208 125 229 q 158 183 149 190 q 178 175 168 175 q 208 194 194 175 q 229 238 222 214 q 233 247 232 242 q 235 257 233 253 l 235 257 m 351 885 q 347 889 350 888 q 340 890 343 890 q 317 868 324 890 q 310 811 310 846 q 312 767 310 790 q 317 719 314 743 q 322 681 319 700 q 328 643 325 661 q 339 584 333 610 q 346 551 344 558 q 391 622 376 575 q 406 719 406 668 q 406 723 406 721 q 406 728 406 725 q 391 818 404 775 q 351 885 378 861 l 351 885 z "},"e":{"ha":390,"x_min":1,"x_max":464,"o":"m 463 328 q 460 310 461 319 q 457 293 458 301 q 349 117 432 197 q 165 36 267 36 q 161 36 164 36 q 156 38 158 36 q 151 38 154 38 q 146 38 149 38 q 42 101 82 43 q 3 243 1 158 q 3 252 3 247 q 3 261 3 257 q 3 270 3 265 q 4 279 4 275 q 26 367 8 326 q 69 439 44 408 q 75 445 72 442 q 81 451 78 449 q 135 499 104 478 q 200 519 165 519 q 208 519 204 519 q 217 518 213 519 q 271 481 253 510 q 293 421 289 453 q 294 409 293 415 q 294 397 294 403 q 293 372 294 385 q 289 344 292 358 q 253 260 279 300 q 189 197 228 219 q 215 183 201 189 q 242 175 228 178 q 255 173 249 174 q 268 172 261 172 q 322 185 296 174 q 371 218 349 196 q 407 268 393 239 q 424 332 421 297 q 431 347 425 342 q 444 351 438 351 q 447 351 446 351 q 449 350 449 350 q 459 344 454 349 q 463 332 464 340 q 463 330 463 331 q 463 328 463 329 l 463 328 m 208 381 q 208 392 208 385 q 206 406 207 399 q 194 428 201 418 q 175 439 188 439 q 136 420 149 439 q 119 378 124 401 q 117 364 118 371 q 115 351 115 357 q 115 348 115 350 q 115 343 115 346 q 114 340 114 342 q 114 335 114 338 q 124 283 115 308 q 146 238 132 258 q 185 290 169 260 q 206 353 201 321 q 208 367 207 360 q 208 381 208 374 l 208 381 z "},"f":{"ha":396,"x_min":10,"x_max":418,"o":"m 418 799 q 418 793 418 796 q 418 786 418 790 q 411 764 417 775 q 393 749 406 753 q 390 748 392 749 q 388 747 389 747 q 385 747 386 747 q 382 747 383 747 q 343 769 361 749 q 319 817 325 790 q 319 826 319 821 q 318 835 318 831 q 322 853 318 844 q 331 868 325 863 q 327 868 329 868 q 322 868 325 868 q 278 842 292 868 q 263 782 265 815 q 261 747 261 764 q 263 717 261 729 q 263 715 263 715 q 263 714 263 714 q 267 581 265 647 q 271 447 269 514 q 291 447 278 447 q 319 447 304 447 q 348 447 335 447 q 368 447 361 447 q 383 442 378 447 q 389 429 388 436 q 389 428 389 429 q 389 426 389 428 q 384 413 389 419 q 368 407 379 407 q 349 407 363 407 q 321 407 335 407 q 292 407 306 407 q 272 407 279 407 q 275 320 274 364 q 278 232 276 276 q 281 145 279 189 q 283 57 282 101 q 273 -56 286 -4 q 238 -147 260 -108 q 206 -196 224 -175 q 169 -231 188 -217 q 134 -252 151 -244 q 101 -260 117 -260 q 28 -207 47 -260 q 10 -90 10 -154 q 10 -88 10 -89 q 10 -86 10 -87 q 13 -27 10 -56 q 19 24 15 1 q 22 38 21 32 q 24 50 22 44 q 67 178 39 119 q 135 265 96 236 l 133 407 q 113 407 124 407 q 92 407 103 407 q 77 413 82 407 q 71 425 72 418 q 71 426 71 425 q 71 428 71 426 q 76 441 71 435 q 92 447 82 447 l 132 447 q 132 464 132 456 q 132 481 132 472 q 136 644 131 564 q 182 801 142 725 q 244 878 208 850 q 324 907 281 907 q 390 876 367 907 q 417 806 413 844 q 418 802 418 804 q 418 799 418 800 l 418 799 m 142 -75 q 141 -2 142 -37 q 139 69 140 33 q 137 142 138 106 q 136 215 136 179 q 92 140 111 186 q 63 42 74 94 q 53 -8 57 19 q 47 -62 49 -35 q 47 -75 47 -69 q 47 -86 47 -81 q 52 -145 47 -117 q 71 -196 57 -174 q 81 -208 76 -204 q 90 -210 86 -211 q 103 -204 97 -210 q 114 -190 108 -199 q 134 -142 126 -172 q 142 -74 142 -112 l 142 -75 z "},"g":{"ha":476,"x_min":6,"x_max":554,"o":"m 547 349 q 460 258 504 303 q 372 168 417 213 q 372 83 372 125 q 372 -1 372 40 q 359 -100 372 -57 q 325 -174 346 -143 q 274 -224 306 -200 q 210 -254 243 -247 q 199 -255 204 -254 q 189 -256 194 -256 q 149 -245 168 -256 q 115 -211 131 -235 q 100 -172 106 -193 q 96 -128 94 -151 q 97 -110 96 -119 q 99 -92 97 -101 q 117 -17 104 -53 q 147 46 131 19 q 134 43 142 44 q 119 42 126 42 q 116 42 118 42 q 111 42 114 42 q 35 100 64 47 q 7 229 6 153 q 7 248 7 239 q 8 267 7 257 q 15 302 10 283 q 26 339 19 321 q 90 442 47 396 q 192 489 133 489 q 203 488 197 489 q 215 486 210 488 l 215 489 l 371 489 q 371 422 371 456 q 372 357 371 389 q 372 290 372 324 q 372 224 372 257 q 445 300 408 263 q 519 375 482 338 q 524 378 522 376 q 528 381 525 379 q 531 381 529 381 q 535 382 533 382 q 549 376 543 382 q 554 363 554 369 q 553 359 554 361 q 553 356 553 357 q 550 352 551 354 q 547 349 549 350 l 547 349 m 219 -87 q 219 -44 219 -65 q 219 -4 219 -24 q 219 36 219 15 q 218 78 218 57 q 159 -19 183 35 q 135 -128 135 -72 q 136 -143 135 -132 q 140 -167 138 -154 q 151 -194 143 -182 q 169 -207 158 -207 q 201 -187 190 -207 q 215 -143 211 -167 q 219 -110 218 -126 q 219 -86 219 -94 l 219 -87 m 217 253 q 208 319 217 286 q 178 379 199 351 q 174 385 178 379 q 164 396 171 390 q 148 408 157 403 q 129 413 139 413 q 114 408 121 413 q 100 390 107 403 q 90 362 93 378 q 86 329 86 346 q 87 315 86 322 q 89 300 88 308 q 103 248 93 274 q 125 206 113 222 q 151 181 139 188 q 172 174 163 174 q 203 197 192 174 q 217 253 215 219 l 217 253 z "},"h":{"ha":519,"x_min":4,"x_max":572,"o":"m 568 307 q 535 256 551 282 q 504 206 519 231 q 473 153 489 179 q 440 103 457 128 q 401 58 424 76 q 356 33 379 40 q 340 29 349 31 q 325 28 332 28 q 271 52 294 28 q 242 128 247 76 q 235 201 239 164 q 228 274 232 238 l 161 138 l 163 36 l 6 36 q 6 183 6 110 q 6 331 6 257 q 5 478 6 404 q 4 625 4 551 q 17 741 4 690 q 51 828 31 792 q 54 833 53 831 q 58 839 56 836 q 107 894 76 868 q 169 926 138 919 q 178 927 174 926 q 189 928 183 928 q 228 917 210 928 q 261 878 247 906 q 275 840 271 860 q 281 800 279 821 q 282 791 282 796 q 282 781 282 786 q 281 749 282 764 q 276 718 279 733 q 236 582 267 649 q 160 463 206 515 l 161 225 q 181 266 171 246 q 201 307 192 286 q 222 348 211 328 q 242 389 232 368 q 272 429 253 413 q 318 446 292 446 q 324 446 321 446 q 331 444 328 446 q 366 428 350 442 q 383 394 382 414 q 390 327 386 361 q 396 260 393 293 q 402 192 399 226 q 408 125 406 158 q 440 176 424 150 q 472 226 456 201 q 503 277 488 251 q 535 328 519 303 q 544 338 539 335 q 554 339 549 340 q 567 333 561 339 q 572 318 572 326 q 572 313 572 317 q 568 307 571 310 l 568 307 m 242 778 q 240 797 242 782 q 236 828 239 811 q 226 862 232 846 q 208 878 219 878 q 178 853 189 878 q 163 800 168 829 q 158 757 160 778 q 157 728 157 736 q 158 677 157 703 q 158 626 158 651 q 158 576 158 601 q 158 525 158 550 q 213 629 192 572 q 240 744 235 686 q 241 761 240 753 q 242 778 242 769 l 242 778 z "},"i":{"ha":251,"x_min":0,"x_max":306,"o":"m 301 290 q 222 163 263 226 q 142 36 182 100 l 35 36 q 32 135 33 86 q 31 235 31 185 q 28 333 29 283 q 25 432 26 382 q 105 471 65 451 q 183 508 144 490 q 183 426 183 467 q 183 343 183 385 q 184 260 183 301 q 185 178 185 219 q 226 244 206 211 q 268 311 247 278 q 276 319 271 317 q 286 321 281 321 q 300 315 294 321 q 306 301 306 310 q 305 297 306 300 q 301 290 304 293 l 301 290 m 221 669 q 189 591 221 624 q 111 558 157 558 q 33 591 65 558 q 0 669 0 624 q 33 748 0 715 q 111 781 65 781 q 189 748 157 781 q 221 669 221 715 l 221 669 z "},"j":{"ha":404,"x_min":3,"x_max":481,"o":"m 474 274 l 279 88 q 279 15 279 51 q 279 -58 279 -21 q 267 -131 281 -99 q 229 -186 253 -162 q 183 -221 211 -206 q 124 -242 154 -236 q 110 -244 117 -243 q 97 -244 104 -244 q 56 -236 75 -244 q 21 -208 36 -228 q 7 -179 11 -194 q 3 -149 3 -164 q 3 -140 3 -144 q 4 -129 4 -135 q 6 -119 6 -124 q 8 -110 7 -114 q 53 -28 19 -62 q 126 31 88 6 q 124 236 125 133 q 122 440 124 339 q 201 467 163 454 q 278 494 239 481 q 279 317 279 406 q 279 142 279 229 q 321 181 300 161 q 363 222 342 201 q 404 262 383 242 q 446 301 425 282 q 450 304 449 303 q 454 307 451 306 q 458 308 456 307 q 461 308 460 308 q 475 301 469 307 q 481 288 481 294 q 480 284 481 286 q 479 281 479 282 q 476 277 478 279 q 474 274 475 275 l 474 274 m 128 -119 q 126 -66 126 -92 q 126 -15 126 -40 q 68 -72 94 -39 q 42 -149 42 -106 q 42 -157 42 -153 q 44 -165 43 -161 q 55 -188 47 -178 q 76 -199 63 -199 q 111 -181 100 -199 q 126 -142 122 -164 q 127 -130 126 -136 q 128 -118 128 -124 l 128 -119 m 311 669 q 279 591 311 624 q 201 558 247 558 q 123 591 156 558 q 90 669 90 624 q 123 748 90 715 q 201 781 156 781 q 279 748 247 781 q 311 669 311 715 l 311 669 z "},"k":{"ha":536,"x_min":8,"x_max":582,"o":"m 578 249 q 565 228 571 239 q 551 208 558 218 q 548 202 550 206 q 543 196 546 199 q 509 142 526 168 q 472 90 492 115 q 413 35 446 57 q 346 14 381 14 q 299 26 322 15 q 256 64 276 38 q 241 83 249 74 q 225 103 233 93 q 195 142 210 122 q 164 181 181 161 l 165 36 l 10 36 q 9 183 10 110 q 8 331 8 257 q 8 478 8 404 q 8 625 8 551 q 22 741 8 690 q 54 828 35 792 q 98 887 75 864 q 146 919 121 910 q 166 926 156 924 q 186 928 176 928 q 256 890 226 928 q 285 778 285 851 q 284 750 285 764 q 281 724 283 736 q 240 583 272 651 q 163 463 208 515 l 164 331 q 176 356 168 342 q 193 383 183 369 q 240 439 213 413 q 296 472 267 465 q 303 473 299 472 q 311 474 307 474 q 330 472 321 474 q 347 463 339 469 q 372 431 365 450 q 379 389 379 413 q 377 365 379 378 q 372 340 375 353 q 353 286 365 313 q 328 240 342 260 q 322 230 325 235 q 314 221 318 225 l 456 136 q 478 169 467 153 q 500 204 489 186 q 523 238 511 221 q 546 271 535 254 q 551 277 549 275 q 557 279 554 279 q 560 281 558 281 q 563 281 561 281 q 576 275 571 281 q 582 261 582 269 q 581 255 582 258 q 578 249 581 251 l 578 249 m 239 338 q 203 319 215 338 q 188 276 192 300 q 184 252 185 264 q 185 232 183 240 q 187 232 186 232 q 189 232 188 232 q 190 232 189 232 q 192 232 190 232 q 235 249 217 232 q 261 286 253 265 q 264 299 263 293 q 265 311 265 306 q 259 330 265 322 q 239 338 253 338 l 239 338 m 229 860 q 223 870 226 867 q 215 876 219 874 q 212 877 214 876 q 208 878 210 878 q 192 869 200 878 q 178 844 185 860 q 164 792 168 822 q 160 728 160 763 q 160 677 160 703 q 161 626 161 651 q 161 576 161 601 q 161 525 161 550 q 167 535 164 529 q 174 546 171 540 q 211 620 193 578 q 239 706 229 663 q 245 742 243 724 q 247 778 247 760 q 243 822 247 801 q 229 860 239 842 l 229 860 z "},"l":{"ha":313,"x_min":6,"x_max":347,"o":"m 342 228 q 305 191 324 210 q 268 153 286 172 q 231 116 249 135 q 193 78 213 97 q 152 48 175 60 q 104 36 129 36 q 88 38 96 36 q 71 43 79 40 q 26 83 40 56 q 8 142 11 111 q 7 150 7 146 q 7 158 7 154 q 7 392 7 275 q 6 625 7 508 q 19 741 6 690 q 53 828 32 792 q 59 838 56 833 q 67 849 63 843 q 119 904 88 879 q 186 929 150 929 q 189 929 188 929 q 192 929 190 929 q 194 928 193 928 q 197 928 196 928 q 255 892 236 922 q 279 826 274 861 q 283 801 282 814 q 283 778 283 789 q 283 753 283 765 q 281 729 282 742 q 240 587 272 657 q 160 463 208 517 q 162 317 161 390 q 163 172 163 244 q 169 145 163 156 q 185 136 175 135 q 196 140 190 136 q 208 149 201 143 q 234 176 221 163 q 261 203 247 189 q 288 228 275 215 q 314 256 301 242 q 317 258 315 257 q 321 261 319 260 q 324 262 322 261 q 328 263 326 263 q 342 256 336 263 q 347 242 347 250 q 347 238 347 240 q 346 235 347 236 q 344 231 346 233 q 342 228 343 229 l 342 228 m 239 724 q 243 753 242 738 q 244 783 244 768 q 244 788 244 786 q 244 793 244 790 q 238 837 243 815 q 218 872 232 858 q 215 875 217 874 q 213 876 214 876 q 210 878 211 878 q 207 878 208 878 q 194 872 200 878 q 183 858 188 865 q 178 851 181 854 q 175 844 176 847 q 163 792 167 822 q 158 728 158 763 q 158 677 158 703 q 160 626 158 651 q 160 576 160 601 q 160 525 160 550 q 212 620 192 569 q 239 724 232 671 l 239 724 z "},"m":{"ha":800,"x_min":1,"x_max":879,"o":"m 879 303 q 851 248 875 285 q 796 171 828 211 q 755 124 776 147 q 711 82 733 101 q 705 76 708 79 q 699 71 701 74 q 692 65 696 68 q 685 60 688 63 q 651 39 669 49 q 614 24 633 29 q 602 22 608 22 q 590 21 596 21 q 569 24 579 21 q 547 36 558 28 q 524 71 533 49 q 513 128 515 93 q 505 201 508 164 q 499 274 501 238 l 428 129 l 432 36 l 272 36 l 260 275 l 133 36 l 11 36 q 6 239 8 138 q 1 442 4 340 l 165 432 l 169 188 q 197 238 183 213 q 224 289 210 264 q 249 340 236 314 q 276 390 263 365 q 309 430 289 414 q 356 446 329 446 q 362 446 358 446 q 368 444 365 446 q 402 426 388 440 q 418 393 417 413 q 419 348 418 371 q 421 303 419 325 q 423 257 422 279 q 425 211 424 235 q 469 301 447 256 q 513 389 490 346 q 546 430 524 414 q 592 446 568 446 q 614 442 603 446 q 635 429 625 438 q 646 417 642 424 q 653 401 650 410 q 653 398 653 400 q 654 394 654 396 q 667 251 661 322 q 681 107 674 179 q 722 146 701 125 q 761 189 743 167 q 815 262 793 228 q 840 311 838 296 q 846 322 842 318 q 854 326 850 325 q 856 326 856 326 q 858 326 857 326 q 873 321 867 326 q 879 307 879 315 q 879 305 879 306 q 879 303 879 304 l 879 303 z "},"n":{"ha":583,"x_min":1,"x_max":604,"o":"m 599 306 q 560 255 579 281 q 522 204 542 229 q 484 152 503 178 q 446 101 465 126 q 403 59 428 76 q 351 33 378 42 q 333 29 342 31 q 314 28 324 28 q 256 51 281 28 q 228 128 231 75 q 226 161 226 144 q 224 194 225 178 q 222 226 222 210 q 219 260 221 243 l 129 69 l 1 38 q 3 131 3 85 q 6 225 4 178 q 6 319 6 272 q 8 413 7 365 l 154 468 l 163 233 q 181 272 172 253 q 200 311 190 292 q 219 350 210 331 q 236 389 228 369 q 260 422 247 410 q 288 440 274 435 q 302 444 294 443 q 317 446 310 446 q 369 426 346 444 q 394 375 393 407 q 403 248 399 311 q 411 121 407 185 q 465 189 439 154 q 515 260 490 224 q 522 268 518 264 q 528 276 525 272 q 547 303 538 290 q 567 329 557 317 q 575 337 571 335 q 583 338 579 339 q 598 332 592 338 q 603 318 604 326 q 602 312 603 315 q 599 306 601 308 l 599 306 z "},"o":{"ha":465,"x_min":6,"x_max":536,"o":"m 532 324 q 527 316 529 319 q 522 310 525 313 q 444 233 492 268 q 343 199 396 199 q 340 199 342 199 q 336 200 338 199 q 332 200 333 200 q 328 200 331 200 q 305 150 318 174 q 274 104 292 126 q 220 58 250 76 q 160 38 190 40 q 152 36 156 36 q 144 36 149 36 q 88 51 115 36 q 39 100 60 67 q 13 158 21 128 q 6 222 6 189 q 6 237 6 229 q 7 251 7 244 q 32 348 13 301 q 82 428 51 394 q 143 477 110 460 q 213 494 176 494 q 310 446 278 494 q 347 340 342 397 q 347 333 347 336 q 347 325 347 329 q 347 304 347 315 q 346 282 347 293 q 344 260 346 271 q 339 239 342 250 q 342 239 340 239 q 346 239 344 239 q 419 263 383 239 q 478 317 454 288 q 490 331 485 324 q 499 344 494 338 q 506 352 501 350 q 517 354 511 354 q 531 349 525 354 q 536 335 536 343 q 535 330 536 333 q 532 324 535 326 l 532 324 m 281 203 q 290 217 288 208 q 293 235 293 225 q 292 251 293 243 q 288 269 290 260 q 279 289 283 279 q 271 308 275 299 q 261 324 265 317 q 254 335 257 331 q 243 349 250 340 q 226 365 236 357 q 208 381 218 374 q 189 394 199 389 q 172 401 181 399 q 157 404 164 404 q 147 401 151 403 q 138 397 142 400 q 127 383 131 392 q 125 364 124 375 q 126 349 125 357 q 129 333 128 342 q 138 310 133 322 q 147 289 142 299 q 156 274 151 281 q 163 264 160 268 q 174 250 167 258 q 190 233 182 242 q 210 217 200 225 q 232 204 221 210 q 247 198 239 200 q 261 196 254 196 q 272 199 267 197 q 281 203 276 200 l 281 203 z "},"p":{"ha":503,"x_min":4,"x_max":549,"o":"m 539 283 q 478 240 508 261 q 418 197 447 218 q 357 153 388 175 q 296 110 326 132 q 293 108 294 108 q 292 107 292 107 q 247 79 271 92 q 196 61 222 67 q 177 59 186 60 q 160 58 168 58 q 157 -22 158 18 q 154 -101 156 -61 q 150 -182 151 -142 q 147 -262 149 -222 l 4 -293 q 10 74 7 -108 q 17 440 14 257 l 175 504 l 171 393 l 357 493 q 401 414 386 457 q 415 326 415 371 q 411 280 415 304 q 399 232 407 256 q 428 253 414 243 q 458 274 443 264 q 488 295 472 285 q 517 315 503 306 q 519 317 518 317 q 521 318 519 317 q 526 319 524 318 q 529 319 528 319 q 543 313 538 319 q 549 300 549 307 q 547 292 549 296 q 539 283 544 288 l 539 283 m 243 139 q 287 169 274 142 q 300 232 300 197 q 300 242 300 238 q 299 251 300 247 q 274 330 294 294 q 218 365 253 365 q 176 339 186 365 q 165 281 165 313 q 165 261 164 271 q 165 242 165 251 q 165 226 165 233 q 165 214 165 219 q 169 203 167 208 q 175 192 171 197 q 202 154 185 171 q 243 139 219 138 l 243 139 z "},"q":{"ha":507,"x_min":0,"x_max":568,"o":"m 556 297 q 513 275 535 286 q 469 253 492 264 q 427 229 449 240 q 383 207 406 218 q 376 -9 381 99 q 368 -226 372 -117 l 263 -267 l 242 106 q 208 79 226 90 q 172 63 190 68 q 155 58 164 60 q 138 57 146 57 q 71 79 103 57 q 19 144 39 101 q 5 192 10 168 q 0 243 0 217 q 1 257 0 250 q 1 271 1 264 q 26 365 7 319 q 78 443 46 411 q 128 478 101 467 q 181 490 154 490 q 235 476 208 490 q 282 432 263 463 l 394 490 l 385 251 q 462 292 424 272 q 538 332 500 313 q 544 334 540 333 q 549 335 547 335 q 563 328 557 335 q 567 315 568 322 q 565 305 567 310 q 556 297 563 300 l 556 297 m 238 200 l 228 381 q 205 405 218 394 q 175 414 192 415 q 132 378 149 413 q 118 296 115 344 q 122 272 119 286 q 131 243 125 258 q 158 195 140 217 q 200 175 175 174 q 221 183 211 176 q 238 200 231 189 l 238 200 z "},"r":{"ha":457,"x_min":0,"x_max":481,"o":"m 475 319 q 437 269 456 294 q 399 218 418 243 q 360 166 379 192 q 322 115 342 140 q 267 64 301 88 q 193 40 232 40 q 186 40 190 40 q 178 42 182 40 q 124 78 142 49 q 104 142 107 107 q 98 235 101 189 q 90 328 94 282 l 3 281 q 2 336 3 308 q 1 392 1 364 q 1 446 1 418 q 0 501 0 474 q 6 517 0 513 q 21 522 13 522 q 34 517 28 522 q 40 501 40 513 q 40 463 40 482 q 40 424 40 443 l 263 450 q 273 315 268 382 q 283 182 278 249 q 290 167 285 172 q 300 164 294 163 q 310 168 306 164 q 319 178 315 172 q 320 178 319 178 q 322 181 321 179 q 324 183 324 182 q 325 183 325 183 q 355 223 340 203 q 385 264 369 243 q 414 303 399 283 q 443 343 429 324 q 451 351 447 349 q 460 351 456 353 q 474 346 468 351 q 479 332 481 340 q 478 326 479 329 q 475 319 478 322 l 475 319 z "},"s":{"ha":343,"x_min":-11,"x_max":388,"o":"m 381 260 q 297 174 339 217 q 215 88 256 131 q 169 52 194 65 q 117 36 143 39 q 109 35 113 35 q 101 35 106 35 q 44 50 71 35 q 0 100 18 65 l 42 213 q 90 149 65 179 q 151 99 115 119 q 157 118 154 108 q 161 138 160 128 q 163 156 163 146 q 164 175 164 165 q 142 262 163 222 q 75 321 121 301 q 69 313 72 317 q 63 306 67 310 q 62 305 63 306 q 61 303 61 304 q 40 274 50 288 q 22 251 29 260 l -11 272 q 6 294 -3 281 q 26 321 15 307 q 27 322 26 321 q 28 324 28 322 q 32 328 31 325 q 35 332 33 331 q 24 334 29 333 q 13 336 19 335 l 94 517 q 126 506 111 511 q 156 490 142 500 q 227 405 206 458 q 249 293 249 351 q 249 284 249 289 q 249 275 249 279 q 237 206 246 240 q 214 143 228 172 q 248 179 231 161 q 283 215 265 197 q 317 250 300 232 q 351 286 335 268 q 360 292 356 290 q 368 293 364 293 q 382 287 376 293 q 388 274 388 281 q 385 266 386 269 q 381 260 383 263 l 381 260 z "},"t":{"ha":419,"x_min":0,"x_max":482,"o":"m 476 294 q 460 275 468 285 q 443 257 451 265 q 428 238 436 247 q 413 221 421 229 q 361 160 388 190 q 307 104 335 131 q 298 96 303 100 q 289 88 293 92 q 238 51 265 68 q 179 35 210 35 q 169 35 174 35 q 158 38 164 36 q 132 50 144 40 q 110 76 119 60 q 97 115 101 92 q 93 168 92 138 q 94 226 93 197 q 96 282 94 254 q 98 338 97 310 q 99 394 99 367 q 60 394 81 394 q 21 394 40 394 q 6 401 11 394 q 0 415 0 407 q 0 417 0 417 q 0 418 0 418 q 6 428 1 424 q 21 433 11 433 q 60 433 40 433 q 100 433 81 433 q 103 572 101 503 q 107 710 106 642 l 246 783 l 242 433 q 295 433 269 433 q 347 433 321 433 q 364 427 358 433 q 369 413 369 421 q 369 410 369 411 q 368 410 369 410 q 362 399 367 404 q 347 394 357 394 q 322 394 335 394 q 294 394 308 394 q 267 394 281 394 q 242 394 254 394 q 240 263 240 329 q 238 132 239 197 q 241 120 238 124 q 250 117 244 117 q 256 118 253 117 q 263 121 258 119 q 269 124 265 122 q 275 129 272 126 q 278 132 276 131 q 281 135 279 133 q 322 181 301 158 q 364 228 343 204 q 405 274 385 251 q 446 321 425 297 q 454 327 450 325 q 463 328 458 329 q 476 322 471 328 q 482 308 482 317 q 482 305 482 307 q 481 301 482 303 q 479 298 481 300 q 476 294 478 296 l 476 294 z "},"u":{"ha":579,"x_min":3,"x_max":613,"o":"m 607 306 q 569 255 588 281 q 531 204 550 229 q 492 153 511 179 q 454 103 474 128 q 411 60 436 78 q 360 35 386 43 q 341 31 350 32 q 322 29 332 29 q 264 53 289 29 q 236 129 239 76 q 235 153 236 142 q 233 178 235 165 q 231 202 232 190 q 231 226 231 214 q 215 191 225 213 q 192 146 206 169 q 145 80 172 110 q 86 50 118 50 q 75 52 81 50 q 63 56 69 54 q 29 84 40 64 q 14 126 18 104 q 12 143 13 135 q 11 160 11 151 q 8 287 10 224 q 3 414 6 350 l 163 468 l 172 194 q 219 308 200 250 q 254 424 238 365 l 403 458 q 411 290 407 374 q 419 122 415 206 q 479 199 450 160 q 536 276 508 238 q 556 303 546 290 q 575 329 565 317 q 583 337 579 335 q 592 338 588 339 q 606 332 600 338 q 611 318 613 326 q 610 312 611 315 q 607 306 610 308 l 607 306 z "},"v":{"ha":383,"x_min":0,"x_max":403,"o":"m 388 294 q 399 288 396 293 q 403 275 403 282 q 403 273 403 274 q 403 272 403 272 q 397 260 401 265 q 383 256 392 254 q 383 256 383 256 q 381 256 382 256 q 325 267 353 261 q 269 283 297 274 q 232 179 257 229 q 176 82 207 129 q 155 58 167 67 q 131 46 143 49 q 124 44 128 44 q 115 43 119 43 q 75 59 94 43 q 44 101 56 75 q 15 209 22 154 q 4 321 8 264 q 4 324 4 322 q 4 329 4 326 q 2 362 3 346 q 0 394 1 378 l 133 447 l 190 182 q 215 239 204 210 q 233 299 226 268 q 199 338 207 313 q 189 392 192 364 q 190 410 189 399 q 192 435 190 422 q 204 469 196 454 q 229 485 213 485 q 265 458 254 485 q 278 400 275 432 q 279 383 279 392 q 279 365 279 374 q 278 340 279 351 q 276 322 278 329 q 332 306 304 313 q 388 294 360 300 l 388 294 z "},"w":{"ha":643,"x_min":-1,"x_max":676,"o":"m 658 294 q 672 287 668 293 q 676 274 676 281 q 676 271 676 272 q 675 269 675 269 q 669 259 674 264 q 656 256 664 254 q 653 256 654 256 q 651 256 653 256 q 596 267 624 261 q 540 283 568 274 q 518 212 532 246 q 489 143 504 178 q 476 117 482 131 q 465 90 471 104 l 333 56 l 260 294 l 208 88 q 142 59 175 74 q 78 29 110 44 q 38 208 58 118 q -1 386 18 297 l 143 456 l 193 190 l 247 407 l 376 476 l 460 175 q 463 183 461 179 q 467 189 464 186 q 487 241 476 214 q 503 299 497 268 q 470 338 478 313 q 460 392 463 364 q 469 456 458 429 q 499 485 481 483 q 535 458 525 486 q 549 399 546 431 q 550 382 550 390 q 550 365 550 374 q 549 340 550 351 q 547 322 549 329 q 603 306 575 313 q 658 294 631 300 l 658 294 z "},"x":{"ha":403,"x_min":1,"x_max":454,"o":"m 449 278 q 382 190 415 233 q 315 101 349 146 q 274 63 296 75 q 228 50 251 50 q 220 50 224 50 q 213 51 217 50 q 169 71 190 56 q 129 110 147 86 q 117 97 124 104 q 101 81 110 89 q 85 66 94 74 q 68 53 76 58 q 55 47 61 49 q 42 44 49 44 q 24 51 32 44 q 10 74 17 58 q 3 97 6 85 q 1 124 1 110 q 3 149 1 136 q 10 171 6 161 q 25 193 17 185 q 44 201 33 201 q 72 187 63 201 q 85 156 81 172 q 88 138 86 146 q 89 124 89 131 q 94 129 92 126 q 99 135 96 132 q 103 139 100 136 q 107 144 106 142 q 72 239 83 189 q 58 340 61 289 q 56 371 57 356 q 56 401 56 386 l 172 482 q 203 378 188 431 q 240 276 218 326 q 254 316 249 296 q 265 357 260 336 q 253 384 258 365 q 244 424 247 403 q 244 431 244 428 q 244 439 244 435 q 250 475 244 458 q 267 499 256 492 q 275 502 271 501 q 285 503 279 503 q 285 503 285 503 q 288 503 286 503 q 290 503 289 503 q 290 503 290 503 q 312 483 306 499 q 318 444 318 467 q 318 433 318 439 q 317 421 318 426 q 313 395 315 408 q 308 371 311 382 q 303 351 306 360 q 300 336 301 342 q 283 278 293 306 q 263 235 274 251 q 286 197 274 215 q 313 161 299 178 q 338 197 325 179 q 365 232 351 214 q 391 266 378 249 q 417 301 404 283 q 425 309 421 307 q 433 310 429 311 q 448 304 442 310 q 453 290 454 299 q 452 284 453 288 q 449 278 451 281 l 449 278 z "},"y":{"ha":525,"x_min":1,"x_max":594,"o":"m 586 279 q 494 200 540 240 q 401 119 449 160 q 401 90 401 106 q 401 60 401 75 q 395 -3 401 32 q 376 -75 389 -37 q 298 -215 350 -151 q 171 -275 246 -279 q 108 -244 131 -275 q 85 -175 86 -214 q 85 -162 85 -168 q 85 -149 85 -156 q 140 -14 92 -78 q 247 82 188 50 l 253 290 q 235 242 246 272 q 210 181 225 213 q 155 91 186 132 q 85 50 124 50 q 74 52 79 50 q 61 56 68 54 q 42 67 51 58 q 26 88 33 75 q 15 118 19 100 q 10 160 11 136 q 8 223 8 192 q 6 286 7 254 q 3 349 4 318 q 1 413 3 381 l 163 483 l 172 196 q 217 308 199 250 q 253 424 236 365 l 404 467 l 403 172 q 483 241 443 207 q 561 310 522 275 q 565 313 564 311 q 569 314 567 314 q 573 315 571 315 q 576 315 575 315 q 589 310 583 315 q 594 296 594 304 q 592 288 594 292 q 586 279 590 283 l 586 279 m 246 36 q 183 -22 210 11 q 140 -90 157 -56 q 139 -97 140 -94 q 136 -103 138 -100 q 135 -108 136 -106 q 133 -112 133 -110 q 128 -135 131 -122 q 124 -161 125 -149 q 124 -166 124 -164 q 124 -171 124 -168 q 131 -208 124 -190 q 156 -232 138 -225 q 164 -234 160 -233 q 172 -235 168 -235 q 212 -213 196 -233 q 236 -168 228 -193 q 240 -149 239 -158 q 242 -132 242 -140 q 242 -90 242 -111 q 244 -47 243 -68 q 245 -6 244 -26 q 246 36 246 15 l 246 36 z "},"z":{"ha":388,"x_min":1,"x_max":378,"o":"m 378 143 q 378 141 378 142 q 378 140 378 140 q 378 138 378 139 q 378 136 378 138 q 377 119 378 128 q 374 104 376 111 q 338 59 367 74 q 276 42 310 44 q 265 40 271 40 q 254 40 260 40 q 234 42 244 40 q 215 44 224 43 q 171 53 193 49 q 128 61 149 57 q 83 69 106 65 q 39 78 61 74 q 77 162 58 119 q 114 247 96 204 q 152 333 133 290 q 189 417 171 375 q 169 429 182 424 q 144 436 157 435 q 137 438 140 438 q 129 438 133 438 q 109 434 118 438 q 94 424 100 431 q 92 417 93 421 q 90 408 90 414 q 94 395 92 403 q 100 376 96 388 q 103 371 101 374 q 104 365 104 368 q 106 358 106 361 q 106 353 106 356 q 104 338 106 346 q 100 324 103 331 q 77 284 93 301 q 42 267 61 267 q 39 267 40 267 q 38 267 38 267 q 35 267 36 267 q 32 268 33 268 q 12 282 19 271 q 3 306 4 293 q 1 316 1 311 q 1 326 1 321 q 2 341 1 333 q 4 357 3 349 q 45 442 13 403 q 125 481 78 482 q 142 479 133 481 q 160 475 150 478 q 260 438 210 457 q 361 401 310 419 q 297 241 329 321 q 232 81 264 161 q 245 79 239 79 q 257 79 251 79 q 286 82 272 79 q 313 90 300 85 q 306 105 308 97 q 301 121 304 113 q 301 131 301 126 q 300 142 300 136 q 309 192 299 171 q 336 214 319 213 q 362 201 353 214 q 375 171 371 188 q 377 156 376 163 q 378 143 378 149 l 378 143 z "},"{":{"ha":694,"x_min":0,"x_max":0,"o":""},"|":{"ha":694,"x_min":0,"x_max":0,"o":""},"}":{"ha":694,"x_min":0,"x_max":0,"o":""},"~":{"ha":694,"x_min":0,"x_max":0,"o":""},"Ä":{"ha":919,"x_min":0,"x_max":915,"o":"m 914 244 q 906 208 911 229 q 894 164 901 186 q 856 88 881 122 q 793 54 832 54 q 731 83 758 54 q 686 149 704 113 q 673 176 679 163 q 663 201 667 190 l 621 68 q 530 49 578 56 q 433 42 482 42 q 420 42 426 42 q 408 42 414 42 q 166 103 281 47 q 1 279 51 160 q 0 285 0 282 q 0 290 0 288 q 15 379 7 335 q 31 468 22 424 q 47 557 39 513 q 64 646 56 601 q 65 651 64 649 q 68 654 67 653 q 256 809 138 750 q 503 889 374 868 q 574 899 539 896 q 644 901 610 901 q 716 898 681 901 q 783 888 751 894 q 788 887 786 888 q 793 886 790 886 q 798 884 796 885 q 803 883 800 883 q 788 811 796 847 q 774 739 781 775 l 731 726 l 757 686 q 742 609 749 650 q 735 528 736 568 q 735 514 735 521 q 735 500 735 507 q 735 492 735 496 q 735 486 735 489 q 756 340 736 411 q 821 214 775 268 q 824 212 822 213 q 826 211 825 211 q 829 211 828 211 q 832 211 831 211 q 834 211 833 211 q 836 211 835 211 q 856 221 846 213 q 871 239 865 229 q 874 246 872 243 q 875 251 875 249 q 881 263 876 260 q 890 268 885 267 q 892 268 892 268 q 894 268 893 268 q 897 268 896 268 q 897 268 897 268 q 910 262 904 267 q 914 249 915 257 q 914 247 914 247 q 914 244 914 246 l 914 244 m 674 742 l 671 744 q 559 743 621 747 q 432 728 497 739 q 190 633 301 701 q 67 438 78 565 q 138 287 58 342 q 313 208 217 232 q 406 190 361 196 q 486 185 451 185 q 560 188 525 185 q 621 200 594 192 l 642 267 q 622 366 629 314 q 615 471 615 418 q 629 613 615 543 q 674 742 643 682 l 674 742 m 526 965 q 512 933 526 947 q 478 918 497 918 q 445 933 460 918 q 431 965 431 947 q 445 999 431 985 q 478 1014 460 1014 q 512 999 497 1014 q 526 965 526 985 l 526 965 m 646 965 q 631 933 646 947 q 597 918 617 918 q 565 933 579 918 q 551 965 551 947 q 565 999 551 985 q 597 1014 579 1014 q 631 999 617 1014 q 646 965 646 985 l 646 965 z "},"Å":{"ha":919,"x_min":0,"x_max":915,"o":"m 914 244 q 906 208 911 229 q 894 164 901 186 q 856 88 881 122 q 793 54 832 54 q 731 83 758 54 q 686 149 704 113 q 673 176 679 163 q 663 201 667 190 l 621 68 q 530 49 578 56 q 433 42 482 42 q 420 42 426 42 q 408 42 414 42 q 166 103 281 47 q 1 279 51 160 q 0 285 0 282 q 0 290 0 288 q 15 379 7 335 q 31 468 22 424 q 47 557 39 513 q 64 646 56 601 q 65 651 64 649 q 68 654 67 653 q 256 809 138 750 q 503 889 374 868 q 574 899 539 896 q 644 901 610 901 q 716 898 681 901 q 783 888 751 894 q 788 887 786 888 q 793 886 790 886 q 798 884 796 885 q 803 883 800 883 q 788 811 796 847 q 774 739 781 775 l 731 726 l 757 686 q 742 609 749 650 q 735 528 736 568 q 735 514 735 521 q 735 500 735 507 q 735 492 735 496 q 735 486 735 489 q 756 340 736 411 q 821 214 775 268 q 824 212 822 213 q 826 211 825 211 q 829 211 828 211 q 832 211 831 211 q 834 211 833 211 q 836 211 835 211 q 856 221 846 213 q 871 239 865 229 q 874 246 872 243 q 875 251 875 249 q 881 263 876 260 q 890 268 885 267 q 892 268 892 268 q 894 268 893 268 q 897 268 896 268 q 897 268 897 268 q 910 262 904 267 q 914 249 915 257 q 914 247 914 247 q 914 244 914 246 l 914 244 m 674 742 l 671 744 q 559 743 621 747 q 432 728 497 739 q 190 633 301 701 q 67 438 78 565 q 138 287 58 342 q 313 208 217 232 q 406 190 361 196 q 486 185 451 185 q 560 188 525 185 q 621 200 594 192 l 642 267 q 622 366 629 314 q 615 471 615 418 q 629 613 615 543 q 674 742 643 682 l 674 742 m 619 968 q 602 925 619 943 q 560 907 585 907 q 517 925 535 907 q 500 968 500 943 q 517 1010 500 992 q 560 1028 535 1028 q 602 1010 585 1028 q 619 968 619 992 l 619 968 m 581 968 q 574 981 581 975 q 560 988 568 988 q 545 981 551 988 q 539 968 539 975 q 545 954 539 960 q 560 949 551 949 q 574 954 568 949 q 581 968 581 960 l 581 968 z "},"Ç":{"ha":799,"x_min":8,"x_max":790,"o":"m 513 -142 q 460 -190 494 -175 q 389 -208 426 -206 q 364 -210 376 -210 q 340 -211 351 -211 q 317 -210 329 -211 q 292 -207 304 -208 q 252 -196 272 -203 q 214 -178 232 -189 q 208 -174 211 -176 q 204 -171 206 -172 q 202 -167 203 -168 q 201 -162 201 -165 q 203 -156 201 -160 q 206 -150 204 -153 q 212 -142 208 -144 q 219 -139 215 -139 q 226 -140 222 -139 q 232 -143 229 -142 q 276 -160 250 -153 q 332 -169 303 -168 q 340 -171 336 -171 q 349 -171 344 -171 q 400 -162 376 -171 q 436 -131 424 -154 q 443 -115 440 -124 q 446 -96 446 -106 q 442 -78 446 -86 q 428 -62 438 -69 q 404 -53 417 -56 q 379 -50 392 -50 q 359 -51 369 -50 q 339 -53 349 -51 q 363 10 350 -22 q 388 74 375 42 q 393 83 390 79 q 403 88 396 88 q 408 87 406 88 q 413 85 410 86 q 424 78 421 82 q 426 69 426 74 q 426 67 426 68 q 425 65 426 65 q 424 63 425 64 q 424 60 424 61 l 397 -11 q 486 -35 449 -11 q 524 -100 524 -60 q 520 -120 522 -110 q 513 -140 518 -131 l 513 -142 m 790 215 l 776 122 q 628 65 710 86 q 460 42 546 43 q 451 42 456 42 q 443 42 447 42 q 204 92 317 42 q 36 256 92 142 q 15 314 22 283 q 8 375 8 344 q 10 397 8 386 q 13 419 11 408 q 88 635 31 538 q 242 801 144 732 q 347 860 290 836 q 464 883 404 883 q 469 883 467 883 q 476 883 472 883 q 482 883 479 883 q 488 882 485 882 q 651 785 597 871 q 706 597 706 699 q 706 595 706 596 q 706 593 706 594 q 704 556 706 575 q 699 518 703 538 q 677 444 690 481 q 649 371 664 407 q 643 376 646 374 q 639 381 640 378 q 633 385 636 382 q 628 389 631 388 q 585 447 597 417 q 572 508 572 478 q 580 568 572 538 q 596 628 588 599 q 604 655 600 642 q 611 682 608 668 q 609 684 610 683 q 607 686 608 685 q 565 715 589 701 q 515 739 542 729 q 485 748 500 744 q 457 751 471 751 q 349 731 400 754 q 251 676 297 708 q 230 661 240 669 q 208 644 219 653 q 93 520 144 593 q 49 364 42 447 q 56 316 51 339 q 71 274 61 293 q 151 199 96 224 q 274 163 206 174 q 303 159 289 161 q 333 157 318 157 q 363 155 347 156 q 392 154 378 154 q 420 155 406 154 q 450 157 435 156 q 622 178 536 161 q 790 215 708 194 l 790 215 z "},"É":{"ha":881,"x_min":10,"x_max":875,"o":"m 875 278 q 864 255 869 267 q 853 232 858 243 q 847 220 850 226 q 842 208 844 214 q 824 174 833 192 q 807 140 815 157 q 770 111 800 125 q 707 85 740 97 q 653 69 679 76 q 615 60 628 63 q 529 47 581 53 q 421 42 478 42 q 381 42 401 42 q 342 44 361 43 q 113 104 217 56 q 10 268 10 153 q 10 276 10 272 q 10 282 10 279 q 10 288 10 285 q 11 296 11 292 q 102 447 24 396 q 272 519 181 499 q 333 531 303 526 q 392 538 364 535 q 274 594 328 558 q 204 708 219 629 q 202 723 203 715 q 201 738 201 731 q 254 856 201 806 q 371 921 307 906 q 376 922 374 921 q 379 922 378 922 q 390 924 385 924 q 400 925 394 925 q 409 926 404 926 q 419 926 414 926 q 431 926 425 926 q 444 925 438 925 q 546 892 496 918 q 635 835 596 867 q 635 838 635 836 q 636 842 636 840 q 636 845 636 843 q 636 849 636 847 q 635 860 636 854 q 633 871 635 865 q 633 873 633 872 q 633 875 633 874 q 631 884 632 879 q 631 893 631 889 q 631 896 631 894 q 631 899 631 897 q 637 912 631 907 q 650 917 643 917 q 652 917 651 917 q 654 915 653 917 q 664 910 660 914 q 669 897 668 906 q 672 874 671 885 q 675 854 674 864 q 675 851 675 853 q 675 847 675 849 q 673 827 675 838 q 665 804 671 817 q 716 726 700 767 q 732 636 732 685 q 732 621 732 629 q 731 604 732 613 q 727 586 729 596 q 722 565 725 576 q 698 522 714 542 q 660 501 682 501 q 648 503 654 501 q 635 508 642 506 q 594 553 604 524 q 583 617 583 582 q 588 664 583 640 q 596 708 592 688 q 597 715 596 711 q 599 721 597 718 q 516 772 563 750 q 422 803 469 793 q 378 809 400 807 q 335 810 356 811 q 268 792 296 807 q 240 738 240 776 q 241 727 240 732 q 243 715 242 722 q 308 618 256 650 q 424 567 361 586 q 443 560 433 564 q 463 554 453 557 q 490 546 476 550 q 515 536 503 542 l 538 408 q 497 413 517 411 q 457 417 476 414 q 417 419 438 418 q 376 419 397 419 q 322 417 350 419 q 265 410 293 415 q 224 401 247 407 q 178 386 201 394 q 92 342 131 369 q 54 271 54 314 q 54 268 54 269 q 56 265 54 267 q 56 263 56 264 q 56 260 56 261 q 80 223 60 236 q 122 203 100 210 q 144 197 133 200 q 163 193 154 194 q 281 173 222 179 q 399 167 340 167 q 642 195 522 167 q 875 278 761 224 l 875 278 m 663 543 q 667 556 665 550 q 669 568 669 561 q 672 580 671 574 q 672 592 672 586 q 661 642 672 618 q 631 689 650 667 q 630 683 631 686 q 628 676 629 679 q 625 649 626 664 q 624 617 624 633 q 631 565 624 589 q 657 542 638 542 q 658 542 657 542 q 660 543 658 542 q 662 543 661 543 q 663 543 663 543 l 663 543 m 664 1019 q 548 986 606 1003 q 433 953 490 969 l 419 986 q 470 1017 444 1001 q 522 1047 496 1032 q 574 1078 549 1063 q 625 1108 600 1093 q 640 1115 632 1113 q 653 1117 647 1117 q 686 1100 674 1117 q 699 1064 699 1083 q 691 1038 699 1050 q 664 1019 683 1025 l 664 1019 z "},"Ñ":{"ha":896,"x_min":4,"x_max":889,"o":"m 889 789 l 838 646 q 815 660 825 654 q 797 667 806 667 q 790 665 793 667 q 783 661 786 664 q 777 654 781 658 q 769 643 774 650 q 762 626 765 635 q 756 607 758 617 q 755 598 756 603 q 754 589 754 593 q 751 476 753 532 q 749 363 750 419 q 746 251 747 307 q 743 138 744 194 l 767 74 l 669 -1 l 383 635 q 385 619 385 626 q 386 604 386 611 q 403 449 396 526 q 410 292 410 371 q 395 114 410 203 q 343 -60 381 25 q 296 -131 322 -108 q 239 -153 269 -153 q 207 -146 224 -153 q 174 -125 190 -139 q 151 -105 163 -117 q 129 -78 140 -93 q 69 19 96 -33 q 25 125 43 71 q 14 158 19 142 q 4 192 8 175 l 97 288 q 106 265 101 276 q 114 242 110 253 q 189 81 146 158 q 304 -50 232 3 q 358 120 343 32 q 372 299 372 208 q 369 400 372 349 q 360 503 365 451 q 354 553 357 528 q 349 606 351 579 q 335 717 342 661 q 326 826 329 772 l 426 924 q 433 918 429 921 q 439 913 436 915 q 462 889 451 901 q 479 858 472 876 q 537 703 508 781 q 593 549 565 625 q 649 393 621 471 q 707 238 678 315 q 712 435 710 336 q 717 633 714 535 q 717 635 717 635 q 717 638 717 636 q 742 760 719 704 q 818 814 765 815 q 851 808 833 814 q 889 789 868 801 l 889 789 m 833 999 q 824 963 832 981 q 803 932 817 944 q 764 907 788 915 q 715 899 740 899 q 675 905 694 899 q 640 924 656 911 q 630 933 636 928 q 618 942 624 938 q 604 953 611 947 q 590 963 597 958 q 581 966 586 964 q 572 968 576 968 q 570 968 571 968 q 567 968 569 968 q 543 956 553 968 q 528 931 533 944 q 525 922 526 926 q 524 913 524 917 q 521 899 524 906 q 503 894 518 893 q 488 899 492 894 q 485 910 483 904 q 485 910 485 910 q 485 913 485 911 q 485 915 485 914 q 485 915 485 915 q 485 919 485 917 q 485 922 485 921 q 485 923 485 922 q 485 925 485 924 q 485 930 485 928 q 485 935 485 932 q 515 1003 486 975 q 583 1031 543 1031 q 631 1020 611 1031 q 668 994 650 1010 q 676 988 672 992 q 685 981 681 985 q 708 966 696 971 q 733 961 721 961 q 776 978 758 961 q 794 1021 793 996 q 797 1034 794 1028 q 814 1039 800 1040 q 829 1033 825 1038 q 833 1021 833 1029 q 833 1016 833 1019 q 832 1010 833 1013 q 833 1005 833 1008 q 833 999 833 1001 l 833 999 z "},"Ö":{"ha":1015,"x_min":0,"x_max":1003,"o":"m 997 594 q 1001 559 1000 576 q 1003 525 1003 542 q 872 211 1003 347 q 568 46 742 75 q 528 41 549 43 q 486 39 507 39 q 450 40 468 39 q 414 44 432 42 q 128 171 257 65 q 10 447 0 276 q 135 672 21 607 q 383 744 249 738 q 436 745 410 746 q 488 743 463 744 q 519 739 503 742 q 553 732 536 736 q 613 712 583 724 q 668 685 643 700 q 674 680 672 683 q 678 674 676 676 q 678 671 678 672 q 678 668 678 669 q 672 653 678 660 q 658 649 667 647 q 656 649 657 649 q 653 649 654 649 q 650 649 651 649 q 647 651 649 650 q 590 679 621 667 q 526 699 558 692 q 506 701 517 700 q 485 704 496 703 q 341 700 413 710 q 207 647 269 690 q 144 578 164 617 q 124 499 124 539 q 124 486 124 493 q 125 474 125 479 q 163 376 132 424 q 236 290 193 328 q 398 200 308 229 q 582 168 488 171 q 597 168 589 168 q 613 168 604 168 q 790 208 708 169 q 885 356 872 246 q 888 383 888 369 q 888 408 888 396 q 847 574 888 499 q 729 703 807 649 q 597 764 665 747 q 458 781 529 781 q 360 774 410 781 q 258 758 310 768 l 240 790 q 378 883 297 853 q 549 911 460 913 q 563 911 556 911 q 576 910 569 911 q 847 821 722 903 q 997 594 972 739 l 997 594 m 513 979 q 498 947 513 961 q 464 932 483 932 q 431 947 446 932 q 417 979 417 961 q 431 1013 417 999 q 464 1028 446 1028 q 498 1013 483 1028 q 513 979 513 999 l 513 979 m 632 979 q 617 947 632 961 q 583 932 603 932 q 551 947 565 932 q 538 979 538 961 q 551 1013 538 999 q 583 1028 565 1028 q 617 1013 603 1028 q 632 979 632 999 l 632 979 z "},"Ü":{"ha":961,"x_min":7,"x_max":960,"o":"m 954 224 q 941 208 947 217 q 929 193 935 200 q 918 178 924 186 q 907 164 913 171 q 828 75 869 115 q 732 35 788 35 q 688 42 711 35 q 640 65 665 49 q 565 145 592 97 q 526 247 538 193 q 515 228 521 238 q 504 207 510 218 q 410 92 467 144 q 281 40 353 40 q 247 44 264 40 q 213 54 231 47 q 101 164 138 85 q 60 332 65 243 q 58 352 58 342 q 58 372 58 363 q 67 470 58 424 q 89 553 75 517 q 108 590 96 567 q 136 643 119 614 q 89 681 111 658 q 46 726 67 703 q 33 742 39 735 q 21 756 26 749 q 13 763 17 760 q 7 771 10 767 q 78 809 43 790 q 149 846 114 828 q 174 797 161 821 q 204 750 188 774 q 224 777 213 761 q 250 810 236 793 q 300 858 272 835 q 357 889 328 881 q 369 891 363 890 q 381 892 375 892 q 388 892 385 892 q 396 890 392 892 q 403 888 400 889 q 411 885 407 888 q 438 860 431 875 q 444 828 444 846 q 444 819 444 824 q 443 813 444 815 q 438 788 442 800 q 428 767 433 776 q 342 660 397 706 q 213 619 288 615 q 201 546 206 585 q 196 467 196 507 q 206 360 196 413 q 238 261 215 307 q 279 204 254 228 q 342 174 304 181 q 356 172 349 172 q 368 171 363 171 q 450 208 417 171 q 504 290 483 246 q 512 306 508 299 q 518 321 515 314 q 526 492 513 407 q 556 661 539 576 q 556 664 556 663 q 556 667 556 665 q 564 710 560 689 q 572 753 568 732 l 749 853 q 737 788 743 821 q 724 722 731 754 q 707 638 715 681 q 693 554 699 596 q 684 478 688 515 q 681 403 681 440 q 682 358 681 381 q 686 314 683 336 q 686 312 686 313 q 686 310 686 311 q 720 207 694 254 q 796 161 746 160 q 822 165 808 161 q 851 175 836 168 q 878 192 868 182 q 897 213 888 201 q 909 230 903 221 q 924 249 915 239 q 932 255 928 253 q 940 257 936 257 q 954 250 949 256 q 960 236 960 244 q 958 230 960 233 q 954 224 957 226 l 954 224 m 358 814 q 350 816 354 815 q 342 817 346 817 q 300 798 319 817 q 265 757 281 779 q 252 732 258 744 q 242 711 246 719 q 270 695 257 700 q 294 690 283 690 q 338 710 319 692 q 364 753 356 729 q 369 770 368 761 q 371 786 371 779 q 368 805 371 797 q 358 814 365 813 l 358 814 m 557 890 q 542 858 557 872 q 508 843 528 843 q 476 858 490 843 q 461 890 461 872 q 476 924 461 910 q 508 939 490 939 q 542 924 528 939 q 557 890 557 910 l 557 890 m 676 890 q 662 858 676 872 q 628 843 647 843 q 596 858 610 843 q 582 890 582 872 q 596 924 582 910 q 628 939 610 939 q 662 924 647 939 q 676 890 676 910 l 676 890 z "},"á":{"ha":513,"x_min":4,"x_max":557,"o":"m 551 264 q 470 174 511 219 q 389 83 429 129 q 350 49 371 63 q 301 36 329 36 q 237 60 264 36 q 194 115 210 83 q 192 109 193 113 q 188 103 190 106 q 150 56 174 78 q 97 36 126 35 q 97 36 97 36 q 94 36 96 36 q 92 36 93 36 q 92 36 92 36 q 28 87 53 40 q 4 201 4 133 q 5 223 4 213 q 7 243 6 233 q 13 283 8 260 q 26 329 18 306 q 70 409 43 372 q 139 446 97 446 q 144 446 142 446 q 147 446 146 446 q 159 444 154 446 q 169 439 164 442 q 175 435 172 438 q 181 432 178 433 l 181 447 l 358 447 l 358 107 q 359 108 358 107 q 360 108 360 108 q 360 109 360 108 q 360 110 360 110 q 401 155 381 132 q 442 200 421 178 q 481 245 461 222 q 522 290 501 268 q 529 297 525 294 q 538 297 533 299 q 551 292 546 297 q 557 278 557 286 q 557 274 557 276 q 556 271 557 272 q 554 267 556 269 q 551 264 553 265 l 551 264 m 182 193 l 182 368 q 179 374 181 371 q 176 381 178 376 q 166 394 172 388 q 151 401 160 401 q 119 374 129 401 q 110 311 110 347 q 110 303 110 307 q 111 294 110 299 q 128 217 114 253 q 165 183 142 182 q 168 183 167 183 q 171 185 169 183 q 177 188 174 186 q 182 193 181 190 l 182 193 m 392 544 q 276 511 333 528 q 161 478 218 494 l 147 511 q 198 542 172 526 q 250 572 224 557 q 302 603 276 588 q 353 633 328 618 q 367 640 360 638 q 381 642 375 642 q 414 625 401 642 q 426 589 426 608 q 419 563 426 575 q 392 544 411 550 l 392 544 z "},"à":{"ha":513,"x_min":4,"x_max":557,"o":"m 551 264 q 470 174 511 219 q 389 83 429 129 q 350 49 371 63 q 301 36 329 36 q 237 60 264 36 q 194 115 210 83 q 192 109 193 113 q 188 103 190 106 q 150 56 174 78 q 97 36 126 35 q 97 36 97 36 q 94 36 96 36 q 92 36 93 36 q 92 36 92 36 q 28 87 53 40 q 4 201 4 133 q 5 223 4 213 q 7 243 6 233 q 13 283 8 260 q 26 329 18 306 q 70 409 43 372 q 139 446 97 446 q 144 446 142 446 q 147 446 146 446 q 159 444 154 446 q 169 439 164 442 q 175 435 172 438 q 181 432 178 433 l 181 447 l 358 447 l 358 107 q 359 108 358 107 q 360 108 360 108 q 360 109 360 108 q 360 110 360 110 q 401 155 381 132 q 442 200 421 178 q 481 245 461 222 q 522 290 501 268 q 529 297 525 294 q 538 297 533 299 q 551 292 546 297 q 557 278 557 286 q 557 274 557 276 q 556 271 557 272 q 554 267 556 269 q 551 264 553 265 l 551 264 m 182 193 l 182 368 q 179 374 181 371 q 176 381 178 376 q 166 394 172 388 q 151 401 160 401 q 119 374 129 401 q 110 311 110 347 q 110 303 110 307 q 111 294 110 299 q 128 217 114 253 q 165 183 142 182 q 168 183 167 183 q 171 185 169 183 q 177 188 174 186 q 182 193 181 190 l 182 193 m 314 506 l 300 472 q 185 506 243 489 q 69 539 128 522 q 43 558 51 544 q 35 585 35 571 q 48 620 35 604 q 82 636 61 636 q 95 634 89 636 q 108 628 101 632 q 159 597 133 613 q 211 567 185 582 q 263 536 238 551 q 314 506 289 521 l 314 506 z "},"â":{"ha":513,"x_min":4,"x_max":557,"o":"m 551 264 q 470 174 511 219 q 389 83 429 129 q 350 49 371 63 q 301 36 329 36 q 237 60 264 36 q 194 115 210 83 q 192 109 193 113 q 188 103 190 106 q 150 56 174 78 q 97 36 126 35 q 97 36 97 36 q 94 36 96 36 q 92 36 93 36 q 92 36 92 36 q 28 87 53 40 q 4 201 4 133 q 5 223 4 213 q 7 243 6 233 q 13 283 8 260 q 26 329 18 306 q 70 409 43 372 q 139 446 97 446 q 144 446 142 446 q 147 446 146 446 q 159 444 154 446 q 169 439 164 442 q 175 435 172 438 q 181 432 178 433 l 181 447 l 358 447 l 358 107 q 359 108 358 107 q 360 108 360 108 q 360 109 360 108 q 360 110 360 110 q 401 155 381 132 q 442 200 421 178 q 481 245 461 222 q 522 290 501 268 q 529 297 525 294 q 538 297 533 299 q 551 292 546 297 q 557 278 557 286 q 557 274 557 276 q 556 271 557 272 q 554 267 556 269 q 551 264 553 265 l 551 264 m 182 193 l 182 368 q 179 374 181 371 q 176 381 178 376 q 166 394 172 388 q 151 401 160 401 q 119 374 129 401 q 110 311 110 347 q 110 303 110 307 q 111 294 110 299 q 128 217 114 253 q 165 183 142 182 q 168 183 167 183 q 171 185 169 183 q 177 188 174 186 q 182 193 181 190 l 182 193 m 356 471 q 352 467 354 469 q 349 465 350 465 q 344 463 346 464 q 340 463 343 463 q 335 465 339 463 q 328 469 332 467 q 303 488 315 479 q 279 506 292 497 q 255 522 267 514 q 231 539 243 531 l 217 539 q 191 522 204 531 q 164 504 178 513 q 137 487 150 496 q 110 469 124 478 q 103 465 106 467 q 97 464 100 464 q 91 466 94 464 q 83 474 88 468 q 79 480 81 476 q 78 486 78 483 q 80 494 78 490 q 86 500 82 497 q 116 530 101 515 q 144 560 131 544 q 174 590 160 575 q 203 619 189 604 l 244 619 q 272 589 258 604 q 300 560 286 574 q 326 529 313 544 q 354 499 340 514 q 360 491 358 494 q 363 485 363 488 q 360 478 363 482 q 356 471 358 475 l 356 471 z "},"ä":{"ha":513,"x_min":4,"x_max":557,"o":"m 551 264 q 470 174 511 219 q 389 83 429 129 q 350 49 371 63 q 301 36 329 36 q 237 60 264 36 q 194 115 210 83 q 192 109 193 113 q 188 103 190 106 q 150 56 174 78 q 97 36 126 35 q 97 36 97 36 q 94 36 96 36 q 92 36 93 36 q 92 36 92 36 q 28 87 53 40 q 4 201 4 133 q 5 223 4 213 q 7 243 6 233 q 13 283 8 260 q 26 329 18 306 q 70 409 43 372 q 139 446 97 446 q 144 446 142 446 q 147 446 146 446 q 159 444 154 446 q 169 439 164 442 q 175 435 172 438 q 181 432 178 433 l 181 447 l 358 447 l 358 107 q 359 108 358 107 q 360 108 360 108 q 360 109 360 108 q 360 110 360 110 q 401 155 381 132 q 442 200 421 178 q 481 245 461 222 q 522 290 501 268 q 529 297 525 294 q 538 297 533 299 q 551 292 546 297 q 557 278 557 286 q 557 274 557 276 q 556 271 557 272 q 554 267 556 269 q 551 264 553 265 l 551 264 m 182 193 l 182 368 q 179 374 181 371 q 176 381 178 376 q 166 394 172 388 q 151 401 160 401 q 119 374 129 401 q 110 311 110 347 q 110 303 110 307 q 111 294 110 299 q 128 217 114 253 q 165 183 142 182 q 168 183 167 183 q 171 185 169 183 q 177 188 174 186 q 182 193 181 190 l 182 193 m 221 518 q 206 485 221 500 q 172 471 192 471 q 140 485 154 471 q 125 518 125 500 q 140 552 125 538 q 172 567 154 567 q 206 552 192 567 q 221 518 221 538 l 221 518 m 340 518 q 326 485 340 500 q 292 471 311 471 q 260 485 274 471 q 246 518 246 500 q 260 552 246 538 q 292 567 274 567 q 326 552 311 567 q 340 518 340 538 l 340 518 z "},"ã":{"ha":513,"x_min":4,"x_max":557,"o":"m 551 264 q 470 174 511 219 q 389 83 429 129 q 350 49 371 63 q 301 36 329 36 q 237 60 264 36 q 194 115 210 83 q 192 109 193 113 q 188 103 190 106 q 150 56 174 78 q 97 36 126 35 q 97 36 97 36 q 94 36 96 36 q 92 36 93 36 q 92 36 92 36 q 28 87 53 40 q 4 201 4 133 q 5 223 4 213 q 7 243 6 233 q 13 283 8 260 q 26 329 18 306 q 70 409 43 372 q 139 446 97 446 q 144 446 142 446 q 147 446 146 446 q 159 444 154 446 q 169 439 164 442 q 175 435 172 438 q 181 432 178 433 l 181 447 l 358 447 l 358 107 q 359 108 358 107 q 360 108 360 108 q 360 109 360 108 q 360 110 360 110 q 401 155 381 132 q 442 200 421 178 q 481 245 461 222 q 522 290 501 268 q 529 297 525 294 q 538 297 533 299 q 551 292 546 297 q 557 278 557 286 q 557 274 557 276 q 556 271 557 272 q 554 267 556 269 q 551 264 553 265 l 551 264 m 182 193 l 182 368 q 179 374 181 371 q 176 381 178 376 q 166 394 172 388 q 151 401 160 401 q 119 374 129 401 q 110 311 110 347 q 110 303 110 307 q 111 294 110 299 q 128 217 114 253 q 165 183 142 182 q 168 183 167 183 q 171 185 169 183 q 177 188 174 186 q 182 193 181 190 l 182 193 m 389 576 q 380 540 388 558 q 358 510 372 522 q 319 485 343 493 q 271 476 296 476 q 231 483 250 476 q 196 501 211 489 q 185 510 192 506 q 174 519 179 515 q 160 531 167 525 q 146 540 153 536 q 137 544 142 542 q 128 546 132 546 q 126 546 126 546 q 122 546 125 546 q 99 534 108 546 q 83 508 89 522 q 81 499 82 504 q 79 490 79 494 q 76 477 79 483 q 58 472 74 471 q 43 477 47 472 q 40 488 39 482 q 40 488 40 488 q 40 490 40 489 q 40 492 40 492 q 40 493 40 493 q 40 497 40 494 q 40 500 40 499 q 40 501 40 500 q 40 503 40 501 q 40 508 40 506 q 40 513 40 510 q 70 581 42 553 q 139 608 99 608 q 186 598 167 608 q 224 572 206 588 q 232 566 228 569 q 240 558 236 563 q 264 544 251 549 q 289 539 276 539 q 331 556 314 539 q 350 599 349 574 q 353 612 350 606 q 369 617 356 618 q 385 611 381 615 q 389 599 389 607 q 389 594 389 597 q 388 588 389 590 q 389 583 389 586 q 389 576 389 579 l 389 576 z "},"å":{"ha":513,"x_min":4,"x_max":557,"o":"m 551 264 q 470 174 511 219 q 389 83 429 129 q 350 49 371 63 q 301 36 329 36 q 237 60 264 36 q 194 115 210 83 q 192 109 193 113 q 188 103 190 106 q 150 56 174 78 q 97 36 126 35 q 97 36 97 36 q 94 36 96 36 q 92 36 93 36 q 92 36 92 36 q 28 87 53 40 q 4 201 4 133 q 5 223 4 213 q 7 243 6 233 q 13 283 8 260 q 26 329 18 306 q 70 409 43 372 q 139 446 97 446 q 144 446 142 446 q 147 446 146 446 q 159 444 154 446 q 169 439 164 442 q 175 435 172 438 q 181 432 178 433 l 181 447 l 358 447 l 358 107 q 359 108 358 107 q 360 108 360 108 q 360 109 360 108 q 360 110 360 110 q 401 155 381 132 q 442 200 421 178 q 481 245 461 222 q 522 290 501 268 q 529 297 525 294 q 538 297 533 299 q 551 292 546 297 q 557 278 557 286 q 557 274 557 276 q 556 271 557 272 q 554 267 556 269 q 551 264 553 265 l 551 264 m 182 193 l 182 368 q 179 374 181 371 q 176 381 178 376 q 166 394 172 388 q 151 401 160 401 q 119 374 129 401 q 110 311 110 347 q 110 303 110 307 q 111 294 110 299 q 128 217 114 253 q 165 183 142 182 q 168 183 167 183 q 171 185 169 183 q 177 188 174 186 q 182 193 181 190 l 182 193 m 293 532 q 276 489 293 507 q 233 471 258 471 q 191 489 208 471 q 174 532 174 507 q 191 574 174 556 q 233 592 208 592 q 276 574 258 592 q 293 532 293 556 l 293 532 m 254 532 q 248 545 254 539 q 233 551 242 551 q 219 545 225 551 q 213 532 213 539 q 219 518 213 524 q 233 513 225 513 q 248 518 242 513 q 254 532 254 524 l 254 532 z "},"ç":{"ha":401,"x_min":-14,"x_max":442,"o":"m 258 -118 q 214 -160 243 -147 q 153 -176 185 -174 q 130 -178 142 -178 q 107 -179 118 -179 q 90 -178 99 -179 q 75 -176 82 -178 q 34 -167 54 -174 q -3 -150 14 -161 q -11 -144 -8 -147 q -14 -135 -14 -140 q -13 -131 -14 -133 q -11 -125 -12 -128 q -5 -117 -8 -119 q 0 -115 -1 -115 q 6 -117 3 -115 q 11 -119 8 -118 q 49 -135 26 -128 q 96 -143 72 -142 q 106 -144 101 -144 q 114 -144 110 -144 q 159 -136 138 -144 q 192 -108 181 -128 q 197 -94 194 -101 q 199 -78 199 -86 q 195 -62 199 -69 q 183 -49 192 -54 q 170 -42 178 -44 q 156 -39 163 -39 q 149 -37 153 -37 q 142 -37 146 -37 q 123 -38 132 -37 q 106 -40 114 -39 q 127 15 117 -12 q 149 71 138 43 q 149 73 149 72 q 150 74 149 74 q 153 81 150 78 q 161 83 156 83 q 166 83 164 83 q 171 81 168 82 q 181 74 178 78 q 183 68 183 71 q 183 63 183 65 q 181 58 182 61 l 157 -3 q 235 -24 201 -3 q 268 -82 268 -46 q 266 -98 268 -89 q 258 -117 264 -107 l 258 -118 m 436 283 q 378 209 408 246 q 314 139 347 172 q 299 124 307 132 q 282 108 292 117 q 217 60 253 82 q 146 36 182 38 q 140 36 143 36 q 135 36 138 36 q 35 110 71 42 q 6 276 0 179 q 11 317 7 296 q 22 360 15 338 q 83 467 42 418 q 185 515 124 515 q 235 502 214 515 q 276 468 257 489 l 238 350 q 233 356 235 353 q 228 363 231 358 q 189 405 210 385 q 140 435 168 425 q 124 391 131 414 q 118 344 118 368 q 131 276 118 310 q 168 218 143 243 q 208 191 186 200 q 251 182 229 182 q 292 190 272 182 q 331 215 313 199 q 341 226 336 221 q 351 236 346 231 q 383 275 369 256 q 406 307 396 294 q 410 312 408 310 q 415 314 413 314 q 419 315 417 315 q 424 315 422 315 q 436 310 431 315 q 442 296 442 304 q 440 290 442 293 q 436 283 439 286 l 436 283 z "},"é":{"ha":390,"x_min":1,"x_max":464,"o":"m 463 328 q 460 310 461 319 q 457 293 458 301 q 349 117 432 197 q 165 36 267 36 q 161 36 164 36 q 156 38 158 36 q 151 38 154 38 q 146 38 149 38 q 42 101 82 43 q 3 243 1 158 q 3 252 3 247 q 3 261 3 257 q 3 270 3 265 q 4 279 4 275 q 26 367 8 326 q 69 439 44 408 q 75 445 72 442 q 81 451 78 449 q 135 499 104 478 q 200 519 165 519 q 208 519 204 519 q 217 518 213 519 q 271 481 253 510 q 293 421 289 453 q 294 409 293 415 q 294 397 294 403 q 293 372 294 385 q 289 344 292 358 q 253 260 279 300 q 189 197 228 219 q 215 183 201 189 q 242 175 228 178 q 255 173 249 174 q 268 172 261 172 q 322 185 296 174 q 371 218 349 196 q 407 268 393 239 q 424 332 421 297 q 431 347 425 342 q 444 351 438 351 q 447 351 446 351 q 449 350 449 350 q 459 344 454 349 q 463 332 464 340 q 463 330 463 331 q 463 328 463 329 l 463 328 m 208 381 q 208 392 208 385 q 206 406 207 399 q 194 428 201 418 q 175 439 188 439 q 136 420 149 439 q 119 378 124 401 q 117 364 118 371 q 115 351 115 357 q 115 348 115 350 q 115 343 115 346 q 114 340 114 342 q 114 335 114 338 q 124 283 115 308 q 146 238 132 258 q 185 290 169 260 q 206 353 201 321 q 208 367 207 360 q 208 381 208 374 l 208 381 m 350 600 q 234 567 292 583 q 119 533 176 550 l 106 567 q 156 597 131 582 q 208 628 182 613 q 260 658 235 643 q 311 689 286 674 q 326 695 318 693 q 339 697 333 697 q 372 681 360 697 q 385 644 385 664 q 377 618 385 631 q 350 600 369 606 l 350 600 z "},"è":{"ha":390,"x_min":1,"x_max":464,"o":"m 463 328 q 460 310 461 319 q 457 293 458 301 q 349 117 432 197 q 165 36 267 36 q 161 36 164 36 q 156 38 158 36 q 151 38 154 38 q 146 38 149 38 q 42 101 82 43 q 3 243 1 158 q 3 252 3 247 q 3 261 3 257 q 3 270 3 265 q 4 279 4 275 q 26 367 8 326 q 69 439 44 408 q 75 445 72 442 q 81 451 78 449 q 135 499 104 478 q 200 519 165 519 q 208 519 204 519 q 217 518 213 519 q 271 481 253 510 q 293 421 289 453 q 294 409 293 415 q 294 397 294 403 q 293 372 294 385 q 289 344 292 358 q 253 260 279 300 q 189 197 228 219 q 215 183 201 189 q 242 175 228 178 q 255 173 249 174 q 268 172 261 172 q 322 185 296 174 q 371 218 349 196 q 407 268 393 239 q 424 332 421 297 q 431 347 425 342 q 444 351 438 351 q 447 351 446 351 q 449 350 449 350 q 459 344 454 349 q 463 332 464 340 q 463 330 463 331 q 463 328 463 329 l 463 328 m 208 381 q 208 392 208 385 q 206 406 207 399 q 194 428 201 418 q 175 439 188 439 q 136 420 149 439 q 119 378 124 401 q 117 364 118 371 q 115 351 115 357 q 115 348 115 350 q 115 343 115 346 q 114 340 114 342 q 114 335 114 338 q 124 283 115 308 q 146 238 132 258 q 185 290 169 260 q 206 353 201 321 q 208 367 207 360 q 208 381 208 374 l 208 381 m 294 558 l 281 525 q 166 558 224 542 q 50 592 108 575 q 24 610 32 597 q 15 638 15 624 q 28 673 15 657 q 63 689 42 689 q 76 687 69 689 q 89 681 82 685 q 140 650 114 665 q 192 619 165 635 q 244 589 218 604 q 294 558 269 574 l 294 558 z "},"ê":{"ha":390,"x_min":1,"x_max":464,"o":"m 463 328 q 460 310 461 319 q 457 293 458 301 q 349 117 432 197 q 165 36 267 36 q 161 36 164 36 q 156 38 158 36 q 151 38 154 38 q 146 38 149 38 q 42 101 82 43 q 3 243 1 158 q 3 252 3 247 q 3 261 3 257 q 3 270 3 265 q 4 279 4 275 q 26 367 8 326 q 69 439 44 408 q 75 445 72 442 q 81 451 78 449 q 135 499 104 478 q 200 519 165 519 q 208 519 204 519 q 217 518 213 519 q 271 481 253 510 q 293 421 289 453 q 294 409 293 415 q 294 397 294 403 q 293 372 294 385 q 289 344 292 358 q 253 260 279 300 q 189 197 228 219 q 215 183 201 189 q 242 175 228 178 q 255 173 249 174 q 268 172 261 172 q 322 185 296 174 q 371 218 349 196 q 407 268 393 239 q 424 332 421 297 q 431 347 425 342 q 444 351 438 351 q 447 351 446 351 q 449 350 449 350 q 459 344 454 349 q 463 332 464 340 q 463 330 463 331 q 463 328 463 329 l 463 328 m 208 381 q 208 392 208 385 q 206 406 207 399 q 194 428 201 418 q 175 439 188 439 q 136 420 149 439 q 119 378 124 401 q 117 364 118 371 q 115 351 115 357 q 115 348 115 350 q 115 343 115 346 q 114 340 114 342 q 114 335 114 338 q 124 283 115 308 q 146 238 132 258 q 185 290 169 260 q 206 353 201 321 q 208 367 207 360 q 208 381 208 374 l 208 381 m 331 521 q 327 517 329 519 q 324 515 325 515 q 319 513 321 514 q 315 513 318 513 q 310 515 314 513 q 303 519 307 517 q 278 538 290 529 q 254 556 267 547 q 230 572 242 564 q 206 589 218 581 l 192 589 q 166 572 179 581 q 139 554 153 563 q 112 537 125 546 q 85 519 99 528 q 78 515 81 517 q 72 514 75 514 q 66 516 69 514 q 58 524 63 518 q 54 530 56 526 q 53 536 53 533 q 55 544 53 540 q 61 550 57 547 q 91 580 76 565 q 119 610 106 594 q 149 640 135 625 q 178 669 164 654 l 219 669 q 247 639 233 654 q 275 610 261 624 q 301 579 288 594 q 329 549 315 564 q 335 541 333 544 q 338 535 338 538 q 335 528 338 532 q 331 521 333 525 l 331 521 z "},"ë":{"ha":390,"x_min":1,"x_max":464,"o":"m 463 328 q 460 310 461 319 q 457 293 458 301 q 349 117 432 197 q 165 36 267 36 q 161 36 164 36 q 156 38 158 36 q 151 38 154 38 q 146 38 149 38 q 42 101 82 43 q 3 243 1 158 q 3 252 3 247 q 3 261 3 257 q 3 270 3 265 q 4 279 4 275 q 26 367 8 326 q 69 439 44 408 q 75 445 72 442 q 81 451 78 449 q 135 499 104 478 q 200 519 165 519 q 208 519 204 519 q 217 518 213 519 q 271 481 253 510 q 293 421 289 453 q 294 409 293 415 q 294 397 294 403 q 293 372 294 385 q 289 344 292 358 q 253 260 279 300 q 189 197 228 219 q 215 183 201 189 q 242 175 228 178 q 255 173 249 174 q 268 172 261 172 q 322 185 296 174 q 371 218 349 196 q 407 268 393 239 q 424 332 421 297 q 431 347 425 342 q 444 351 438 351 q 447 351 446 351 q 449 350 449 350 q 459 344 454 349 q 463 332 464 340 q 463 330 463 331 q 463 328 463 329 l 463 328 m 208 381 q 208 392 208 385 q 206 406 207 399 q 194 428 201 418 q 175 439 188 439 q 136 420 149 439 q 119 378 124 401 q 117 364 118 371 q 115 351 115 357 q 115 348 115 350 q 115 343 115 346 q 114 340 114 342 q 114 335 114 338 q 124 283 115 308 q 146 238 132 258 q 185 290 169 260 q 206 353 201 321 q 208 367 207 360 q 208 381 208 374 l 208 381 m 179 585 q 165 552 179 567 q 131 538 150 538 q 98 552 113 538 q 83 585 83 567 q 98 619 83 604 q 131 633 113 633 q 165 619 150 633 q 179 585 179 604 l 179 585 m 299 585 q 284 552 299 567 q 250 538 269 538 q 218 552 232 538 q 204 585 204 567 q 218 619 204 604 q 250 633 232 633 q 284 619 269 633 q 299 585 299 604 l 299 585 z "},"í":{"ha":251,"x_min":25,"x_max":357,"o":"m 301 290 q 222 163 263 226 q 142 36 182 100 l 35 36 q 32 135 33 86 q 31 235 31 185 q 28 333 29 283 q 25 432 26 382 q 105 471 65 451 q 183 508 144 490 q 183 426 183 467 q 183 343 183 385 q 184 260 183 301 q 185 178 185 219 q 226 244 206 211 q 268 311 247 278 q 276 319 271 317 q 286 321 281 321 q 300 315 294 321 q 306 301 306 310 q 305 297 306 300 q 301 290 304 293 l 301 290 m 322 592 q 206 558 264 575 q 92 525 149 542 l 78 558 q 128 589 103 574 q 181 619 154 604 q 233 650 207 635 q 283 681 258 665 q 298 687 290 685 q 311 689 306 689 q 344 672 332 689 q 357 636 357 656 q 349 610 357 622 q 322 592 342 597 l 322 592 z "},"ì":{"ha":251,"x_min":-111,"x_max":306,"o":"m 301 290 q 222 163 263 226 q 142 36 182 100 l 35 36 q 32 135 33 86 q 31 235 31 185 q 28 333 29 283 q 25 432 26 382 q 105 471 65 451 q 183 508 144 490 q 183 426 183 467 q 183 343 183 385 q 184 260 183 301 q 185 178 185 219 q 226 244 206 211 q 268 311 247 278 q 276 319 271 317 q 286 321 281 321 q 300 315 294 321 q 306 301 306 310 q 305 297 306 300 q 301 290 304 293 l 301 290 m 167 556 l 153 522 q 39 556 96 539 q -76 589 -18 572 q -103 608 -96 594 q -111 635 -111 621 q -98 670 -111 654 q -64 686 -85 686 q -51 684 -58 686 q -37 678 -44 682 q 13 647 -12 663 q 64 617 38 632 q 116 586 90 601 q 167 556 142 571 l 167 556 z "},"î":{"ha":251,"x_min":-24,"x_max":306,"o":"m 301 290 q 222 163 263 226 q 142 36 182 100 l 35 36 q 32 135 33 86 q 31 235 31 185 q 28 333 29 283 q 25 432 26 382 q 105 471 65 451 q 183 508 144 490 q 183 426 183 467 q 183 343 183 385 q 184 260 183 301 q 185 178 185 219 q 226 244 206 211 q 268 311 247 278 q 276 319 271 317 q 286 321 281 321 q 300 315 294 321 q 306 301 306 310 q 305 297 306 300 q 301 290 304 293 l 301 290 m 253 507 q 249 503 251 506 q 246 501 247 501 q 242 499 243 500 q 238 499 240 499 q 233 501 236 499 q 225 506 229 503 q 201 524 213 515 q 176 542 189 533 q 152 558 164 550 q 128 575 140 567 l 114 575 q 88 558 101 567 q 61 540 75 549 q 34 523 47 532 q 7 506 21 514 q 0 501 3 503 q -4 500 -3 500 q -10 502 -7 500 q -18 510 -14 504 q -22 516 -21 513 q -24 522 -24 519 q -22 530 -24 526 q -15 536 -19 533 q 13 566 -1 551 q 42 596 28 581 q 72 626 57 611 q 100 656 86 640 l 142 656 q 169 625 156 640 q 197 596 183 610 q 224 565 210 581 q 251 535 238 550 q 258 527 256 531 q 260 521 260 524 q 258 515 260 518 q 253 507 256 511 l 253 507 z "},"ï":{"ha":251,"x_min":6,"x_max":306,"o":"m 301 290 q 222 163 263 226 q 142 36 182 100 l 35 36 q 32 135 33 86 q 31 235 31 185 q 28 333 29 283 q 25 432 26 382 q 105 471 65 451 q 183 508 144 490 q 183 426 183 467 q 183 343 183 385 q 184 260 183 301 q 185 178 185 219 q 226 244 206 211 q 268 311 247 278 q 276 319 271 317 q 286 321 281 321 q 300 315 294 321 q 306 301 306 310 q 305 297 306 300 q 301 290 304 293 l 301 290 m 101 574 q 87 541 101 556 q 53 526 72 526 q 20 541 35 526 q 6 574 6 556 q 20 608 6 593 q 53 622 35 622 q 87 608 72 622 q 101 574 101 593 l 101 574 m 221 574 q 206 541 221 556 q 172 526 192 526 q 140 541 154 526 q 126 574 126 556 q 140 608 126 593 q 172 622 154 622 q 206 608 192 622 q 221 574 221 593 l 221 574 z "},"ñ":{"ha":583,"x_min":1,"x_max":604,"o":"m 599 306 q 560 255 579 281 q 522 204 542 229 q 484 152 503 178 q 446 101 465 126 q 403 59 428 76 q 351 33 378 42 q 333 29 342 31 q 314 28 324 28 q 256 51 281 28 q 228 128 231 75 q 226 161 226 144 q 224 194 225 178 q 222 226 222 210 q 219 260 221 243 l 129 69 l 1 38 q 3 131 3 85 q 6 225 4 178 q 6 319 6 272 q 8 413 7 365 l 154 468 l 163 233 q 181 272 172 253 q 200 311 190 292 q 219 350 210 331 q 236 389 228 369 q 260 422 247 410 q 288 440 274 435 q 302 444 294 443 q 317 446 310 446 q 369 426 346 444 q 394 375 393 407 q 403 248 399 311 q 411 121 407 185 q 465 189 439 154 q 515 260 490 224 q 522 268 518 264 q 528 276 525 272 q 547 303 538 290 q 567 329 557 317 q 575 337 571 335 q 583 338 579 339 q 598 332 592 338 q 603 318 604 326 q 602 312 603 315 q 599 306 601 308 l 599 306 m 403 585 q 394 549 401 567 q 372 518 386 531 q 333 493 357 501 q 285 485 310 485 q 244 491 264 485 q 210 510 225 497 q 199 519 206 514 q 188 528 193 524 q 174 539 181 533 q 160 549 167 544 q 151 552 156 550 q 142 554 146 554 q 140 554 140 554 q 136 554 139 554 q 113 542 122 554 q 97 517 103 531 q 94 508 96 513 q 93 499 93 503 q 90 485 93 492 q 72 481 88 479 q 57 485 61 481 q 54 496 53 490 q 54 497 54 496 q 54 499 54 497 q 54 501 54 500 q 54 501 54 501 q 54 505 54 503 q 54 508 54 507 q 54 509 54 508 q 54 511 54 510 q 54 516 54 514 q 54 521 54 518 q 84 589 56 561 q 153 617 113 617 q 200 606 181 617 q 238 581 219 596 q 246 574 242 578 q 254 567 250 571 q 278 552 265 557 q 303 547 290 547 q 345 565 328 547 q 364 607 363 582 q 367 620 364 614 q 383 625 369 626 q 399 619 394 624 q 403 607 403 615 q 403 602 403 606 q 401 596 403 599 q 403 591 403 594 q 403 585 403 588 l 403 585 z "},"ó":{"ha":465,"x_min":6,"x_max":536,"o":"m 532 324 q 527 316 529 319 q 522 310 525 313 q 444 233 492 268 q 343 199 396 199 q 340 199 342 199 q 336 200 338 199 q 332 200 333 200 q 328 200 331 200 q 305 150 318 174 q 274 104 292 126 q 220 58 250 76 q 160 38 190 40 q 152 36 156 36 q 144 36 149 36 q 88 51 115 36 q 39 100 60 67 q 13 158 21 128 q 6 222 6 189 q 6 237 6 229 q 7 251 7 244 q 32 348 13 301 q 82 428 51 394 q 143 477 110 460 q 213 494 176 494 q 310 446 278 494 q 347 340 342 397 q 347 333 347 336 q 347 325 347 329 q 347 304 347 315 q 346 282 347 293 q 344 260 346 271 q 339 239 342 250 q 342 239 340 239 q 346 239 344 239 q 419 263 383 239 q 478 317 454 288 q 490 331 485 324 q 499 344 494 338 q 506 352 501 350 q 517 354 511 354 q 531 349 525 354 q 536 335 536 343 q 535 330 536 333 q 532 324 535 326 l 532 324 m 281 203 q 290 217 288 208 q 293 235 293 225 q 292 251 293 243 q 288 269 290 260 q 279 289 283 279 q 271 308 275 299 q 261 324 265 317 q 254 335 257 331 q 243 349 250 340 q 226 365 236 357 q 208 381 218 374 q 189 394 199 389 q 172 401 181 399 q 157 404 164 404 q 147 401 151 403 q 138 397 142 400 q 127 383 131 392 q 125 364 124 375 q 126 349 125 357 q 129 333 128 342 q 138 310 133 322 q 147 289 142 299 q 156 274 151 281 q 163 264 160 268 q 174 250 167 258 q 190 233 182 242 q 210 217 200 225 q 232 204 221 210 q 247 198 239 200 q 261 196 254 196 q 272 199 267 197 q 281 203 276 200 l 281 203 m 386 581 q 270 547 328 564 q 156 514 213 531 l 142 547 q 192 578 167 563 q 244 608 218 593 q 297 639 271 624 q 347 669 322 654 q 362 676 354 674 q 375 678 369 678 q 408 661 396 678 q 421 625 421 644 q 413 599 421 611 q 386 581 406 586 l 386 581 z "},"ò":{"ha":465,"x_min":6,"x_max":536,"o":"m 532 324 q 527 316 529 319 q 522 310 525 313 q 444 233 492 268 q 343 199 396 199 q 340 199 342 199 q 336 200 338 199 q 332 200 333 200 q 328 200 331 200 q 305 150 318 174 q 274 104 292 126 q 220 58 250 76 q 160 38 190 40 q 152 36 156 36 q 144 36 149 36 q 88 51 115 36 q 39 100 60 67 q 13 158 21 128 q 6 222 6 189 q 6 237 6 229 q 7 251 7 244 q 32 348 13 301 q 82 428 51 394 q 143 477 110 460 q 213 494 176 494 q 310 446 278 494 q 347 340 342 397 q 347 333 347 336 q 347 325 347 329 q 347 304 347 315 q 346 282 347 293 q 344 260 346 271 q 339 239 342 250 q 342 239 340 239 q 346 239 344 239 q 419 263 383 239 q 478 317 454 288 q 490 331 485 324 q 499 344 494 338 q 506 352 501 350 q 517 354 511 354 q 531 349 525 354 q 536 335 536 343 q 535 330 536 333 q 532 324 535 326 l 532 324 m 281 203 q 290 217 288 208 q 293 235 293 225 q 292 251 293 243 q 288 269 290 260 q 279 289 283 279 q 271 308 275 299 q 261 324 265 317 q 254 335 257 331 q 243 349 250 340 q 226 365 236 357 q 208 381 218 374 q 189 394 199 389 q 172 401 181 399 q 157 404 164 404 q 147 401 151 403 q 138 397 142 400 q 127 383 131 392 q 125 364 124 375 q 126 349 125 357 q 129 333 128 342 q 138 310 133 322 q 147 289 142 299 q 156 274 151 281 q 163 264 160 268 q 174 250 167 258 q 190 233 182 242 q 210 217 200 225 q 232 204 221 210 q 247 198 239 200 q 261 196 254 196 q 272 199 267 197 q 281 203 276 200 l 281 203 m 286 542 l 272 508 q 158 542 215 525 q 42 575 100 558 q 15 594 24 581 q 7 621 7 607 q 20 656 7 640 q 54 672 33 672 q 67 670 61 672 q 81 664 74 668 q 131 633 106 649 q 183 603 157 618 q 235 572 210 588 q 286 542 261 557 l 286 542 z "},"ô":{"ha":465,"x_min":6,"x_max":536,"o":"m 532 324 q 527 316 529 319 q 522 310 525 313 q 444 233 492 268 q 343 199 396 199 q 340 199 342 199 q 336 200 338 199 q 332 200 333 200 q 328 200 331 200 q 305 150 318 174 q 274 104 292 126 q 220 58 250 76 q 160 38 190 40 q 152 36 156 36 q 144 36 149 36 q 88 51 115 36 q 39 100 60 67 q 13 158 21 128 q 6 222 6 189 q 6 237 6 229 q 7 251 7 244 q 32 348 13 301 q 82 428 51 394 q 143 477 110 460 q 213 494 176 494 q 310 446 278 494 q 347 340 342 397 q 347 333 347 336 q 347 325 347 329 q 347 304 347 315 q 346 282 347 293 q 344 260 346 271 q 339 239 342 250 q 342 239 340 239 q 346 239 344 239 q 419 263 383 239 q 478 317 454 288 q 490 331 485 324 q 499 344 494 338 q 506 352 501 350 q 517 354 511 354 q 531 349 525 354 q 536 335 536 343 q 535 330 536 333 q 532 324 535 326 l 532 324 m 281 203 q 290 217 288 208 q 293 235 293 225 q 292 251 293 243 q 288 269 290 260 q 279 289 283 279 q 271 308 275 299 q 261 324 265 317 q 254 335 257 331 q 243 349 250 340 q 226 365 236 357 q 208 381 218 374 q 189 394 199 389 q 172 401 181 399 q 157 404 164 404 q 147 401 151 403 q 138 397 142 400 q 127 383 131 392 q 125 364 124 375 q 126 349 125 357 q 129 333 128 342 q 138 310 133 322 q 147 289 142 299 q 156 274 151 281 q 163 264 160 268 q 174 250 167 258 q 190 233 182 242 q 210 217 200 225 q 232 204 221 210 q 247 198 239 200 q 261 196 254 196 q 272 199 267 197 q 281 203 276 200 l 281 203 m 336 490 q 333 487 335 489 q 329 485 331 485 q 325 483 326 483 q 321 482 324 482 q 316 484 319 482 q 308 489 313 486 q 284 508 296 499 q 260 525 272 517 q 235 542 247 533 q 211 558 224 550 l 197 558 q 172 541 185 550 q 144 524 158 532 q 117 506 131 515 q 90 489 104 497 q 83 485 86 486 q 78 483 81 483 q 72 485 75 483 q 64 493 68 488 q 60 499 61 496 q 58 506 58 503 q 60 513 58 510 q 67 519 63 517 q 97 549 82 535 q 125 579 111 564 q 155 609 140 594 q 183 639 169 624 l 225 639 q 253 608 239 624 q 281 579 267 593 q 307 549 293 564 q 335 518 321 533 q 341 510 339 514 q 343 504 343 507 q 341 498 343 501 q 336 490 339 494 l 336 490 z "},"ö":{"ha":465,"x_min":6,"x_max":536,"o":"m 532 324 q 527 316 529 319 q 522 310 525 313 q 444 233 492 268 q 343 199 396 199 q 340 199 342 199 q 336 200 338 199 q 332 200 333 200 q 328 200 331 200 q 305 150 318 174 q 274 104 292 126 q 220 58 250 76 q 160 38 190 40 q 152 36 156 36 q 144 36 149 36 q 88 51 115 36 q 39 100 60 67 q 13 158 21 128 q 6 222 6 189 q 6 237 6 229 q 7 251 7 244 q 32 348 13 301 q 82 428 51 394 q 143 477 110 460 q 213 494 176 494 q 310 446 278 494 q 347 340 342 397 q 347 333 347 336 q 347 325 347 329 q 347 304 347 315 q 346 282 347 293 q 344 260 346 271 q 339 239 342 250 q 342 239 340 239 q 346 239 344 239 q 419 263 383 239 q 478 317 454 288 q 490 331 485 324 q 499 344 494 338 q 506 352 501 350 q 517 354 511 354 q 531 349 525 354 q 536 335 536 343 q 535 330 536 333 q 532 324 535 326 l 532 324 m 281 203 q 290 217 288 208 q 293 235 293 225 q 292 251 293 243 q 288 269 290 260 q 279 289 283 279 q 271 308 275 299 q 261 324 265 317 q 254 335 257 331 q 243 349 250 340 q 226 365 236 357 q 208 381 218 374 q 189 394 199 389 q 172 401 181 399 q 157 404 164 404 q 147 401 151 403 q 138 397 142 400 q 127 383 131 392 q 125 364 124 375 q 126 349 125 357 q 129 333 128 342 q 138 310 133 322 q 147 289 142 299 q 156 274 151 281 q 163 264 160 268 q 174 250 167 258 q 190 233 182 242 q 210 217 200 225 q 232 204 221 210 q 247 198 239 200 q 261 196 254 196 q 272 199 267 197 q 281 203 276 200 l 281 203 m 193 557 q 178 524 193 539 q 144 510 164 510 q 112 524 126 510 q 97 557 97 539 q 112 591 97 576 q 144 606 126 606 q 178 591 164 606 q 193 557 193 576 l 193 557 m 313 557 q 298 524 313 539 q 264 510 283 510 q 232 524 246 510 q 218 557 218 539 q 232 591 218 576 q 264 606 246 606 q 298 591 283 606 q 313 557 313 576 l 313 557 z "},"õ":{"ha":465,"x_min":6,"x_max":536,"o":"m 532 324 q 527 316 529 319 q 522 310 525 313 q 444 233 492 268 q 343 199 396 199 q 340 199 342 199 q 336 200 338 199 q 332 200 333 200 q 328 200 331 200 q 305 150 318 174 q 274 104 292 126 q 220 58 250 76 q 160 38 190 40 q 152 36 156 36 q 144 36 149 36 q 88 51 115 36 q 39 100 60 67 q 13 158 21 128 q 6 222 6 189 q 6 237 6 229 q 7 251 7 244 q 32 348 13 301 q 82 428 51 394 q 143 477 110 460 q 213 494 176 494 q 310 446 278 494 q 347 340 342 397 q 347 333 347 336 q 347 325 347 329 q 347 304 347 315 q 346 282 347 293 q 344 260 346 271 q 339 239 342 250 q 342 239 340 239 q 346 239 344 239 q 419 263 383 239 q 478 317 454 288 q 490 331 485 324 q 499 344 494 338 q 506 352 501 350 q 517 354 511 354 q 531 349 525 354 q 536 335 536 343 q 535 330 536 333 q 532 324 535 326 l 532 324 m 281 203 q 290 217 288 208 q 293 235 293 225 q 292 251 293 243 q 288 269 290 260 q 279 289 283 279 q 271 308 275 299 q 261 324 265 317 q 254 335 257 331 q 243 349 250 340 q 226 365 236 357 q 208 381 218 374 q 189 394 199 389 q 172 401 181 399 q 157 404 164 404 q 147 401 151 403 q 138 397 142 400 q 127 383 131 392 q 125 364 124 375 q 126 349 125 357 q 129 333 128 342 q 138 310 133 322 q 147 289 142 299 q 156 274 151 281 q 163 264 160 268 q 174 250 167 258 q 190 233 182 242 q 210 217 200 225 q 232 204 221 210 q 247 198 239 200 q 261 196 254 196 q 272 199 267 197 q 281 203 276 200 l 281 203 m 383 615 q 374 579 382 597 q 353 549 367 561 q 314 524 338 532 q 265 515 290 515 q 225 522 244 515 q 190 540 206 528 q 180 549 186 544 q 168 558 174 554 q 154 569 161 564 q 140 579 147 575 q 131 583 136 581 q 122 585 126 585 q 120 585 121 585 q 117 585 119 585 q 93 573 103 585 q 78 547 83 561 q 75 538 76 543 q 74 529 74 533 q 71 516 74 522 q 53 511 68 510 q 38 516 42 511 q 35 526 33 521 q 35 527 35 526 q 35 529 35 528 q 35 531 35 531 q 35 532 35 532 q 35 535 35 533 q 35 539 35 538 q 35 540 35 539 q 35 542 35 540 q 35 547 35 544 q 35 551 35 549 q 65 619 36 592 q 133 647 93 647 q 181 637 161 647 q 218 611 200 626 q 226 605 222 608 q 235 597 231 601 q 258 583 246 588 q 283 578 271 578 q 326 595 308 578 q 344 638 343 613 q 347 651 344 644 q 364 656 350 657 q 379 650 375 654 q 383 638 383 646 q 383 633 383 636 q 382 626 383 629 q 383 622 383 625 q 383 615 383 618 l 383 615 z "},"ú":{"ha":579,"x_min":3,"x_max":613,"o":"m 607 306 q 569 255 588 281 q 531 204 550 229 q 492 153 511 179 q 454 103 474 128 q 411 60 436 78 q 360 35 386 43 q 341 31 350 32 q 322 29 332 29 q 264 53 289 29 q 236 129 239 76 q 235 153 236 142 q 233 178 235 165 q 231 202 232 190 q 231 226 231 214 q 215 191 225 213 q 192 146 206 169 q 145 80 172 110 q 86 50 118 50 q 75 52 81 50 q 63 56 69 54 q 29 84 40 64 q 14 126 18 104 q 12 143 13 135 q 11 160 11 151 q 8 287 10 224 q 3 414 6 350 l 163 468 l 172 194 q 219 308 200 250 q 254 424 238 365 l 403 458 q 411 290 407 374 q 419 122 415 206 q 479 199 450 160 q 536 276 508 238 q 556 303 546 290 q 575 329 565 317 q 583 337 579 335 q 592 338 588 339 q 606 332 600 338 q 611 318 613 326 q 610 312 611 315 q 607 306 610 308 l 607 306 m 389 558 q 273 525 331 542 q 158 492 215 508 l 144 525 q 195 556 169 540 q 247 586 221 571 q 299 617 274 601 q 350 647 325 632 q 365 653 357 651 q 378 656 372 656 q 411 639 399 656 q 424 603 424 622 q 416 576 424 589 q 389 558 408 564 l 389 558 z "},"ù":{"ha":579,"x_min":3,"x_max":613,"o":"m 607 306 q 569 255 588 281 q 531 204 550 229 q 492 153 511 179 q 454 103 474 128 q 411 60 436 78 q 360 35 386 43 q 341 31 350 32 q 322 29 332 29 q 264 53 289 29 q 236 129 239 76 q 235 153 236 142 q 233 178 235 165 q 231 202 232 190 q 231 226 231 214 q 215 191 225 213 q 192 146 206 169 q 145 80 172 110 q 86 50 118 50 q 75 52 81 50 q 63 56 69 54 q 29 84 40 64 q 14 126 18 104 q 12 143 13 135 q 11 160 11 151 q 8 287 10 224 q 3 414 6 350 l 163 468 l 172 194 q 219 308 200 250 q 254 424 238 365 l 403 458 q 411 290 407 374 q 419 122 415 206 q 479 199 450 160 q 536 276 508 238 q 556 303 546 290 q 575 329 565 317 q 583 337 579 335 q 592 338 588 339 q 606 332 600 338 q 611 318 613 326 q 610 312 611 315 q 607 306 610 308 l 607 306 m 331 508 l 317 475 q 202 508 260 492 q 86 542 144 525 q 60 560 68 547 q 51 588 51 574 q 65 623 51 607 q 99 639 78 639 q 112 637 106 639 q 125 631 118 635 q 176 600 150 615 q 228 569 201 585 q 280 539 254 554 q 331 508 306 524 l 331 508 z "},"û":{"ha":579,"x_min":3,"x_max":613,"o":"m 607 306 q 569 255 588 281 q 531 204 550 229 q 492 153 511 179 q 454 103 474 128 q 411 60 436 78 q 360 35 386 43 q 341 31 350 32 q 322 29 332 29 q 264 53 289 29 q 236 129 239 76 q 235 153 236 142 q 233 178 235 165 q 231 202 232 190 q 231 226 231 214 q 215 191 225 213 q 192 146 206 169 q 145 80 172 110 q 86 50 118 50 q 75 52 81 50 q 63 56 69 54 q 29 84 40 64 q 14 126 18 104 q 12 143 13 135 q 11 160 11 151 q 8 287 10 224 q 3 414 6 350 l 163 468 l 172 194 q 219 308 200 250 q 254 424 238 365 l 403 458 q 411 290 407 374 q 419 122 415 206 q 479 199 450 160 q 536 276 508 238 q 556 303 546 290 q 575 329 565 317 q 583 337 579 335 q 592 338 588 339 q 606 332 600 338 q 611 318 613 326 q 610 312 611 315 q 607 306 610 308 l 607 306 m 347 482 q 344 478 346 481 q 340 476 342 476 q 336 474 338 475 q 332 474 335 474 q 327 476 331 474 q 319 481 324 478 q 295 499 307 490 q 271 517 283 508 q 247 533 258 525 q 222 550 235 542 l 208 550 q 183 533 196 542 q 156 515 169 524 q 128 498 142 507 q 101 481 115 489 q 94 476 97 478 q 89 475 92 475 q 83 477 86 475 q 75 485 79 479 q 71 491 72 488 q 69 497 69 494 q 72 505 69 501 q 78 511 74 508 q 108 541 93 526 q 136 571 122 556 q 166 601 151 586 q 194 631 181 615 l 236 631 q 264 600 250 615 q 292 571 278 585 q 318 540 304 556 q 346 510 332 525 q 352 502 350 506 q 354 496 354 499 q 352 490 354 493 q 347 482 350 486 l 347 482 z "},"ü":{"ha":579,"x_min":3,"x_max":613,"o":"m 607 306 q 569 255 588 281 q 531 204 550 229 q 492 153 511 179 q 454 103 474 128 q 411 60 436 78 q 360 35 386 43 q 341 31 350 32 q 322 29 332 29 q 264 53 289 29 q 236 129 239 76 q 235 153 236 142 q 233 178 235 165 q 231 202 232 190 q 231 226 231 214 q 215 191 225 213 q 192 146 206 169 q 145 80 172 110 q 86 50 118 50 q 75 52 81 50 q 63 56 69 54 q 29 84 40 64 q 14 126 18 104 q 12 143 13 135 q 11 160 11 151 q 8 287 10 224 q 3 414 6 350 l 163 468 l 172 194 q 219 308 200 250 q 254 424 238 365 l 403 458 q 411 290 407 374 q 419 122 415 206 q 479 199 450 160 q 536 276 508 238 q 556 303 546 290 q 575 329 565 317 q 583 337 579 335 q 592 338 588 339 q 606 332 600 338 q 611 318 613 326 q 610 312 611 315 q 607 306 610 308 l 607 306 m 201 529 q 187 497 201 511 q 153 482 172 482 q 120 497 135 482 q 106 529 106 511 q 120 563 106 549 q 153 578 135 578 q 187 563 172 578 q 201 529 201 549 l 201 529 m 321 529 q 306 497 321 511 q 272 482 292 482 q 240 497 254 482 q 226 529 226 511 q 240 563 226 549 q 272 578 254 578 q 306 563 292 578 q 321 529 321 549 l 321 529 z "},"†":{"ha":694,"x_min":0,"x_max":0,"o":""},"¢":{"ha":482,"x_min":22,"x_max":461,"o":"m 456 461 q 418 414 439 440 q 374 361 397 388 q 311 297 344 328 q 244 243 278 265 q 199 222 222 229 q 156 214 176 214 q 148 162 151 188 q 142 111 144 136 q 134 59 138 85 q 126 7 131 33 q 121 -4 125 0 q 111 -10 117 -8 q 109 -10 110 -10 q 107 -10 108 -10 q 105 -10 106 -10 q 104 -10 104 -10 q 92 -4 97 -8 q 88 8 86 0 q 88 10 88 10 q 88 13 88 11 q 102 118 94 65 q 118 224 110 171 q 46 301 69 246 q 22 419 22 356 q 22 435 22 428 q 24 451 22 443 q 72 608 31 536 q 185 692 114 681 q 197 769 192 731 q 207 846 201 807 q 213 858 208 854 q 222 864 217 863 q 224 864 224 864 q 226 864 225 864 q 228 864 228 864 q 229 864 229 864 q 242 858 236 863 q 246 844 247 853 q 246 842 246 843 q 246 840 246 842 q 235 765 240 803 q 225 690 231 728 q 264 674 247 686 q 294 646 281 661 l 256 528 q 250 534 253 531 q 244 542 247 538 q 227 561 236 551 q 208 581 218 571 l 182 400 q 224 370 201 381 q 269 361 246 360 q 310 369 290 361 q 349 393 331 376 q 359 403 354 399 q 369 414 364 408 q 401 453 388 433 q 424 485 414 472 q 432 492 428 490 q 440 493 436 494 q 455 488 449 493 q 460 474 461 482 q 459 467 460 471 q 456 461 458 464 l 456 461 m 172 606 q 169 608 171 607 q 165 610 167 608 q 162 612 164 611 q 158 613 160 613 q 144 580 150 597 q 138 546 139 563 q 136 533 136 539 q 136 522 136 528 q 137 510 136 517 q 138 499 138 504 q 142 474 139 486 q 150 451 146 463 l 172 606 l 172 606 z "},"£":{"ha":739,"x_min":33,"x_max":706,"o":"m 703 176 q 644 67 688 106 q 542 29 600 29 q 504 34 524 31 q 465 46 485 38 q 452 51 458 49 q 439 58 446 54 q 406 80 424 67 q 371 107 389 93 q 296 54 339 76 q 207 28 253 32 q 196 26 201 26 q 185 26 190 26 q 125 37 154 26 q 72 69 96 47 q 43 110 53 89 q 33 154 33 132 q 34 168 33 161 q 38 183 35 175 q 53 225 42 204 q 82 264 65 246 q 131 300 106 289 q 182 311 156 311 q 270 290 225 311 q 363 239 315 268 q 342 306 358 272 q 303 375 325 340 l 154 375 l 110 439 l 260 439 q 235 475 247 457 q 213 511 224 493 q 178 583 192 547 q 165 656 165 619 q 165 660 165 658 q 165 664 165 661 q 165 667 165 665 q 165 671 165 669 q 242 842 174 774 q 407 911 310 911 q 438 909 422 911 q 471 903 454 907 q 586 837 549 882 q 629 739 624 792 q 631 727 631 733 q 631 714 631 721 q 631 710 631 713 q 631 706 631 708 q 583 580 628 638 q 478 524 539 522 q 448 528 464 524 q 417 540 432 532 q 402 549 410 544 q 386 561 394 554 q 365 584 374 572 q 350 608 356 596 q 346 620 347 614 q 343 632 344 626 q 342 637 343 635 q 342 642 342 639 q 342 646 342 643 q 342 650 342 649 q 369 714 342 688 q 436 740 397 740 q 439 740 438 740 q 443 740 440 740 q 446 739 444 739 q 449 739 447 739 l 457 703 q 429 672 439 689 q 419 635 419 654 q 438 588 419 608 q 493 567 457 567 q 519 577 508 567 q 539 600 531 588 q 541 602 540 601 q 542 604 542 603 q 554 634 550 619 q 558 664 558 649 q 537 736 558 701 q 483 790 515 771 q 450 804 469 800 q 411 808 431 808 q 402 808 407 808 q 393 807 397 808 q 335 791 363 804 q 293 756 307 778 q 283 732 288 746 q 279 703 279 718 q 281 688 279 696 q 283 671 282 679 q 313 590 294 629 q 350 513 331 550 q 355 504 353 508 q 358 496 357 500 q 372 467 365 482 q 386 439 379 453 l 539 439 l 583 375 l 414 375 q 431 318 424 349 q 438 256 438 288 q 435 227 438 242 q 429 199 433 213 q 449 187 438 193 q 472 174 460 181 q 503 160 488 167 q 535 147 518 153 q 563 140 549 143 q 589 138 576 138 q 622 143 607 138 q 646 163 636 149 q 649 167 647 165 q 653 172 651 169 q 655 178 654 175 q 657 183 656 181 q 669 201 663 193 q 685 210 675 210 q 690 209 688 210 q 693 207 692 208 q 703 199 700 203 q 706 189 706 194 q 705 183 706 186 q 703 176 704 179 l 703 176 m 333 139 q 285 178 310 160 q 235 211 260 197 q 194 229 214 222 q 154 236 174 236 q 122 231 138 236 q 92 211 107 225 q 80 193 85 204 q 74 169 75 182 q 74 162 74 165 q 74 154 74 158 q 74 144 74 149 q 75 138 74 140 q 101 96 82 113 q 143 72 121 79 q 166 67 154 69 q 189 65 178 65 q 269 86 231 65 q 333 139 307 107 l 333 139 z "},"§":{"ha":694,"x_min":0,"x_max":0,"o":""},"¶":{"ha":694,"x_min":0,"x_max":0,"o":""},"ß":{"ha":544,"x_min":0,"x_max":599,"o":"m 599 288 q 501 135 578 204 q 335 46 424 67 q 303 40 318 42 q 272 38 288 38 q 193 65 221 38 q 165 126 165 93 q 185 180 165 154 q 243 215 204 206 q 245 215 244 215 q 247 217 246 215 q 248 217 247 217 q 250 217 249 217 q 265 209 260 215 q 269 196 269 203 q 265 185 269 190 q 254 178 261 181 q 218 158 229 171 q 206 132 207 146 q 206 128 206 129 q 206 125 206 126 q 217 95 206 108 q 247 82 229 82 q 274 90 260 82 q 303 119 289 99 q 323 157 315 136 q 333 199 331 178 q 335 212 335 206 q 335 224 335 218 q 326 277 335 251 q 300 324 318 303 q 255 359 281 344 q 203 385 229 374 q 188 392 196 389 q 174 397 181 394 q 247 535 214 463 q 300 682 279 608 q 303 693 301 688 q 306 706 304 699 q 310 726 308 715 q 314 750 313 738 q 315 761 314 756 q 315 772 315 767 q 304 817 315 799 q 264 836 293 836 q 260 836 263 836 q 256 836 258 836 q 197 793 217 832 q 168 708 176 754 q 160 649 161 678 q 158 603 158 621 q 159 401 158 501 q 160 200 160 300 q 160 -1 160 99 q 160 -203 160 -101 l 0 -237 q 0 -28 0 -132 q 0 181 0 75 q 0 389 0 285 q 0 597 0 493 q 1 634 0 615 q 7 671 3 653 q 59 809 19 743 q 163 908 99 875 q 215 928 189 922 q 267 935 240 935 q 414 877 351 933 q 475 743 476 821 q 464 682 475 713 q 426 619 453 651 q 385 570 406 594 q 344 521 364 546 q 303 472 324 496 q 263 422 283 447 q 288 436 275 431 q 315 444 301 442 q 328 447 322 446 q 342 447 335 447 q 397 433 371 447 q 442 390 424 419 q 463 342 457 368 q 469 289 469 317 q 469 278 469 283 q 468 265 468 272 q 449 187 464 225 q 413 119 435 149 q 504 194 463 147 q 560 297 546 240 q 568 310 563 306 q 579 314 574 314 q 592 308 586 313 q 599 293 599 303 q 599 292 599 293 q 599 290 599 292 q 599 288 599 289 q 599 288 599 288 l 599 288 z "},"®":{"ha":694,"x_min":0,"x_max":0,"o":""},"©":{"ha":694,"x_min":0,"x_max":0,"o":""},"™":{"ha":694,"x_min":0,"x_max":0,"o":""},"´":{"ha":383,"x_min":50,"x_max":329,"o":"m 294 1033 q 178 1000 236 1017 q 64 967 121 983 l 50 1000 q 101 1031 75 1015 q 153 1061 126 1046 q 205 1092 179 1076 q 256 1122 231 1107 q 270 1128 263 1126 q 283 1131 278 1131 q 317 1114 304 1131 q 329 1078 329 1097 q 322 1051 329 1064 q 294 1033 314 1039 l 294 1033 z "},"¨":{"ha":383,"x_min":86,"x_max":301,"o":"m 182 893 q 167 860 182 875 q 133 846 153 846 q 101 860 115 846 q 86 893 86 875 q 101 927 86 913 q 133 942 115 942 q 167 927 153 942 q 182 893 182 913 l 182 893 m 301 893 q 287 860 301 875 q 253 846 272 846 q 221 860 235 846 q 207 893 207 875 q 221 927 207 913 q 253 942 235 942 q 287 927 272 942 q 301 893 301 913 l 301 893 z "},"≠":{"ha":694,"x_min":0,"x_max":0,"o":""},"Æ":{"ha":1522,"x_min":0,"x_max":1513,"o":"m 1513 278 q 1501 255 1507 267 q 1490 232 1496 243 q 1468 185 1479 208 q 1446 140 1457 163 q 1409 111 1439 125 q 1346 85 1379 97 q 1292 69 1318 76 q 1254 60 1267 63 q 1169 47 1219 53 q 1061 42 1118 42 q 1022 42 1042 42 q 982 44 1003 43 q 785 88 878 53 q 661 201 692 124 q 660 199 661 200 q 660 199 660 199 q 660 197 660 197 q 660 194 660 196 l 619 68 q 528 49 576 56 q 432 42 481 42 q 423 42 428 42 q 413 42 418 42 q 169 103 285 47 q 1 279 53 158 q 1 282 1 281 q 0 285 0 283 q 0 286 0 285 q 0 288 0 288 q 0 288 0 288 q 0 290 0 289 q 15 379 7 335 q 31 468 22 424 q 47 557 38 513 q 64 646 56 601 q 65 651 64 649 q 67 654 65 653 q 256 810 136 750 q 507 890 376 869 q 576 899 542 896 q 644 901 611 901 q 716 898 681 901 q 783 888 751 894 q 788 887 786 888 q 793 886 790 886 q 797 884 794 885 q 801 883 800 883 q 788 811 796 847 q 774 739 781 775 l 729 726 l 757 686 q 740 590 746 640 q 733 489 733 540 q 735 466 735 478 q 736 443 735 454 q 817 489 772 471 q 908 518 861 507 q 970 531 939 526 q 1029 538 1001 535 q 911 594 965 558 q 842 708 857 629 q 840 723 840 715 q 839 738 839 731 q 896 858 840 808 q 1018 922 951 908 q 1028 924 1024 924 q 1039 925 1033 925 q 1048 926 1043 926 q 1058 926 1053 926 q 1070 926 1064 926 q 1082 925 1076 925 q 1185 893 1135 918 q 1272 835 1235 868 q 1274 843 1274 839 q 1275 851 1275 847 q 1274 862 1275 857 q 1272 872 1272 867 q 1269 883 1271 878 q 1268 893 1268 888 q 1272 909 1267 903 q 1285 917 1278 915 q 1285 917 1285 917 q 1288 917 1286 917 q 1300 911 1294 915 q 1307 897 1306 907 q 1311 869 1310 882 q 1313 846 1313 857 q 1310 826 1313 836 q 1304 804 1308 817 q 1353 726 1338 767 q 1369 636 1369 685 q 1369 621 1369 629 q 1368 604 1369 613 q 1365 586 1367 596 q 1360 565 1363 576 q 1336 522 1351 542 q 1297 501 1321 501 q 1285 503 1292 501 q 1272 508 1279 506 q 1232 553 1243 524 q 1221 615 1221 582 q 1221 623 1221 619 q 1221 629 1221 626 q 1226 670 1222 650 q 1233 708 1229 690 q 1234 715 1233 711 q 1236 721 1235 718 q 1153 772 1200 750 q 1058 803 1107 793 q 1015 809 1036 807 q 974 810 994 811 q 906 792 935 807 q 879 736 878 776 q 879 730 879 733 q 879 722 879 726 q 880 719 879 721 q 881 715 881 717 q 946 619 893 650 q 1058 568 999 588 q 1080 561 1069 564 q 1100 554 1090 558 q 1127 546 1114 550 q 1153 536 1140 542 l 1175 408 q 1095 416 1135 413 q 1015 419 1056 419 q 960 417 989 419 q 904 410 932 415 q 863 401 886 407 q 815 386 840 394 q 731 342 769 369 q 693 271 693 314 q 693 268 693 269 q 694 265 693 267 q 694 263 694 264 q 694 260 694 261 q 719 223 699 236 q 761 203 739 210 q 783 197 772 200 q 801 193 793 194 q 920 173 861 179 q 1038 167 979 167 q 1280 195 1161 167 q 1513 278 1399 224 l 1513 278 m 672 742 l 671 744 q 559 743 621 747 q 432 728 497 739 q 190 633 301 701 q 67 438 78 565 q 137 288 58 342 q 311 208 215 233 q 404 191 358 197 q 485 185 450 185 q 560 188 525 185 q 621 200 594 192 l 642 267 q 622 368 629 315 q 615 475 615 421 q 628 615 615 546 q 672 742 642 683 l 672 742 m 1300 543 q 1305 556 1303 550 q 1307 568 1307 561 q 1309 580 1308 574 q 1310 592 1310 586 q 1299 642 1310 618 q 1269 689 1289 667 q 1269 683 1269 686 q 1267 676 1268 679 q 1264 649 1265 664 q 1263 617 1263 633 q 1269 565 1263 589 q 1294 542 1276 542 q 1295 542 1294 542 q 1297 543 1296 542 q 1299 543 1299 543 q 1300 543 1300 543 l 1300 543 z "},"Ø":{"ha":1043,"x_min":-4,"x_max":997,"o":"m 992 594 q 996 559 994 576 q 997 525 997 542 q 867 211 997 347 q 563 46 736 75 q 523 41 543 43 q 482 39 503 39 q 445 40 464 39 q 408 44 426 42 q 370 51 389 47 q 333 60 351 54 l 297 -14 q 291 -20 294 -17 q 283 -24 288 -24 q 281 -25 282 -25 q 278 -25 279 -25 q 265 -20 271 -25 q 258 -6 258 -15 q 259 -2 258 -4 q 261 3 260 0 l 296 71 q 83 212 171 115 q 4 447 -4 308 q 129 672 15 607 q 378 744 243 738 q 431 745 404 746 q 482 743 457 744 q 510 740 496 742 q 539 735 525 738 q 577 724 558 731 q 614 710 596 718 l 635 749 q 546 774 592 767 q 453 781 500 781 q 354 774 404 781 q 253 758 304 768 l 235 790 q 373 882 292 853 q 543 911 454 911 q 563 910 553 911 q 583 910 574 910 q 644 901 614 907 q 704 888 675 896 l 732 943 q 738 951 735 947 q 746 954 742 954 q 749 956 747 956 q 751 956 750 956 q 764 949 758 954 q 769 935 769 944 q 769 931 769 933 q 767 925 768 928 l 742 875 q 905 767 836 838 q 992 594 974 696 l 992 594 m 879 356 q 882 383 882 369 q 882 408 882 396 q 842 574 882 499 q 724 703 801 649 q 698 719 711 711 q 671 733 685 728 l 650 692 q 653 690 651 690 q 657 689 654 689 q 660 687 658 688 q 663 685 661 686 q 669 680 667 683 q 672 674 671 676 q 672 671 672 672 q 672 668 672 669 q 667 653 672 660 q 653 649 661 647 q 650 649 651 649 q 647 649 649 649 q 644 649 646 649 q 642 651 643 650 q 639 652 640 651 q 638 654 638 653 q 635 656 636 656 q 632 657 633 657 l 403 197 q 503 174 451 182 q 607 168 556 167 q 785 208 703 169 q 879 356 867 246 l 879 356 m 597 674 q 563 687 581 681 q 526 697 544 693 q 503 701 515 700 q 479 704 490 703 q 457 706 468 706 q 435 707 446 706 q 314 695 374 707 q 201 647 254 683 q 138 578 158 617 q 118 499 118 539 q 119 486 118 493 q 119 474 119 479 q 157 376 126 424 q 231 290 188 328 q 295 246 261 265 q 365 211 329 226 l 597 674 l 597 674 z "},"∞":{"ha":278,"x_min":0,"x_max":0,"o":""},"±":{"ha":694,"x_min":0,"x_max":0,"o":""},"≤":{"ha":694,"x_min":0,"x_max":0,"o":""},"≥":{"ha":694,"x_min":0,"x_max":0,"o":""},"¥":{"ha":621,"x_min":28,"x_max":593,"o":"m 576 569 q 589 563 585 568 q 593 550 593 557 q 593 548 593 549 q 593 547 593 547 q 587 537 592 542 q 574 532 582 532 q 572 532 572 532 q 569 532 571 532 q 550 535 560 533 q 531 539 540 538 q 473 553 501 546 q 417 569 444 560 q 402 516 411 543 q 382 463 393 489 l 447 463 l 447 422 l 364 422 q 360 414 363 418 q 356 407 358 410 q 352 399 354 403 q 347 390 350 394 l 447 390 l 447 351 l 325 351 l 322 346 l 322 36 l 165 36 l 165 269 q 141 299 151 282 q 124 333 131 315 q 120 342 122 338 q 117 351 118 347 l 28 351 l 28 390 l 104 390 q 101 407 103 399 q 97 422 99 415 l 28 422 l 28 463 l 89 463 q 83 513 86 488 q 79 563 81 538 q 78 588 79 575 q 76 613 78 600 q 74 659 75 636 q 69 704 72 682 l 236 771 l 313 408 q 353 494 336 450 q 379 586 369 539 q 374 589 376 588 q 371 590 372 590 q 351 606 358 597 q 336 631 343 614 q 326 665 331 646 q 321 706 322 683 q 322 728 321 714 q 325 760 322 743 q 339 803 329 783 q 368 822 349 822 q 399 803 388 822 q 418 761 411 783 q 424 734 422 747 q 426 713 425 721 q 427 660 428 686 q 424 610 426 635 q 480 591 451 599 q 538 578 508 583 q 557 573 547 575 q 576 569 567 571 l 576 569 z "},"µ":{"ha":694,"x_min":0,"x_max":0,"o":""},"∂":{"ha":694,"x_min":0,"x_max":0,"o":""},"Σ":{"ha":694,"x_min":0,"x_max":0,"o":""},"∏":{"ha":278,"x_min":0,"x_max":0,"o":""},"π":{"ha":694,"x_min":0,"x_max":0,"o":""},"∫":{"ha":278,"x_min":0,"x_max":0,"o":""},"ª":{"ha":515,"x_min":24,"x_max":492,"o":"m 486 739 l 351 588 q 316 557 336 567 q 275 547 296 547 q 225 563 249 547 q 186 608 201 579 q 184 605 185 607 q 182 601 183 603 q 149 564 169 581 q 106 547 129 547 q 103 547 104 547 q 103 547 103 547 q 101 547 101 547 q 99 547 100 547 q 44 592 64 551 q 24 692 24 633 q 24 707 24 699 q 25 724 24 715 q 39 789 29 758 q 63 842 49 819 q 97 880 76 863 q 142 897 118 897 q 156 894 149 896 q 171 888 164 892 l 171 896 l 326 896 l 326 619 q 359 656 343 638 q 392 693 375 674 q 424 729 408 711 q 457 765 440 747 q 460 769 458 768 q 465 771 463 769 q 469 772 467 772 q 472 772 471 772 q 486 767 481 772 q 492 753 492 761 q 492 749 492 751 q 490 746 492 747 q 489 742 490 744 q 486 739 488 740 l 486 739 m 172 682 l 171 828 q 169 832 171 829 q 167 838 168 835 q 160 847 164 843 q 150 851 156 851 q 131 837 138 851 q 121 806 124 822 q 118 783 118 793 q 118 765 118 772 q 121 749 118 761 q 128 722 124 736 q 142 690 133 704 q 160 676 150 676 q 166 678 163 676 q 172 682 169 679 l 172 682 z "},"º":{"ha":474,"x_min":22,"x_max":453,"o":"m 436 751 q 449 744 444 750 q 453 732 453 739 q 448 717 453 724 q 433 711 443 711 q 433 711 433 711 q 431 713 432 711 q 428 713 429 713 q 428 713 428 713 q 369 727 399 719 q 313 742 340 735 q 307 710 311 726 q 296 675 303 693 q 238 578 276 622 q 143 535 199 535 q 135 535 139 535 q 126 536 131 535 q 56 579 81 543 q 25 657 32 615 q 23 675 24 665 q 22 693 22 685 q 25 727 22 710 q 32 761 28 744 q 92 873 49 822 q 197 924 135 924 q 281 882 253 924 q 314 790 310 840 q 314 785 314 788 q 314 782 314 783 q 344 774 329 778 q 375 767 360 771 q 406 759 390 763 q 436 751 421 756 l 436 751 m 251 679 q 259 690 257 683 q 261 704 261 696 q 260 717 261 711 q 257 731 258 724 q 251 747 254 739 q 244 761 247 754 q 237 776 240 769 q 231 786 233 782 q 222 797 228 790 q 208 810 215 803 q 194 822 201 817 q 179 832 186 828 q 165 838 172 836 q 151 840 158 840 q 143 840 147 840 q 136 836 139 839 q 128 826 131 832 q 126 813 126 819 q 128 800 126 807 q 131 786 129 793 q 137 769 133 778 q 144 753 140 760 q 152 740 149 746 q 158 731 156 733 q 167 719 161 726 q 182 706 174 713 q 195 694 188 700 q 210 685 203 689 q 224 678 217 681 q 238 675 232 675 q 245 676 242 675 q 251 679 249 678 l 251 679 z "},"Ω":{"ha":694,"x_min":0,"x_max":0,"o":""},"æ":{"ha":643,"x_min":6,"x_max":718,"o":"m 718 328 q 715 310 717 319 q 713 293 714 301 q 605 117 688 197 q 421 36 522 36 q 417 36 419 36 q 411 38 414 36 q 407 38 410 38 q 401 38 404 38 q 381 41 392 39 q 361 47 371 43 q 351 44 357 46 q 340 42 346 43 q 321 38 331 39 q 303 36 311 36 q 238 60 265 36 q 196 115 210 83 q 193 109 194 113 q 189 103 192 106 q 149 55 174 76 q 92 36 125 33 q 29 89 53 40 q 6 206 6 138 q 6 224 6 215 q 7 243 6 233 q 14 283 8 260 q 28 329 19 306 q 71 409 43 372 q 139 446 99 446 q 144 446 142 446 q 147 446 146 446 q 162 442 156 444 q 174 438 168 440 q 178 435 176 436 q 182 432 181 433 l 182 447 l 331 447 q 335 452 333 450 q 339 457 338 454 q 392 501 363 481 q 456 519 422 521 q 464 519 460 519 q 472 518 468 519 q 525 481 507 510 q 547 421 543 453 q 548 409 547 415 q 549 397 549 403 q 547 372 549 385 q 543 344 546 358 q 508 260 533 300 q 444 197 482 219 q 483 178 464 185 q 524 172 503 172 q 577 185 551 174 q 625 218 603 196 q 661 268 647 239 q 679 332 675 297 q 685 345 681 340 q 694 351 689 350 q 697 351 696 351 q 699 351 697 351 q 713 346 707 350 q 718 331 718 342 q 718 330 718 331 q 718 329 718 329 q 718 328 718 329 q 718 328 718 328 l 718 328 m 183 193 l 182 368 q 180 374 181 371 q 176 381 179 376 q 167 394 174 388 q 153 401 161 401 q 121 374 131 401 q 111 310 111 346 q 111 303 111 307 q 111 296 111 299 q 128 217 114 253 q 165 183 142 182 q 175 186 171 183 q 183 193 179 189 l 183 193 m 463 381 q 462 392 463 385 q 460 406 461 399 q 450 428 457 418 q 431 439 443 439 q 390 420 403 439 q 374 378 378 401 q 372 364 372 371 q 369 351 371 357 q 376 290 368 319 q 401 238 385 261 q 440 290 424 260 q 460 353 456 321 q 462 367 461 360 q 463 381 463 374 l 463 381 z "},"ø":{"ha":471,"x_min":4,"x_max":514,"o":"m 497 288 q 510 281 506 286 q 514 268 514 275 q 508 255 513 261 q 494 249 504 249 q 492 249 493 249 q 492 250 492 249 q 490 250 490 250 q 488 250 489 250 q 417 267 453 258 q 346 286 382 276 q 322 190 340 238 q 272 104 304 143 q 219 58 249 76 q 158 38 189 40 q 151 36 154 36 q 144 36 147 36 q 122 38 133 36 q 100 46 111 40 l 58 -37 q 52 -44 56 -40 q 44 -47 49 -47 q 42 -49 43 -49 q 39 -49 40 -49 q 26 -44 32 -49 q 19 -29 19 -39 q 20 -25 19 -28 q 22 -19 21 -22 l 67 67 q 51 82 58 74 q 38 100 44 90 q 12 158 19 128 q 4 222 4 189 q 5 237 4 229 q 6 251 6 244 q 31 348 11 301 q 81 428 50 394 q 142 477 108 460 q 213 494 176 494 q 245 490 231 494 q 272 479 260 486 l 315 564 q 323 574 318 571 q 333 576 328 576 q 347 569 340 575 q 353 556 353 564 q 352 551 353 554 q 350 546 351 549 l 303 453 q 335 394 325 428 q 347 325 346 361 q 422 306 385 315 q 497 288 460 297 l 497 288 m 279 203 q 289 217 286 208 q 292 235 292 225 q 290 251 292 243 q 286 269 289 260 q 278 289 282 279 q 269 308 274 299 q 260 324 264 317 q 253 335 256 331 q 251 339 251 338 q 249 342 250 340 l 193 232 q 214 214 203 222 q 238 201 225 206 q 249 197 243 199 q 260 196 254 196 q 270 198 265 196 q 279 203 275 200 l 279 203 m 218 371 q 200 386 210 379 q 181 397 190 393 q 167 401 174 400 q 154 403 161 403 q 150 403 153 403 q 146 401 147 403 q 141 400 143 401 q 136 397 139 399 q 126 383 129 392 q 124 365 124 375 q 125 350 124 358 q 129 333 126 342 q 137 311 132 322 q 146 290 142 300 q 156 275 151 282 q 163 264 160 268 q 163 263 163 264 q 163 263 163 263 q 163 262 163 263 q 164 261 164 261 l 218 371 l 218 371 z "},"¿":{"ha":463,"x_min":19,"x_max":440,"o":"m 67 299 q 98 332 81 317 q 133 363 115 347 q 135 364 133 363 q 136 365 136 365 q 186 409 163 386 q 224 464 210 432 q 231 485 228 475 q 238 507 235 496 q 246 549 243 528 q 249 593 249 571 l 303 593 q 288 487 300 535 q 254 393 276 439 q 232 351 244 372 q 204 307 219 329 q 197 296 201 301 q 190 285 193 290 q 167 239 178 264 q 150 189 156 214 q 146 169 147 179 q 144 149 144 158 q 150 114 144 131 q 167 82 156 97 q 214 44 189 56 q 265 32 239 32 q 351 67 313 33 q 399 154 390 101 q 382 148 390 150 q 367 146 374 146 q 319 167 339 146 q 299 215 299 189 q 304 240 299 228 q 319 263 310 253 q 342 276 329 272 q 368 281 354 281 q 407 269 389 281 q 431 238 425 258 q 438 206 436 221 q 440 175 440 190 q 374 35 439 89 q 224 -17 310 -18 q 210 -17 217 -17 q 196 -15 203 -17 q 182 -14 189 -15 q 168 -11 175 -12 q 58 54 96 4 q 19 165 19 104 q 32 234 19 200 q 67 299 44 268 l 67 299 m 214 718 q 232 763 214 744 q 276 781 250 781 q 322 763 303 781 q 340 718 340 744 q 322 673 340 692 q 276 654 303 654 q 232 673 250 654 q 214 718 214 692 l 214 718 z "},"¡":{"ha":168,"x_min":10,"x_max":158,"o":"m 10 -33 q 24 133 17 50 q 38 297 31 215 q 50 462 43 379 q 64 628 57 544 l 119 628 q 128 462 124 544 q 138 297 133 379 q 147 133 142 215 q 156 -32 151 50 l 10 -33 l 10 -33 m 33 776 q 51 821 33 803 q 96 839 69 839 q 140 821 122 839 q 158 776 158 803 q 140 731 158 750 q 96 713 122 713 q 51 731 69 713 q 33 776 33 750 l 33 776 z "},"¬":{"ha":694,"x_min":0,"x_max":0,"o":""},"√":{"ha":694,"x_min":0,"x_max":0,"o":""},"ƒ":{"ha":694,"x_min":0,"x_max":0,"o":""},"≈":{"ha":694,"x_min":0,"x_max":0,"o":""},"∆":{"ha":694,"x_min":0,"x_max":0,"o":""},"«":{"ha":378,"x_min":11,"x_max":369,"o":"m 224 714 q 170 624 197 669 q 115 532 143 578 q 162 444 139 489 q 208 354 185 399 q 209 352 208 353 q 210 350 210 351 q 212 347 211 349 q 213 342 213 344 q 210 335 213 339 q 200 328 207 332 q 193 326 196 326 q 188 325 190 325 q 187 325 188 325 q 186 325 186 325 q 185 325 186 325 q 185 325 185 325 q 184 325 185 325 q 182 325 183 325 q 181 324 182 324 q 179 324 181 324 q 174 326 176 324 q 168 331 171 328 q 167 333 168 332 q 167 333 167 333 q 89 433 128 383 q 11 533 50 483 l 193 738 q 199 745 196 743 q 207 747 203 747 q 210 747 208 747 q 215 744 213 746 q 217 743 217 743 q 219 742 218 743 q 228 734 226 738 q 231 728 231 731 q 228 722 229 725 q 224 714 226 718 l 224 714 m 363 714 q 309 624 336 669 q 254 532 282 578 q 301 444 278 489 q 347 354 324 399 q 348 352 347 353 q 349 350 349 351 q 351 347 350 349 q 351 342 351 344 q 349 335 351 339 q 339 328 346 332 q 332 326 335 326 q 326 325 329 325 q 326 325 326 325 q 325 325 325 325 q 324 325 325 325 q 324 325 324 325 q 323 325 324 325 q 321 325 322 325 q 320 324 321 324 q 318 324 319 324 q 313 326 315 324 q 307 331 310 328 q 306 333 307 332 q 306 333 306 333 q 228 433 267 383 q 150 533 189 483 l 332 738 q 338 745 335 743 q 346 747 342 747 q 349 747 347 747 q 354 744 351 746 q 356 743 356 743 q 358 742 357 743 q 367 734 365 738 q 369 728 369 731 q 367 722 368 725 q 363 714 365 718 l 363 714 z "},"»":{"ha":374,"x_min":8,"x_max":367,"o":"m 15 714 q 10 722 13 718 q 8 728 8 725 q 11 734 8 731 q 19 742 14 738 q 27 746 24 744 q 33 747 31 747 q 40 745 36 747 q 46 738 43 743 l 228 533 q 151 433 189 483 q 72 333 113 383 q 72 333 72 333 q 69 331 71 332 q 69 331 69 331 q 69 331 69 331 q 65 326 67 328 q 58 324 63 324 q 56 325 57 325 q 54 325 56 325 q 53 325 54 325 q 53 325 53 325 q 52 325 53 325 q 51 325 51 325 q 45 326 49 325 q 39 328 42 326 q 29 336 32 332 q 26 343 26 340 q 27 346 26 344 q 28 349 28 347 q 28 349 28 349 q 29 350 29 350 q 30 352 29 351 q 31 354 31 353 q 78 444 54 399 q 124 532 101 489 q 70 624 97 578 q 15 714 43 669 l 15 714 m 154 714 q 149 722 151 718 q 147 728 147 725 q 150 734 147 731 q 158 742 153 738 q 166 746 163 744 q 172 747 169 747 q 178 745 175 747 q 185 738 182 743 l 367 533 q 290 433 328 483 q 211 333 251 383 q 210 333 211 333 q 208 331 210 332 q 208 331 208 331 q 208 331 208 331 q 203 326 206 328 q 197 324 201 324 q 195 325 196 325 q 193 325 194 325 q 192 325 193 325 q 192 325 192 325 q 191 325 192 325 q 190 325 190 325 q 184 326 188 325 q 178 328 181 326 q 168 336 171 332 q 165 343 165 340 q 166 346 165 344 q 167 349 167 347 q 167 349 167 349 q 168 350 168 350 q 169 352 168 351 q 169 354 169 353 q 217 444 193 399 q 263 532 240 489 q 209 624 236 578 q 154 714 182 669 l 154 714 z "},"…":{"ha":511,"x_min":36,"x_max":481,"o":"m 161 99 q 143 54 161 72 q 99 36 125 36 q 54 54 72 36 q 36 99 36 72 q 54 144 36 125 q 99 163 72 163 q 143 144 125 163 q 161 99 161 125 l 161 99 m 328 99 q 310 54 328 72 q 265 36 292 36 q 221 54 239 36 q 203 99 203 72 q 221 144 203 125 q 265 163 239 163 q 310 144 292 163 q 328 99 328 125 l 328 99 m 481 99 q 463 54 481 72 q 418 36 444 36 q 374 54 392 36 q 356 99 356 72 q 374 144 356 125 q 418 163 392 163 q 463 144 444 163 q 481 99 481 125 l 481 99 z "},"À":{"ha":919,"x_min":0,"x_max":915,"o":"m 914 244 q 906 208 911 229 q 894 164 901 186 q 856 88 881 122 q 793 54 832 54 q 731 83 758 54 q 686 149 704 113 q 673 176 679 163 q 663 201 667 190 l 621 68 q 530 49 578 56 q 433 42 482 42 q 420 42 426 42 q 408 42 414 42 q 166 103 281 47 q 1 279 51 160 q 0 285 0 282 q 0 290 0 288 q 15 379 7 335 q 31 468 22 424 q 47 557 39 513 q 64 646 56 601 q 65 651 64 649 q 68 654 67 653 q 256 809 138 750 q 503 889 374 868 q 574 899 539 896 q 644 901 610 901 q 716 898 681 901 q 783 888 751 894 q 788 887 786 888 q 793 886 790 886 q 798 884 796 885 q 803 883 800 883 q 788 811 796 847 q 774 739 781 775 l 731 726 l 757 686 q 742 609 749 650 q 735 528 736 568 q 735 514 735 521 q 735 500 735 507 q 735 492 735 496 q 735 486 735 489 q 756 340 736 411 q 821 214 775 268 q 824 212 822 213 q 826 211 825 211 q 829 211 828 211 q 832 211 831 211 q 834 211 833 211 q 836 211 835 211 q 856 221 846 213 q 871 239 865 229 q 874 246 872 243 q 875 251 875 249 q 881 263 876 260 q 890 268 885 267 q 892 268 892 268 q 894 268 893 268 q 897 268 896 268 q 897 268 897 268 q 910 262 904 267 q 914 249 915 257 q 914 247 914 247 q 914 244 914 246 l 914 244 m 674 742 l 671 744 q 559 743 621 747 q 432 728 497 739 q 190 633 301 701 q 67 438 78 565 q 138 287 58 342 q 313 208 217 232 q 406 190 361 196 q 486 185 451 185 q 560 188 525 185 q 621 200 594 192 l 642 267 q 622 366 629 314 q 615 471 615 418 q 629 613 615 543 q 674 742 643 682 l 674 742 m 619 950 l 606 917 q 491 950 549 933 q 375 983 433 967 q 349 1002 357 989 q 340 1029 340 1015 q 353 1065 340 1049 q 388 1081 367 1081 q 401 1078 394 1081 q 414 1072 407 1076 q 465 1042 439 1057 q 517 1011 490 1026 q 569 981 543 996 q 619 950 594 965 l 619 950 z "},"Ã":{"ha":919,"x_min":0,"x_max":915,"o":"m 914 244 q 906 208 911 229 q 894 164 901 186 q 856 88 881 122 q 793 54 832 54 q 731 83 758 54 q 686 149 704 113 q 673 176 679 163 q 663 201 667 190 l 621 68 q 530 49 578 56 q 433 42 482 42 q 420 42 426 42 q 408 42 414 42 q 166 103 281 47 q 1 279 51 160 q 0 285 0 282 q 0 290 0 288 q 15 379 7 335 q 31 468 22 424 q 47 557 39 513 q 64 646 56 601 q 65 651 64 649 q 68 654 67 653 q 256 809 138 750 q 503 889 374 868 q 574 899 539 896 q 644 901 610 901 q 716 898 681 901 q 783 888 751 894 q 788 887 786 888 q 793 886 790 886 q 798 884 796 885 q 803 883 800 883 q 788 811 796 847 q 774 739 781 775 l 731 726 l 757 686 q 742 609 749 650 q 735 528 736 568 q 735 514 735 521 q 735 500 735 507 q 735 492 735 496 q 735 486 735 489 q 756 340 736 411 q 821 214 775 268 q 824 212 822 213 q 826 211 825 211 q 829 211 828 211 q 832 211 831 211 q 834 211 833 211 q 836 211 835 211 q 856 221 846 213 q 871 239 865 229 q 874 246 872 243 q 875 251 875 249 q 881 263 876 260 q 890 268 885 267 q 892 268 892 268 q 894 268 893 268 q 897 268 896 268 q 897 268 897 268 q 910 262 904 267 q 914 249 915 257 q 914 247 914 247 q 914 244 914 246 l 914 244 m 674 742 l 671 744 q 559 743 621 747 q 432 728 497 739 q 190 633 301 701 q 67 438 78 565 q 138 287 58 342 q 313 208 217 232 q 406 190 361 196 q 486 185 451 185 q 560 188 525 185 q 621 200 594 192 l 642 267 q 622 366 629 314 q 615 471 615 418 q 629 613 615 543 q 674 742 643 682 l 674 742 m 706 1026 q 697 990 704 1008 q 675 960 689 972 q 636 935 660 943 q 588 926 613 926 q 547 933 567 926 q 513 951 528 939 q 502 960 508 956 q 490 969 496 965 q 476 981 483 975 q 463 990 469 986 q 453 994 458 992 q 444 996 449 996 q 442 996 443 996 q 439 996 442 996 q 415 984 425 996 q 400 958 406 972 q 397 949 399 954 q 396 940 396 944 q 393 927 396 933 q 375 922 390 921 q 360 927 364 922 q 357 938 356 932 q 357 938 357 938 q 357 940 357 939 q 357 942 357 942 q 357 943 357 943 q 357 947 357 944 q 357 950 357 949 q 357 951 357 950 q 357 953 357 951 q 357 958 357 956 q 357 963 357 960 q 387 1031 358 1003 q 456 1058 415 1058 q 503 1048 483 1058 q 540 1022 522 1038 q 549 1016 544 1019 q 557 1008 553 1013 q 581 994 568 999 q 606 989 593 989 q 648 1006 631 989 q 667 1049 665 1024 q 669 1062 667 1056 q 686 1067 672 1068 q 701 1061 697 1065 q 706 1049 706 1057 q 706 1044 706 1047 q 704 1038 706 1040 q 706 1033 706 1036 q 706 1026 706 1029 l 706 1026 z "},"Õ":{"ha":1015,"x_min":0,"x_max":1003,"o":"m 997 594 q 1001 559 1000 576 q 1003 525 1003 542 q 872 211 1003 347 q 568 46 742 75 q 528 41 549 43 q 486 39 507 39 q 450 40 468 39 q 414 44 432 42 q 128 171 257 65 q 10 447 0 276 q 135 672 21 607 q 383 744 249 738 q 436 745 410 746 q 488 743 463 744 q 519 739 503 742 q 553 732 536 736 q 613 712 583 724 q 668 685 643 700 q 674 680 672 683 q 678 674 676 676 q 678 671 678 672 q 678 668 678 669 q 672 653 678 660 q 658 649 667 647 q 656 649 657 649 q 653 649 654 649 q 650 649 651 649 q 647 651 649 650 q 590 679 621 667 q 526 699 558 692 q 506 701 517 700 q 485 704 496 703 q 341 700 413 710 q 207 647 269 690 q 144 578 164 617 q 124 499 124 539 q 124 486 124 493 q 125 474 125 479 q 163 376 132 424 q 236 290 193 328 q 398 200 308 229 q 582 168 488 171 q 597 168 589 168 q 613 168 604 168 q 790 208 708 169 q 885 356 872 246 q 888 383 888 369 q 888 408 888 396 q 847 574 888 499 q 729 703 807 649 q 597 764 665 747 q 458 781 529 781 q 360 774 410 781 q 258 758 310 768 l 240 790 q 378 883 297 853 q 549 911 460 913 q 563 911 556 911 q 576 910 569 911 q 847 821 722 903 q 997 594 972 739 l 997 594 m 706 1035 q 697 999 704 1017 q 675 968 689 981 q 636 943 660 951 q 588 935 613 935 q 547 941 567 935 q 513 960 528 947 q 502 969 508 964 q 490 978 496 974 q 476 989 483 983 q 463 999 469 994 q 453 1002 458 1000 q 444 1004 449 1004 q 442 1004 443 1004 q 439 1004 442 1004 q 415 992 425 1004 q 400 967 406 981 q 397 958 399 963 q 396 949 396 953 q 393 935 396 942 q 375 931 390 929 q 360 935 364 931 q 357 946 356 940 q 357 947 357 946 q 357 949 357 947 q 357 951 357 950 q 357 951 357 951 q 357 955 357 953 q 357 958 357 957 q 357 959 357 958 q 357 961 357 960 q 357 966 357 964 q 357 971 357 968 q 387 1039 358 1011 q 456 1067 415 1067 q 503 1056 483 1067 q 540 1031 522 1046 q 549 1024 544 1028 q 557 1017 553 1021 q 581 1002 568 1007 q 606 997 593 997 q 648 1015 631 997 q 667 1057 665 1032 q 669 1070 667 1064 q 686 1075 672 1076 q 701 1069 697 1074 q 706 1057 706 1065 q 706 1052 706 1056 q 704 1046 706 1049 q 706 1041 706 1044 q 706 1035 706 1038 l 706 1035 z "},"Œ":{"ha":1590,"x_min":-7,"x_max":1593,"o":"m 1593 278 q 1582 255 1588 267 q 1571 232 1576 243 q 1549 185 1560 208 q 1526 140 1538 163 q 1490 111 1519 125 q 1426 85 1460 97 q 1373 69 1399 76 q 1335 60 1347 63 q 1249 47 1300 53 q 1140 42 1197 42 q 1104 42 1122 42 q 1068 44 1086 43 q 908 72 985 50 q 783 139 831 93 q 678 81 735 104 q 563 46 622 57 q 522 41 543 43 q 481 39 501 39 q 447 40 464 39 q 411 43 429 42 q 123 169 253 64 q 4 447 -7 275 q 128 671 15 606 q 375 744 242 736 q 428 745 401 746 q 481 743 454 744 q 508 740 494 742 q 538 735 522 738 q 603 714 571 726 q 661 685 635 701 q 667 680 665 683 q 671 674 669 676 q 671 671 671 672 q 671 668 671 669 q 665 653 671 660 q 651 649 660 647 q 649 649 650 649 q 646 649 647 649 q 643 649 644 649 q 640 651 642 650 q 585 678 615 667 q 524 697 554 690 q 500 701 511 700 q 478 704 489 703 q 458 706 468 706 q 436 706 447 706 q 315 695 375 707 q 201 647 254 683 q 138 578 157 617 q 118 499 118 539 q 119 486 118 493 q 119 474 119 479 q 157 376 126 424 q 231 290 188 328 q 399 199 306 228 q 589 168 492 169 q 597 168 593 168 q 606 168 601 168 q 616 168 611 168 q 626 168 621 168 q 689 175 658 169 q 746 190 719 181 q 733 226 738 207 q 729 268 729 246 q 729 276 729 272 q 729 282 729 279 q 730 288 729 285 q 731 296 731 292 q 779 408 739 364 q 875 479 819 453 q 824 603 861 546 q 724 703 786 660 q 591 764 660 747 q 451 781 522 781 q 353 774 403 781 q 253 758 303 768 l 235 790 q 373 883 292 853 q 543 913 454 913 q 552 913 547 913 q 563 913 557 913 q 763 866 665 907 q 921 749 860 825 q 977 859 925 813 q 1090 921 1029 906 q 1094 922 1092 921 q 1099 922 1097 922 q 1109 924 1104 924 q 1119 925 1114 925 q 1128 926 1124 926 q 1139 926 1133 926 q 1151 926 1144 926 q 1163 925 1157 925 q 1265 893 1215 918 q 1353 835 1315 868 q 1355 843 1354 839 q 1356 851 1356 847 q 1354 862 1356 857 q 1353 872 1353 867 q 1350 883 1351 878 q 1349 893 1349 888 q 1353 909 1347 903 q 1365 917 1358 915 q 1366 917 1365 917 q 1368 917 1367 917 q 1381 911 1375 915 q 1388 897 1386 907 q 1392 869 1390 882 q 1393 846 1393 857 q 1391 826 1393 836 q 1385 804 1389 817 q 1434 726 1418 767 q 1450 636 1450 685 q 1450 621 1450 629 q 1449 604 1450 613 q 1445 586 1447 596 q 1440 565 1443 576 q 1417 522 1432 542 q 1378 501 1401 501 q 1366 503 1372 501 q 1353 508 1360 506 q 1313 553 1324 524 q 1301 615 1301 582 q 1301 623 1301 619 q 1301 629 1301 626 q 1306 670 1303 650 q 1314 708 1310 690 q 1315 715 1314 711 q 1317 721 1315 718 q 1234 772 1281 750 q 1139 803 1188 793 q 1096 809 1117 807 q 1054 810 1075 811 q 987 792 1015 807 q 960 736 958 776 q 960 730 960 733 q 960 722 960 726 q 960 719 960 721 q 961 715 961 717 q 1026 619 974 650 q 1139 568 1079 588 q 1160 561 1150 564 q 1181 554 1171 558 q 1208 546 1194 550 q 1233 536 1221 542 l 1256 408 q 1176 416 1215 413 q 1096 419 1136 419 q 1041 417 1069 419 q 985 410 1013 415 q 984 410 985 410 q 982 410 983 410 q 980 408 981 408 q 979 408 979 408 q 931 296 963 349 q 854 199 899 243 q 869 196 861 197 q 882 193 876 194 q 1001 173 942 179 q 1118 167 1060 167 q 1360 195 1242 167 q 1593 278 1479 224 l 1593 278 m 881 381 q 806 336 839 363 q 774 271 774 310 q 774 268 774 269 q 775 265 774 267 q 775 263 775 264 q 775 260 775 261 q 785 237 778 247 q 803 219 793 226 q 853 275 833 242 q 879 356 874 308 q 881 369 881 363 q 881 381 881 375 l 881 381 m 1110 538 q 1047 562 1078 549 q 990 596 1015 575 l 990 594 q 994 558 993 576 q 996 519 996 539 q 1055 531 1026 526 q 1110 538 1083 535 l 1110 538 m 1381 543 q 1385 556 1383 550 q 1388 568 1388 561 q 1390 580 1389 574 q 1390 592 1390 586 q 1380 642 1390 618 q 1350 689 1369 667 q 1349 683 1350 686 q 1347 676 1349 679 q 1344 649 1346 664 q 1343 617 1343 633 q 1350 565 1343 589 q 1375 542 1357 542 q 1376 542 1375 542 q 1378 543 1376 542 q 1380 543 1379 543 q 1381 543 1381 543 l 1381 543 z "},"œ":{"ha":689,"x_min":3,"x_max":760,"o":"m 760 328 q 757 310 758 319 q 754 293 756 301 q 647 117 729 197 q 463 36 564 36 q 458 36 461 36 q 453 38 456 36 q 449 38 451 38 q 443 38 446 38 q 360 76 396 42 q 310 164 325 111 q 292 133 301 149 q 271 104 282 118 q 217 58 247 76 q 157 38 188 40 q 149 36 153 36 q 142 36 146 36 q 85 51 113 36 q 36 100 57 67 q 10 158 18 128 q 3 222 3 189 q 3 237 3 229 q 4 251 4 244 q 29 348 10 301 q 79 428 49 394 q 141 477 107 460 q 211 494 175 494 q 291 465 261 494 q 335 392 321 435 q 349 417 342 404 q 365 439 357 429 q 371 445 368 442 q 376 451 374 449 q 431 499 400 478 q 497 519 463 519 q 506 519 501 519 q 514 518 510 519 q 567 481 549 510 q 589 421 585 453 q 590 409 589 415 q 590 397 590 403 q 589 372 590 385 q 585 344 588 358 q 549 260 575 300 q 486 197 524 219 q 525 178 506 185 q 565 172 544 172 q 619 185 593 174 q 667 218 644 196 q 703 268 689 239 q 721 332 717 297 q 726 345 722 340 q 736 351 731 350 q 738 351 738 351 q 740 351 739 351 q 754 346 749 350 q 760 331 760 342 q 760 330 760 331 q 760 329 760 329 q 760 328 760 329 q 760 328 760 328 l 760 328 m 278 203 q 288 217 285 208 q 290 235 290 225 q 289 251 290 243 q 285 269 288 260 q 276 289 281 279 q 268 308 272 299 q 258 324 263 317 q 251 335 254 331 q 240 349 247 340 q 225 365 233 357 q 206 381 217 374 q 186 394 196 389 q 169 401 178 399 q 154 404 161 404 q 144 401 149 403 q 135 397 139 400 q 124 383 128 392 q 122 364 121 375 q 124 349 122 357 q 126 333 125 342 q 135 310 131 322 q 144 289 139 299 q 153 274 149 281 q 160 264 157 268 q 172 250 164 258 q 188 233 179 242 q 208 217 197 225 q 229 204 218 210 q 244 198 236 200 q 258 196 251 196 q 269 199 264 197 q 278 203 274 200 l 278 203 m 504 381 q 503 392 504 385 q 501 406 503 399 q 492 428 499 418 q 472 439 485 439 q 433 420 446 439 q 415 378 421 401 q 413 364 414 371 q 411 351 413 357 q 418 290 410 319 q 443 238 426 261 q 481 290 465 260 q 501 353 497 321 q 503 367 503 360 q 504 381 504 374 l 504 381 z "},"—":{"ha":632,"x_min":-3,"x_max":643,"o":"m 643 364 l -3 364 l -3 414 l 643 414 l 643 364 l 643 364 z "},"“":{"ha":256,"x_min":11,"x_max":247,"o":"m 247 932 l 151 765 l 108 790 l 204 957 l 247 932 l 247 932 m 150 946 l 54 779 l 11 804 l 107 971 l 150 946 l 150 946 z "},"”":{"ha":256,"x_min":11,"x_max":247,"o":"m 247 932 l 151 765 l 108 790 l 204 957 l 247 932 l 247 932 m 150 946 l 54 779 l 11 804 l 107 971 l 150 946 l 150 946 z "},"‘":{"ha":143,"x_min":11,"x_max":150,"o":"m 150 946 l 54 779 l 11 804 l 107 971 l 150 946 l 150 946 z "},"’":{"ha":143,"x_min":11,"x_max":150,"o":"m 150 946 l 54 779 l 11 804 l 107 971 l 150 946 l 150 946 z "},"÷":{"ha":694,"x_min":0,"x_max":0,"o":""},"◊":{"ha":694,"x_min":0,"x_max":0,"o":""},"ÿ":{"ha":525,"x_min":1,"x_max":594,"o":"m 586 279 q 494 200 540 240 q 401 119 449 160 q 401 90 401 106 q 401 60 401 75 q 395 -3 401 32 q 376 -75 389 -37 q 298 -215 350 -151 q 171 -275 246 -279 q 108 -244 131 -275 q 85 -175 86 -214 q 85 -162 85 -168 q 85 -149 85 -156 q 140 -14 92 -78 q 247 82 188 50 l 253 290 q 235 242 246 272 q 210 181 225 213 q 155 91 186 132 q 85 50 124 50 q 74 52 79 50 q 61 56 68 54 q 42 67 51 58 q 26 88 33 75 q 15 118 19 100 q 10 160 11 136 q 8 223 8 192 q 6 286 7 254 q 3 349 4 318 q 1 413 3 381 l 163 483 l 172 196 q 217 308 199 250 q 253 424 236 365 l 404 467 l 403 172 q 483 241 443 207 q 561 310 522 275 q 565 313 564 311 q 569 314 567 314 q 573 315 571 315 q 576 315 575 315 q 589 310 583 315 q 594 296 594 304 q 592 288 594 292 q 586 279 590 283 l 586 279 m 246 36 q 183 -22 210 11 q 140 -90 157 -56 q 139 -97 140 -94 q 136 -103 138 -100 q 135 -108 136 -106 q 133 -112 133 -110 q 128 -135 131 -122 q 124 -161 125 -149 q 124 -166 124 -164 q 124 -171 124 -168 q 131 -208 124 -190 q 156 -232 138 -225 q 164 -234 160 -233 q 172 -235 168 -235 q 212 -213 196 -233 q 236 -168 228 -193 q 240 -149 239 -158 q 242 -132 242 -140 q 242 -90 242 -111 q 244 -47 243 -68 q 245 -6 244 -26 q 246 36 246 15 l 246 36 m 215 543 q 201 510 215 525 q 167 496 186 496 q 134 510 149 496 q 119 543 119 525 q 134 577 119 563 q 167 592 149 592 q 201 577 186 592 q 215 543 215 563 l 215 543 m 335 543 q 320 510 335 525 q 286 496 306 496 q 254 510 268 496 q 240 543 240 525 q 254 577 240 563 q 286 592 268 592 q 320 577 306 592 q 335 543 335 563 l 335 543 z "},"Ÿ":{"ha":846,"x_min":6,"x_max":846,"o":"m 846 83 l 796 -42 q 742 -47 769 -44 q 686 -50 714 -49 q 681 -93 685 -68 q 669 -143 676 -118 q 632 -231 657 -192 q 565 -269 607 -269 q 558 -269 563 -269 q 550 -268 554 -269 q 473 -251 513 -260 q 394 -231 433 -242 q 206 -165 299 -204 q 39 -65 114 -125 l 93 51 l 644 75 q 642 138 643 107 q 640 199 642 168 q 562 153 606 168 q 472 139 518 139 q 465 139 468 139 q 458 139 461 139 q 369 159 413 142 q 292 208 325 176 q 215 324 236 261 q 194 456 193 388 q 198 519 194 488 q 206 585 201 551 q 213 626 208 606 q 219 668 217 647 q 231 733 225 700 q 240 796 236 765 q 240 798 240 797 q 240 800 240 799 q 242 815 242 806 q 242 833 242 824 q 238 857 240 846 q 228 874 235 868 q 136 799 160 854 q 108 683 113 744 q 106 653 107 668 q 106 622 106 638 l 11 610 q 8 649 10 629 q 6 690 6 669 q 29 817 6 757 q 119 910 53 878 q 147 919 132 917 q 179 922 163 922 q 197 922 188 922 q 214 919 206 921 q 294 890 257 913 q 347 833 332 867 q 372 753 365 794 q 379 669 379 713 q 375 597 379 633 q 364 522 371 560 q 358 487 361 504 q 353 451 356 469 q 337 361 344 406 q 326 275 329 317 q 341 220 324 236 q 388 206 358 204 q 408 207 397 206 q 428 210 418 208 q 555 288 510 225 q 624 422 600 350 q 633 480 631 442 q 638 564 636 518 q 638 577 638 571 q 639 590 639 583 q 640 609 639 600 q 640 628 640 618 q 658 783 644 713 q 713 853 672 853 q 715 853 714 853 q 717 853 715 853 q 719 851 718 851 q 721 851 719 851 q 756 822 746 846 q 767 761 767 797 q 761 701 767 733 q 747 635 756 668 q 733 582 740 608 q 717 532 725 556 q 691 466 703 494 q 672 425 679 438 q 675 338 674 382 q 678 251 676 294 q 681 164 679 207 q 685 76 683 121 l 846 83 l 846 83 m 647 -53 q 576 -49 613 -51 q 503 -44 540 -47 q 483 -44 493 -44 q 463 -42 472 -43 q 343 -38 401 -37 q 232 -51 285 -39 q 266 -72 246 -61 q 311 -94 286 -82 q 367 -117 338 -106 q 428 -139 397 -129 q 492 -155 460 -149 q 551 -161 524 -161 q 593 -157 575 -161 q 624 -142 611 -153 q 639 -119 635 -133 q 646 -89 643 -104 q 647 -74 646 -82 q 647 -60 647 -67 q 647 -56 647 -58 q 647 -51 647 -54 l 647 -53 m 713 769 q 710 769 711 769 q 710 769 710 769 q 685 732 693 769 q 675 650 678 694 q 672 582 672 614 q 672 536 672 550 q 672 531 672 533 q 672 529 672 529 q 678 544 672 529 q 690 576 683 558 q 701 607 696 593 q 707 622 706 621 q 710 633 708 626 q 715 650 713 640 q 720 671 718 660 q 724 693 722 682 q 727 713 726 703 q 728 732 728 724 q 724 758 728 747 q 713 769 721 768 l 713 769 m 503 851 q 488 819 503 833 q 454 804 474 804 q 422 819 436 804 q 407 851 407 833 q 422 885 407 871 q 454 900 436 900 q 488 885 474 900 q 503 851 503 871 l 503 851 m 622 851 q 608 819 622 833 q 574 804 593 804 q 542 819 556 804 q 528 851 528 833 q 542 885 528 871 q 574 900 556 900 q 608 885 593 900 q 622 851 622 871 l 622 851 z "},"∕":{"ha":694,"x_min":0,"x_max":0,"o":""},"¤":{"ha":690,"x_min":32,"x_max":658,"o":"m 658 779 l 581 586 l 490 613 l 514 721 q 465 744 489 736 q 418 751 442 751 q 351 732 383 751 q 290 672 319 713 q 253 596 268 639 q 233 504 238 553 l 563 504 l 543 464 l 232 464 q 232 456 232 460 q 233 449 232 453 q 233 440 233 444 q 233 432 233 436 l 529 432 l 510 393 l 239 393 q 259 326 246 358 q 290 269 272 294 q 353 208 319 228 q 421 189 386 189 q 475 200 447 189 q 531 231 503 211 l 531 304 l 571 304 l 571 156 l 531 156 l 531 185 q 490 165 511 172 q 447 153 468 157 q 419 149 433 150 q 392 147 406 147 q 208 215 292 147 q 100 393 125 283 l 32 393 l 51 432 l 93 432 q 93 440 93 436 q 93 449 93 444 q 92 456 92 453 q 92 464 92 460 l 32 464 l 51 504 l 93 504 q 187 707 104 619 q 392 794 269 794 q 459 786 426 794 q 522 761 492 778 l 549 881 l 658 779 l 658 779 z "},"‹":{"ha":240,"x_min":11,"x_max":231,"o":"m 224 714 q 170 624 197 669 q 115 532 143 578 q 162 444 139 489 q 208 354 185 399 q 209 352 208 353 q 210 350 210 351 q 212 347 211 349 q 213 342 213 344 q 210 335 213 339 q 200 328 207 332 q 193 326 196 326 q 188 325 190 325 q 187 325 188 325 q 186 325 186 325 q 185 325 186 325 q 185 325 185 325 q 184 325 185 325 q 182 325 183 325 q 181 324 182 324 q 179 324 181 324 q 174 326 176 324 q 168 331 171 328 q 167 333 168 332 q 167 333 167 333 q 89 433 128 383 q 11 533 50 483 l 193 738 q 199 745 196 743 q 207 747 203 747 q 210 747 208 747 q 215 744 213 746 q 217 743 217 743 q 219 742 218 743 q 228 734 226 738 q 231 728 231 731 q 228 722 229 725 q 224 714 226 718 l 224 714 z "},"›":{"ha":240,"x_min":8,"x_max":228,"o":"m 15 714 q 10 722 13 718 q 8 728 8 725 q 11 734 8 731 q 19 742 14 738 q 27 746 24 744 q 33 747 31 747 q 40 745 36 747 q 46 738 43 743 l 228 533 q 151 433 189 483 q 72 333 113 383 q 72 333 72 333 q 69 331 71 332 q 69 331 69 331 q 69 331 69 331 q 65 326 67 328 q 58 324 63 324 q 56 325 57 325 q 54 325 56 325 q 53 325 54 325 q 53 325 53 325 q 52 325 53 325 q 51 325 51 325 q 45 326 49 325 q 39 328 42 326 q 29 336 32 332 q 26 343 26 340 q 27 346 26 344 q 28 349 28 347 q 28 349 28 349 q 29 350 29 350 q 30 352 29 351 q 31 354 31 353 q 78 444 54 399 q 124 532 101 489 q 70 624 97 578 q 15 714 43 669 l 15 714 z "},"":{"ha":694,"x_min":0,"x_max":0,"o":""},"":{"ha":694,"x_min":0,"x_max":0,"o":""},"‡":{"ha":694,"x_min":0,"x_max":0,"o":""},"∙":{"ha":168,"x_min":25,"x_max":150,"o":"m 150 363 q 132 318 150 336 q 88 300 114 300 q 43 318 61 300 q 25 363 25 336 q 43 408 25 389 q 88 426 61 426 q 132 408 114 426 q 150 363 150 389 l 150 363 z "},"‚":{"ha":154,"x_min":7,"x_max":147,"o":"m 135 107 q 144 84 142 96 q 147 61 147 72 q 130 1 147 31 q 92 -49 113 -28 q 63 -74 78 -61 q 31 -96 49 -86 l 11 -64 q 20 -57 13 -62 q 38 -44 28 -51 q 40 -42 39 -43 q 42 -42 40 -42 q 58 -28 50 -35 q 64 -21 65 -22 q 76 -5 71 -14 q 82 15 81 4 q 83 20 83 18 q 83 25 83 22 q 79 47 83 36 q 68 67 75 57 l 29 39 l 7 72 l 104 139 q 108 136 106 138 q 111 133 110 135 q 124 121 118 128 q 135 107 131 114 l 135 107 z "},"„":{"ha":263,"x_min":7,"x_max":258,"o":"m 246 107 q 256 84 253 96 q 258 61 258 72 q 241 1 258 31 q 203 -49 224 -28 q 174 -74 189 -61 q 142 -96 160 -86 l 122 -64 q 131 -57 124 -62 q 149 -44 139 -51 q 151 -42 150 -43 q 153 -42 151 -42 q 169 -28 161 -35 q 175 -21 176 -22 q 187 -5 182 -14 q 193 15 192 4 q 194 20 194 18 q 194 25 194 22 q 190 47 194 36 q 179 67 186 57 l 146 43 q 125 -7 140 17 q 92 -49 110 -31 q 63 -74 78 -61 q 31 -96 49 -86 l 11 -64 q 20 -57 13 -62 q 38 -44 28 -51 q 40 -42 39 -43 q 42 -42 40 -42 q 58 -28 50 -35 q 64 -21 65 -22 q 76 -5 71 -14 q 82 15 81 4 q 83 20 83 18 q 83 25 83 22 q 79 47 83 36 q 68 67 75 57 l 29 39 l 7 72 l 104 139 q 108 136 106 138 q 111 133 110 135 q 124 121 118 128 q 135 107 131 114 q 140 99 138 103 q 143 89 142 94 l 215 139 q 219 136 217 138 q 222 133 221 135 q 235 121 229 128 q 246 107 242 114 l 246 107 z "},"‰":{"ha":694,"x_min":0,"x_max":0,"o":""},"Â":{"ha":919,"x_min":0,"x_max":915,"o":"m 914 244 q 906 208 911 229 q 894 164 901 186 q 856 88 881 122 q 793 54 832 54 q 731 83 758 54 q 686 149 704 113 q 673 176 679 163 q 663 201 667 190 l 621 68 q 530 49 578 56 q 433 42 482 42 q 420 42 426 42 q 408 42 414 42 q 166 103 281 47 q 1 279 51 160 q 0 285 0 282 q 0 290 0 288 q 15 379 7 335 q 31 468 22 424 q 47 557 39 513 q 64 646 56 601 q 65 651 64 649 q 68 654 67 653 q 256 809 138 750 q 503 889 374 868 q 574 899 539 896 q 644 901 610 901 q 716 898 681 901 q 783 888 751 894 q 788 887 786 888 q 793 886 790 886 q 798 884 796 885 q 803 883 800 883 q 788 811 796 847 q 774 739 781 775 l 731 726 l 757 686 q 742 609 749 650 q 735 528 736 568 q 735 514 735 521 q 735 500 735 507 q 735 492 735 496 q 735 486 735 489 q 756 340 736 411 q 821 214 775 268 q 824 212 822 213 q 826 211 825 211 q 829 211 828 211 q 832 211 831 211 q 834 211 833 211 q 836 211 835 211 q 856 221 846 213 q 871 239 865 229 q 874 246 872 243 q 875 251 875 249 q 881 263 876 260 q 890 268 885 267 q 892 268 892 268 q 894 268 893 268 q 897 268 896 268 q 897 268 897 268 q 910 262 904 267 q 914 249 915 257 q 914 247 914 247 q 914 244 914 246 l 914 244 m 674 742 l 671 744 q 559 743 621 747 q 432 728 497 739 q 190 633 301 701 q 67 438 78 565 q 138 287 58 342 q 313 208 217 232 q 406 190 361 196 q 486 185 451 185 q 560 188 525 185 q 621 200 594 192 l 642 267 q 622 366 629 314 q 615 471 615 418 q 629 613 615 543 q 674 742 643 682 l 674 742 m 672 926 q 669 923 671 925 q 665 921 667 921 q 661 919 663 919 q 657 918 660 918 q 652 920 656 918 q 644 925 649 922 q 620 944 632 935 q 596 961 608 953 q 572 978 583 969 q 547 994 560 986 l 533 994 q 508 977 521 986 q 481 960 494 968 q 453 942 467 951 q 426 925 440 933 q 419 921 422 922 q 414 919 417 919 q 408 922 411 919 q 400 929 404 924 q 396 935 397 932 q 394 942 394 939 q 397 949 394 946 q 403 956 399 953 q 433 985 418 971 q 461 1015 447 1000 q 491 1045 476 1031 q 519 1075 506 1060 l 561 1075 q 589 1044 575 1060 q 617 1015 603 1029 q 643 985 629 1000 q 671 954 657 969 q 677 947 675 950 q 679 940 679 943 q 677 934 679 938 q 672 926 675 931 l 672 926 z "},"Ê":{"ha":881,"x_min":10,"x_max":875,"o":"m 875 278 q 864 255 869 267 q 853 232 858 243 q 847 220 850 226 q 842 208 844 214 q 824 174 833 192 q 807 140 815 157 q 770 111 800 125 q 707 85 740 97 q 653 69 679 76 q 615 60 628 63 q 529 47 581 53 q 421 42 478 42 q 381 42 401 42 q 342 44 361 43 q 113 104 217 56 q 10 268 10 153 q 10 276 10 272 q 10 282 10 279 q 10 288 10 285 q 11 296 11 292 q 102 447 24 396 q 272 519 181 499 q 333 531 303 526 q 392 538 364 535 q 274 594 328 558 q 204 708 219 629 q 202 723 203 715 q 201 738 201 731 q 254 856 201 806 q 371 921 307 906 q 376 922 374 921 q 379 922 378 922 q 390 924 385 924 q 400 925 394 925 q 409 926 404 926 q 419 926 414 926 q 431 926 425 926 q 444 925 438 925 q 546 892 496 918 q 635 835 596 867 q 635 838 635 836 q 636 842 636 840 q 636 845 636 843 q 636 849 636 847 q 635 860 636 854 q 633 871 635 865 q 633 873 633 872 q 633 875 633 874 q 631 884 632 879 q 631 893 631 889 q 631 896 631 894 q 631 899 631 897 q 637 912 631 907 q 650 917 643 917 q 652 917 651 917 q 654 915 653 917 q 664 910 660 914 q 669 897 668 906 q 672 874 671 885 q 675 854 674 864 q 675 851 675 853 q 675 847 675 849 q 673 827 675 838 q 665 804 671 817 q 716 726 700 767 q 732 636 732 685 q 732 621 732 629 q 731 604 732 613 q 727 586 729 596 q 722 565 725 576 q 698 522 714 542 q 660 501 682 501 q 648 503 654 501 q 635 508 642 506 q 594 553 604 524 q 583 617 583 582 q 588 664 583 640 q 596 708 592 688 q 597 715 596 711 q 599 721 597 718 q 516 772 563 750 q 422 803 469 793 q 378 809 400 807 q 335 810 356 811 q 268 792 296 807 q 240 738 240 776 q 241 727 240 732 q 243 715 242 722 q 308 618 256 650 q 424 567 361 586 q 443 560 433 564 q 463 554 453 557 q 490 546 476 550 q 515 536 503 542 l 538 408 q 497 413 517 411 q 457 417 476 414 q 417 419 438 418 q 376 419 397 419 q 322 417 350 419 q 265 410 293 415 q 224 401 247 407 q 178 386 201 394 q 92 342 131 369 q 54 271 54 314 q 54 268 54 269 q 56 265 54 267 q 56 263 56 264 q 56 260 56 261 q 80 223 60 236 q 122 203 100 210 q 144 197 133 200 q 163 193 154 194 q 281 173 222 179 q 399 167 340 167 q 642 195 522 167 q 875 278 761 224 l 875 278 m 663 543 q 667 556 665 550 q 669 568 669 561 q 672 580 671 574 q 672 592 672 586 q 661 642 672 618 q 631 689 650 667 q 630 683 631 686 q 628 676 629 679 q 625 649 626 664 q 624 617 624 633 q 631 565 624 589 q 657 542 638 542 q 658 542 657 542 q 660 543 658 542 q 662 543 661 543 q 663 543 663 543 l 663 543 m 550 926 q 547 923 549 925 q 543 921 544 921 q 539 919 540 919 q 535 918 538 918 q 530 920 533 918 q 522 925 526 922 q 498 944 510 935 q 474 961 486 953 q 449 978 461 969 q 425 994 438 986 l 411 994 q 385 977 399 986 q 358 960 372 968 q 331 942 344 951 q 304 925 318 933 q 297 921 300 922 q 292 919 294 919 q 285 922 289 919 q 278 929 282 924 q 274 935 275 932 q 272 942 272 939 q 274 949 272 946 q 281 956 276 953 q 310 985 296 971 q 339 1015 325 1000 q 369 1045 354 1031 q 397 1075 383 1060 l 439 1075 q 467 1044 453 1060 q 494 1015 481 1029 q 521 985 507 1000 q 549 954 535 969 q 555 947 553 950 q 557 940 557 943 q 555 934 557 938 q 550 926 553 931 l 550 926 z "}}}
